<mxfile host="app.diagrams.net" agent="Mozilla/5.0 (Windows NT 10.0; Win64; x64) AppleWebKit/537.36 (KHTML, like Gecko) Chrome/128.0.0.0 Safari/537.36" version="24.7.6">
  <diagram name="шонч╗Г" id="A-ynLd4lYcw6KQBeWUry">
    <mxGraphModel dx="1481" dy="779" grid="1" gridSize="10" guides="1" tooltips="1" connect="1" arrows="1" fold="1" page="1" pageScale="1" pageWidth="1169" pageHeight="827" math="0" shadow="0">
      <root>
        <mxCell id="0" />
        <mxCell id="1" parent="0" />
        <mxCell id="2Z2Zc4ZfPcimmZf8wGZL-18" value="" style="group" parent="1" vertex="1" connectable="0">
          <mxGeometry x="30" y="520" width="860" height="74" as="geometry" />
        </mxCell>
        <mxCell id="2Z2Zc4ZfPcimmZf8wGZL-12" value="" style="rounded=0;whiteSpace=wrap;html=1;" parent="2Z2Zc4ZfPcimmZf8wGZL-18" vertex="1">
          <mxGeometry y="7" width="860" height="60" as="geometry" />
        </mxCell>
        <mxCell id="2Z2Zc4ZfPcimmZf8wGZL-13" value="&lt;font style=&quot;font-size: 18px;&quot; face=&quot;Times New Roman&quot;&gt;&lt;b style=&quot;&quot;&gt;Docker &amp;amp;docker-compose&lt;/b&gt;&lt;/font&gt;" style="text;html=1;align=center;verticalAlign=middle;whiteSpace=wrap;rounded=0;" parent="2Z2Zc4ZfPcimmZf8wGZL-18" vertex="1">
          <mxGeometry y="7" width="226.31578947368422" height="30" as="geometry" />
        </mxCell>
        <mxCell id="2Z2Zc4ZfPcimmZf8wGZL-14" value="" style="shape=image;verticalLabelPosition=bottom;labelBackgroundColor=default;verticalAlign=top;aspect=fixed;imageAspect=0;image=https://miro.medium.com/v2/resize:fit:700/1*LVaCQTIeQlNEVjxw-VZpDQ.png;" parent="2Z2Zc4ZfPcimmZf8wGZL-18" vertex="1">
          <mxGeometry x="782.9440000000001" y="4" width="77.05600000000001" height="68.80000000000001" as="geometry" />
        </mxCell>
        <mxCell id="2Z2Zc4ZfPcimmZf8wGZL-15" value="" style="shape=image;verticalLabelPosition=bottom;labelBackgroundColor=default;verticalAlign=top;aspect=fixed;imageAspect=0;image=https://miro.medium.com/v2/resize:fit:700/1*LVaCQTIeQlNEVjxw-VZpDQ.png;" parent="2Z2Zc4ZfPcimmZf8wGZL-18" vertex="1">
          <mxGeometry x="289.9428571428572" width="77.05600000000001" height="68.80000000000001" as="geometry" />
        </mxCell>
        <mxCell id="2Z2Zc4ZfPcimmZf8wGZL-16" value="" style="shape=image;verticalLabelPosition=bottom;labelBackgroundColor=default;verticalAlign=top;aspect=fixed;imageAspect=0;image=https://miro.medium.com/v2/resize:fit:700/1*LVaCQTIeQlNEVjxw-VZpDQ.png;" parent="2Z2Zc4ZfPcimmZf8wGZL-18" vertex="1">
          <mxGeometry x="448.1828571428572" y="1" width="77.05600000000001" height="68.80000000000001" as="geometry" />
        </mxCell>
        <mxCell id="2Z2Zc4ZfPcimmZf8wGZL-17" value="" style="shape=image;verticalLabelPosition=bottom;labelBackgroundColor=default;verticalAlign=top;aspect=fixed;imageAspect=0;image=https://miro.medium.com/v2/resize:fit:700/1*LVaCQTIeQlNEVjxw-VZpDQ.png;" parent="2Z2Zc4ZfPcimmZf8wGZL-18" vertex="1">
          <mxGeometry x="607.4057142857143" y="4" width="77.05600000000001" height="68.80000000000001" as="geometry" />
        </mxCell>
        <mxCell id="2Z2Zc4ZfPcimmZf8wGZL-20" value="" style="group;opacity=0;" parent="1" vertex="1" connectable="0">
          <mxGeometry x="30" y="120" width="874" height="391" as="geometry" />
        </mxCell>
        <mxCell id="2Z2Zc4ZfPcimmZf8wGZL-9" value="" style="group" parent="2Z2Zc4ZfPcimmZf8wGZL-20" vertex="1" connectable="0">
          <mxGeometry x="570" width="301.1" height="390" as="geometry" />
        </mxCell>
        <mxCell id="2Z2Zc4ZfPcimmZf8wGZL-3" value="" style="rounded=0;whiteSpace=wrap;html=1;fillColor=#bac8d3;strokeColor=none;" parent="2Z2Zc4ZfPcimmZf8wGZL-9" vertex="1">
          <mxGeometry width="294" height="390" as="geometry" />
        </mxCell>
        <mxCell id="2Z2Zc4ZfPcimmZf8wGZL-8" value="&lt;font style=&quot;font-size: 24px;&quot; face=&quot;Times New Roman&quot;&gt;&lt;b&gt;Monitoring&lt;/b&gt;&lt;/font&gt;" style="text;html=1;align=center;verticalAlign=middle;whiteSpace=wrap;rounded=0;" parent="2Z2Zc4ZfPcimmZf8wGZL-9" vertex="1">
          <mxGeometry x="23.01" width="76.99" height="30" as="geometry" />
        </mxCell>
        <mxCell id="2Z2Zc4ZfPcimmZf8wGZL-33" style="edgeStyle=orthogonalEdgeStyle;rounded=0;orthogonalLoop=1;jettySize=auto;html=1;entryX=0;entryY=0.5;entryDx=0;entryDy=0;" parent="2Z2Zc4ZfPcimmZf8wGZL-9" source="2Z2Zc4ZfPcimmZf8wGZL-30" target="2Z2Zc4ZfPcimmZf8wGZL-32" edge="1">
          <mxGeometry relative="1" as="geometry" />
        </mxCell>
        <mxCell id="2Z2Zc4ZfPcimmZf8wGZL-30" value="&lt;b style=&quot;&quot;&gt;&lt;font style=&quot;font-size: 14px;&quot; face=&quot;Times New Roman&quot;&gt;Clearml-Server&lt;/font&gt;&lt;/b&gt;" style="rounded=0;whiteSpace=wrap;html=1;strokeColor=none;" parent="2Z2Zc4ZfPcimmZf8wGZL-9" vertex="1">
          <mxGeometry x="10" y="270" width="100" height="60" as="geometry" />
        </mxCell>
        <mxCell id="2Z2Zc4ZfPcimmZf8wGZL-32" value="&lt;font style=&quot;font-size: 14px;&quot; face=&quot;Times New Roman&quot;&gt;&lt;b style=&quot;&quot;&gt;Evidently&lt;/b&gt;&lt;/font&gt;" style="rounded=0;whiteSpace=wrap;html=1;strokeColor=none;" parent="2Z2Zc4ZfPcimmZf8wGZL-9" vertex="1">
          <mxGeometry x="167" y="270" width="100" height="60" as="geometry" />
        </mxCell>
        <mxCell id="2Z2Zc4ZfPcimmZf8wGZL-38" value="" style="shape=image;verticalLabelPosition=bottom;labelBackgroundColor=default;verticalAlign=top;aspect=fixed;imageAspect=0;image=data:image/png,iVBORw0KGgoAAAANSUhEUgAAAP0AAABhCAYAAAAdkafEAAAAAXNSR0IArs4c6QAAAARnQU1BAACxjwv8YQUAAAAJcEhZcwAADsMAAA7DAcdvqGQAABi9SURBVHhe7Z0HfJRF+sd/2fROEhLSIYRepHcE6QgCKhZQKQpnQdQDFfspHnfqnXLYEDgQBQGliCJIOen+6VKlBwgQIIWQnmySLf+ZNxPIZmd23y0JITtfPu9n32c2CZvs/uZ5ZuaZZ9yMBEgkEpdBwx4lEomLIEUvkbgYUvQSiYshRS+RuBhS9BKJiyFFL5G4GFL0EomLIUUvkbgYNT45p9RgQKG+FEW6UuWxUHnUwd/dE/H+wQj09GJfKZFI1FBjRH+9uBCnczPLrhz2SC7abolQL1/UDwhWOoD65OpaN4ZcsbIzkEgE3FbR77megg1Xz2Pj1XNIyrvBWp1Dj/A4dA+PRaewaHQkl+wEJJIyql30m1MvYPM1cpHH8/nZrLVqifDxx6P1W+DRBi3RNCiMtUokrkm1iX7TtfNYdO4oNl47x1qqHw+Nhoi/JRF/C3QjQwCJxBWpctHXBLHzGBLTCE8ltkXvevVZi0TiGlSZ6Pddv4LPTu2vcWKvzIRG7fBC006I8QtkLRJJ7aZKRL8g6RCmH92BIr2OtainR3gHhHiFIsAjmITjATAafaHVeyO3xF15PtBTDx/3Uri7aaFHAXkuD7ml2UjKO4/kgmvK19gKFTwVPu0AJJLajlNFf6O4CNOP7cDSC3+yFuvU8QpEp9COCPNOJN8fjELb+4mbRPrqEeB5AxnaZBy48SfStLatCNBQ/2+te+GukAjWIpHUPpwm+u1pFxXvfiw7nbWICfcOQc+IHvDRxOJakT90BvaEE9G4AXH+WhiMGdiathmp2kz2jGWifQMwq+Mg9IlswFokktqFU0S/JuUMJuz+hVmWGR4zEB5uLZCuLQvXq4MQbwP8PC5h47WNyC7JZ61iPDXu+LzTYIyMb8ZaJJLag8OiVyv4DqEt0TyoJ5LzA1hL9RPuo4e75jx+SdmAYkMJaxXzQbu+mCjH+ZJahkOiVyP4AE8/DIseRsL42CoJ4+0h0lcHvTEJq1PWsRYxr7bohmktuzNLIrnzsVv0c88exNuHtzKLT6+I9qjnfTcRvAdrsY0QLzrRV3Z5k9EAHRCUkI5DT16xljzmEmedTa58Oyf/GgRkYeXlxdDqS1mLKVLwktqIXaJfeO4wph3czCw+o+sPxpXCljDY8NOpsBsHAhoi6GMZwLlc4FohkFHEvqASId7Ea/uVXZ0jASP5/jPke2whxq8YJ3LX41i2aT6BFLyktmKz6HdnpGD4th+YxWdyk9E4fCOaWdZpRIb5ecXAgTTgD+uT/xbpXA9oF0E6EE/gkuUNejcJ8DTCiH3YeO13xZaCl9RmbBJ9VokWndcvICG1lrWY83Sj53Ei24dZlmkWRDxzJvBjFSXtPdCIeHLyf6SoFH+UXxIJ+dOl4CW1GptE/+D2FdiZfolZ5gyKfBkFKsbXTagQc4Clp1lDFTOqKRBKhgBXBcOEch5NIF8rl+cltRzVon/3yHbMPnOAWeYMj3kRN4pJTG0BOiHnTx6/PFpmVzcTWwPX+XN2UvASl0FVjTyabWdJ8EOiH7Mq+IZk3F5EPO3tEjxl/jHSy5FIJKjSSx0QLQUvcR1UefqHdqxUhM+jV0RfGAyWE1haBgMf7YdN6/T3ECEOigcaBN666vqWLdNVvH5PBdaRl/a7DXtt6Ex/F/LzL5OxfjPy2j5oz56QSFwAq6KnO+ZeP7SFWaY0CWqMeN9h0OrdWIs59UhIP1eldx/VCOgbA9xPQu1wInBbSMoB1l8ir/ckcERFmn2IDzC+JTCzM2uQSFwEi6K/UpiHoVuXKY88RtWfhJQCsTojibDmHGaGBR5vDDxPxtvd6rEGByjWkyHEn2XXeQtr9g8nAssHMkMicSEsip56eOrpeTwYdx/Si5oyy5y63mQMfYQZAoaRcfTkVsDAONbgRK5ry4T/HhlWVEYKXuLKCCfyLhbkYOmFY8wyxc/DB24gsbiAYE/gtwvMEDDlLmDNvVUjeEpdEmW827FM3LEV9vhIwUtcHaHof7p8Wlj5Zmj0YKQV8bfGepDhfQYZDSRbCK3f60TG0j2YUcVQkf80GOgfKwUvkVAsip5HmHcwSvUJzDInlgzxf01mBgcqeOqBq5MO4WVil4KXSASiX3flLP4UVMDpHzkA14v5fUWcP7DiDDM4dKlX/YIvh27OkUgkAtGLvHyoVyAKSuOZZU6hFrgiKEwTSzqE34YxQyKR3DbMRJ+hLRSKvlNYG2SX8Nfk6ZbYBceZweGr3nQ3GzMkEsltw0z0x3My2J05kb7iXNXTFhJiprQB7pNnSkgkNQJz0WeLRa/V8c+Bo6msG/hZuspy2dS7mCGRSG47Zsk5z+xdhx8vnWLWLRoHxqGe9yPMMqVdHeDdPcyoxMzuZZ7eXvR6A3bsTcLq9Ufwx9FLuJaeixtZBQgO8kXd0ABE1wvG/fe2wajh7eHvZ/ts3YLvdyON/MzK9O/VDJ3bOi88WbPpKP48Zd9hHBUZ3KcF2rd2LLnh+OlrePn9H5l1Czc3N3w/+0nlb+so//nvFhQVCbY0VoSMFuuG+COKvI/NG0WiUUI4e8J+nn1tGS5czsTGpZNZizpOnk1VPmc8hvZvhTYtYpglJv16HuYv3cUsU+7ukkgucX5LOQWFxfh0/jZmmfLMmJ4II38vRzATfcdf5yuJOZUZGTcEaUXNmWVKhAcwj3O+RTzx8hfHMMNGSnV6fLtiLz6ZsxmXr2axVjG+Pp54aUIfvPHCQLi781cXeHQf/gmOnrzCrFt8+OYITH6yN7McZ8LLS/DDmj+YZT+zpj+EiY85VuRj8lvL8c1yfi/trN87ruPbyMpRWb2kArQTf3hYe7z41D2oFx7IWm3DXtH/+OthjH1pEbNMaZwQgf3rp8HDymdr4itL8P3P/Pf5zRcG4c0XBzFLTFpGHhK7v8ssUw5ufB1NGjp2GIvJb0An8XiCp/i6870L3SO/SRDa94xiNzaSkZmPe0bOwl//tlKV4ClF2lJ8+OUmDBj1uRINSPjk5Wux7CfxNum53/0OC5nZqjHY+TOupuUQL7cVrfv9A4tX7WOtt5+zF9Lx2QK+9y1nz8FkoeBrEiaitzSJV6znl8CqTyKNZP5+HLtEf/7ideJ9P8aRE+beVw37Dl/EsHFfKR9uiTnfLN+L4hJxeaMLlzLx285qKmlkgcKiEjz3+vf4eWP1FWCgwxtLfPD5RlxJzWaWKTQypa/3TsBE9NeLxeGY1sAPa2jarYiekexGJfQPOmTMbIc99amkNEx603LxTleEevB5S8qKf1piHvH2NYUp761Cbl7N6MBpNPn8m8uZZcqs/25VooE7AbPwXkShji/6UoHT8CBf3po/2S/k6WnLkHKN35NSNBo3dO/YUJlgC/AXT9q1ahaN6S8PZVbNJjaqDnp2TlR90Qkve6EenHpya2zYdtLi+6AGjcBrtmwaZfL70PfSz5eMEQXQibFVZKxdU/ht5yn88j/TjWj0b/XhF5uYVfNR5ekDPHyUfeo8RIUwg8XvI5ftu88ql4iRQ9vi2Ja3sGnZZGxZ8RJSD3+A9d9NQq+uprOhf3m8B7av+isa1q/LWmo2D9/XHhuWPK/6GtqvJftO25m7WJ0HpxHBnEU7mWUftKg4jxnThpn8PvS9vHbon/jqw1Hw9OBv4qKrNtWBlej+Jq+8v1rx+uW8+M4Ki0OmmoYqTx/mXYfdmZNTzG4qYavo5y35P3ZnzsvP9MO3s8aifkwoaymDLn/8ungS3plyr+L5l345Hv95byS8vew7Uac2k5xyg3jwE8y6hehvtXD5HmiL7f8gu9G1OJXQ1ZYxIztj6jN9WYspB49dZnc1AzoMnfHpBuWeev1N208q93cKqjx9iHcQuzMnUzAisEX0JaV64eRR1/YNMP0Vy6H6a5MG4OT2dzB8oMwCEjFf0Kk+NaobEhuYr43n5BZh5Tp+AZWqolVT/gEpySnqjhl3FGsTeRX5YuF2JQJ59e+rWYsK1P/4KkWzPetTlF+dInbiXx3P4eNOJ/BJp8OY2XkvZnXZiZENxGfW0eKUPGwRPV0npwkJPMY90pXdWSYk2I/d3VmsWHsQgx//UtW1+4CVyiQCaOhJk5B4PDumJyaNvZtZpjgS4ovCe0vs/oP/+4WH2bdebyu2iJ4mjdH3xKa5D8dXQp2CZkfWZyi/WoacRIjPOgR7/4Yg7x0I9NoLf89DaBgoDl/8BeKmB0uqhU7WiOh/d+0+I55+aH7fd07VdT3L+tn6PGhSEG8Jk06KUi8/+v6O3DD/8PEUZQm0qjEYjEruAM0R4BEVIY40nQtflTQTr/LQklJxXF9OaB1/5e/KpaZ4evaoYDTyFawzprE7c/wEO+eyBWN9HlnZ4lWDuqGOpRxK6BIcP7SfMLqb8hgU6IOH7uOXMbd3+U40pn/7X7+YRC99H/4UUW3fwF9eXap4Tx4jBt3eYZuXpwfm/Xs0sywza/pIInxB1FlTPD17VNAJ3qgSww0EefIndehJszxs8fQ0hVZEfoENvYfEDOqpqceuDPVII4feEjod2/NYufYQbmQXMEs9ovCe5v1XjF7o6ysoEn9Y6PKro2nH6hG74h6dEpWVIUvc26cFHhzSllk1FxPRlxhFp1EYEeXHTzzwFIneBq3SD6AI+iGR2I9omW7MQ51N8si7tGvAndDTEe+7YBl/PsASTsjkVV7P2m+fFS7lOR/+iy5PS54x7T5lbwAPGi19+c9HmVWzMRG91iDucSN8+SE+TcIRQU+eUQNN2BCxeoOVOtp3ONMm9Uf+2ZmqrmEDWrPvUgf10KsEM/A0vz2g8VST61wyPw17zuKdyri7uqBj+A/eGIFda15WdlLWFOguzjkf8cN8+noj6lbPhKOjmEi2yCAO40K9U9mdKX4WZunVij48LACtSRjHY+nqA1azyOiWyJ73z8TWXRYK9Lkg85fuVjy1o9BdX2t/42yjrCJaN4/BC0/1hr+FTL2qwfpMW98eTfDYA6aFHmnoP+7hLsyq+ZiIPk8nnkUP8+G/6ZdIPxEv6ODUip4yVvBHo7POQ8fORtIFvheiO5v6j/pcGbcOGzcH02b85FBSSW2Beua53zmWVVcRNTn7alj65ZM3Ixe6asCDJrvQzr6m8vE7D9706nQ+Su0kX03B7f1zDW/GbbSfa+vnA53RfGnI3705Zh8vy0KqTAzpkEWn0f58LzBcxYmwdPmjZZ8ZwuU7Ov4c/0hXZaKkpFSHM+fTlYQemgtdOfSke5+/nvkE2rWKZS1ieoz4hLujjy4Vqi2iQWe+re1xFu2np8s793RrzCzrdGwTj4G9+XUNKkKLdjz2/DfMcg7HNr+FhHh1GypiOrylJPhUhop++MCyYQrdSNOq7z+4E4WBAT7K3nF7luvs3U9Ps+tGT1rIrFt0vCse21b9lVll0N1/j0/+Bh+9dT+eH9+LtZYx6rmvuZGRM/bTP/1ET6XoiBpE/5eJ6CndAlsjX8cfBx7L2IODmebj73YhwLuCuR56+uzWEcywgqUiBrbSNLEe9v86TdmkYwlREQ1bWDb7SavjbWcV0aCVUz7524PMEjN07FcW9zLYg9r/m6JG9BS6OjB+ymJmmdKbdIbrFj3HLPU4W/Sd2tTH1pUvMesWM+dtwZS/9DFL6qlK0dsCjaZ4mE3DFRjEeettwvin1+aQaLqJYPPXtqvAbJXDQerF1fxRrEEnf1b+d6JVwddW6ByISPAr5k28GV6Lrspj1nIWr9yn7HN3JjRKouNkHvR3EFX4qU5ERUWmPt3Xpiy+moKZ6JOLxcfTBHrxRX+eRORDBUlIlJkk9M8w7/S50N7w3alDmGU7dPmPeoeEOBv39dYiPl+4nd2ZQstPDVIxNJgwmr8uTgW/5EfOiaAOQmfERfUNX5vxU7VVQroTBWwPZqLP1WXBz52v4Hz9LrSoI+jp3YFEwfDrXA7wug0d9qvP9ceSL8bbXCONhmHbSBhmaQmwtkOF+Z2gzNTEx3qoin7omn3zxvwKKJ99bblklD3Qte9/vM4/CYUm7tC6cxLnYSZ6isGNPymlNxaSEJ9f6fNCPjDcQqHPr08B022YkKWplye2vaNMlFiaJKMFGGg4uuabZ7FlxYt3zD76qoIKnheCU7E/9Sg/647HM0/0ZHem0KHDjj1JzHIeE0l0QTttHjTMF1WYldiO2UQeJcGnGQLc+APxMM97sPjst8jgVDCiO+uOpQIHLVQNmtObfKBaMMMGTpxJRWalDSf1woMUkVurUCpxLbbvKZvP6N1V/aqIK8EVPaUdGWPpjPxkHaPuByxK4m95jfclIaCFbdiPkmjg+wHMkEgk1Y7GS8Nf8/NwF5dlCvR5G7F+/PpZl4qAR/iTsRjXVApeIrndaBr48Md5xwvOwsON3yHk685iYOxSZpnj6w20rTQMpyH9N/xqSBKJpBrRNPHnK7HQkAc3jXjwrfH4NxoF8Ys65JSS8VTcrc04U+4qG8tLJJLbj3Ks1aKrj+Gidi9ruoWG/Gvr749SA/+UGU+3fph/cgG54y8D0fF9IHlqxp2zF0EiqfUovrhz8DjFqIyB/NMhgVnmlBo3Y2zjD5lljlFzGfAW19e7nVwtysOE3b8wSyJxHRTRN/MfpFw8jhUchadGnN3m5j4HDzQwP/Ujzv8yll1cjrlnD2Lsrp+RUlhzzpc7kHmVCH4t1qSckcKXuBw3F7hF3p6u52mNlnerBfu8jt6Rt1LuygVfzvorSRjzfz9j73XHNrY4Ayp02glR4ZfbUvgSV8LkqOq1GW/iUB7/DLiOAQko1ot3bXm4BWBP6lrklniYCL4iwZ7emN6mNx5PsK0CjLP47NQ+/P0Yf4/58NgmWNCNnwoqkdQmTESfXnIaC648CJ3RPN2OhgTt/MNQYhBXxvVwi8LfDw/B+TzL+337RSZgUpMO6FVP3X51R1l+8QS+PncYf2RarrcnhS9xBUxET9l841/YlT2XWaYEewQhwUur5OCLoB5/Q8o4/HDBejHD8Ylt8FyTjmgYID42yxHWXjmLr5MOY2e6+rPQpPAltR0z0efpUrH42hPILL3AWkyJ945FsIbWwTL5NhPc4IG0grF465D1ooZh3r4YGtMYXevGol9UA4R6+bJn7ONoVroi8h3k2pLK/x2sIYUvqc2YiZ5C1+zp2r2I5n4J8DBar8qiLe2Hl/a1gMGofp9yufh7hMch3NsP4T7+8Pfg18WnZ++lawtwIT8b29IuKlcyuXcGUviS2gpX9JQ/83/B6nTTumAV6RzYBEU681NQK2M0tsYHh/vjQoHgrGsVUNFT8dNOoNSgRxoROhW7nv/SnYYUvqQ2IhQ9ZU/OAvwv85/MMoVO7HUJbIZ8nfVaWJ5uobhSMAyfn4hGKhHrnYQUvqS2YVH0lDUZr+FI3kpmmdM1sBMKdOpOQPHWxOJi7gjMPhWEa3eA+Kc274o3Wlk+ykgiudOwKnrKF5f7IqtUXMS+Q2B3lOp2wQh19eb93JvgbPYILDrni/NOGoM7E293D/ynwwA8XN+Oah8SSQ1HlehLDAX4KNnyyaFN/drDH6dQalSfbuvnHoNSfUccz0rAmsu+OJ17+71/qzoR+IQIvn0ov0acRHKno0r0lJTiQ1h45SFm8Yn0qo9YryIU68tSXG3FR9MFyXlNsP96INK17kgtcsfVQjfS6dg/CWgLD8Q1w8cd+iPIk1+ZVSKpDagWPaVAn4k5KYNRqL/BWszxdPNG+4AORPgHLCbx2IKHWxA0bsGAMRiT93RDXqlja/mVCfX2xYTEtpjWsrqORJZIbh82ib4cmryTXGR58q6uZzwa+0SSDmI/DMZS1uo40/Y/haxi55xk6qnRYEKjdphIrvr+gtM6JJJahl2ip2zMfB/7cr5llphY76aI8/JFvo4e6WTXf2WCs0RPN/1MaNQWrckYXiJxJewWPYXuyKPr+MUGftmsiiT6tkG4hxYFuuOsxT4cFT1dd6fevXu49cMtJZLaiEOip1wpPqwI/7JW3eGMccTzR3mFwB0ZxPvT8+Rt++/tEX270Ej0jIhDz/B49I1UcYSuRFKLcVj0lFJjIXZmzSbh/kJyzzkFQ0CUVyMS/kfCxy0fubojqsb+akXfp14DDIpuiB4R8WgW5Lrn2kkklXGK6MtJKzmFvUT4ljL4RNT1TEBT/57wdjOSKKCE+P986AyZZOiQiiJ9CvTGYuXrKoo+0NML0b6BiPYLZJtz/NAmpB76RzZUnpNIJOY4VfTlnCvcgb25C5VHZ+CjCUKwewj83f0Q7TEVbet0R4iXD3tWIpHYQpWIvhzq8annpxGAsxgTtQQNfPlHakkkEuvcLIxZFbQJfAhPxqxC39BXSPieyFodpcr6KInEJahST1+Zq8VHcUm7D8lFe3C20L56+GOiviOeXv2RyxKJxJRqFX1FtIY8pQNIKtxOrq3I0anL15eil0gc47aJvjK0Em9m6Xnk6lKVOn25evZIbX0a9Gw5T4peInEE4P8BQYzJa7bulmMAAAAASUVORK5CYII=;" parent="2Z2Zc4ZfPcimmZf8wGZL-9" vertex="1">
          <mxGeometry x="15" y="335" width="90" height="34.5" as="geometry" />
        </mxCell>
        <mxCell id="2Z2Zc4ZfPcimmZf8wGZL-48" value="" style="shape=image;verticalLabelPosition=bottom;labelBackgroundColor=default;verticalAlign=top;aspect=fixed;imageAspect=0;image=data:image/png,iVBORw0KGgoAAAANSUhEUgAAAt4AAADbCAMAAABtGGb3AAAAZlBMVEX///8AAADtBADtBABNTU1NTU1NTU1NTU1NTU1NTU1NTU1NTU1NTU3tBADtBADtBABNTU1NTU1NTU1NTU3tBABNTU1NTU3tBADtBADtBADtBADtBADtBADtBADtBADtBADtBABNTU3c0j6JAAAAIHRSTlMAAEC/v98ggJ9AEDBwn4CPz49Q7yCvYO8Q32DPUHCvMGImG7UAAAsRSURBVHja7Z1rQ+I6EEC3ykvUVdZdfN1V+f9/8oounUkyeUChrfGcTwolLfQQMjNJ++MHAAAAAAAAAAAAAAAAAAAAAAAAAAAAAAAAAAAAAAAAAAAAAAAAAAAAAAAAAAAAAAAAAAAAAAAAAAAAAAAAAAAAAAAAAAAAAAAAAAAAAADA96N5p3Q7xVuMod8PgAa9oWLQGyqmcHSC3vAVQW+omKbMb/SGrwh6Q8U0ZX6jN3xFivIm6A1Vg95QM+gNNYPeUDHoDTWD3lAx6A01g95QMegNFYPeUDHoDRWD3lAx6A31QmIQKga9oV4oykPFoDfUCxNioVq81QzoDfXQNOgNX5NW2bOYsufoDV8V9IaK6VvvyaaQH+1f06aAmXrlXP6WDVI7nkwW84tlovX5ppC5/4J5k0ReeZE+ROuom+bCeb3HcirPXmY+vitp1bTD5/p8x89EqzftVjfoHdPbOHMhi3br2/31/vfCVVSCw/Xe/BpM7+aXem/pT292J1+EEr21LL/jzZ6LROgd1ftP3u6lnJ/1oXq/M53Pjq33XbLjPKneusGr5Mf3p91u1Zh2RL19e7tB7256b2ZNDvlxvWs66P3OwtpZB703t6lRz2n1ViO2u9RRXOjNCvT+rc/5/QN6H6C39CjvXUoOGWbOO+r93kJoQhe9txoOpLc+jEXRp7duSvS+dk56fPSN3nG91alLdj1b1rLtrLPem2kwnuikd+rbeWK9lbiJCGaumyzQ+8E96Y/ofYDeza38kx45ajHeO6nOeof766b3tk8cSG+1QTS61HFlkd4/vbP+hN4H6K265Exu8HKjT9AR9PZ/yjvqHc/LnVpvFTRG+wgdV5bo/XDvnfXn0eoth9K73neTJO+HJr1KJr220Kc8q7e/Y/UDHvNbtZg+6nX4go9dxkZXjp6rsD15/jZ4blWit+qaIwfxy9sgq/dTcNrP0DvQOxVxbT9lV6rUpkvZbu25ZekdtrW8mAc9p+O32WIKv7uPjQxyemaez+udjS6XTlzZFOj9WKLIB0PrrQ5lhHorbZO5QTmDU/+Myka5HS+vvF58bu5h0xQRjGYiiYvT652LLt24ssnr/V97tmWQEintoHeSRVaPD+T398p3SzYq2PHaFVzJ0F3vyMi3B73T0aVKjf/rQXJ6t87eyyjl2t41eidRIWMiN7j2NzpU72a50kJOZZdH0Nv2rwe909GlfCy7X6uM3uLJjRqm2N03eqcpqipLAnGRkLFsxypbo/PVx9DbrM73oXcqupS4sv0yZ/S+Vkr/bf+2SztD6z3i0NL79OO5QXWKZwkZC3fs+N0O+I+ht1md70PvRHSp4so2N5XWW+rxLzpFaFfm0TuDGg3HcoOLoMUuejt+tzIcRW9ralgveusCmbtZEFc2Ob1v2nN95vxnlnbQO4NMlYptPwtPXSe9m5XRfR9Hb2Pydz96x6JLFdtIZiqpt/TXH6V46cvNyjx6Z1ATXSOlP7GxHb5001uvApinWkwRKXMG1fl+9NYpKB3DhHFlk9Fb6vGf3fVLsvtG7xyqL7WrEnehO930tiYDdNB7okYGYXjZk95LM7qUN6qSRGm921zJv8H2WUoT9M6ixh4bKze4Ns5bR72bcBFXF731D5Dj0Zae9NaDvLaXUAem45qU3pLp3i1ikNygUZkfWm91KCPVW2dtrXWLU+PZrnorF64SLabQMZsa4QY770tvK7pctY84MW9K7+f2TO8S3cnSDnpnUWdwmnxWgqOueqtfjD+JFlM4KQkn2egOsXrTO4wu5Vt358x4SOgtjrzsHnpIVeYH1ts+9HHprfudcN70xNKmq95ql7eJFlO4GTfpJ/030ZveYXRpxpVNUm/RVUYikhsMu+/vrHdiQuxK70z1fYGYM/P0dtZ75TdQNiE2qrc7k1uHl/3p7UeXMgLzfhTjeptpQHkwLO0Mq7dzKGNazuAKmMgNqss/mG4dqLcafM/8FhPE9dbJRmcs0J/eXnSpbPdeGddb6vE6Cyi5waAyP6Te3qGMV+9ETdnICh5D78Carno3lzp9oqrzPertRpfSMfi11KgjssTS6adFnPvx6B28+fHqrad9u3k1f6L3ePXWs2f0t7RPvXV0qS794M+kj1oiJR330iaSG/RLO6fW+2fMw3CG13j11lGRGwVN7cfHqLfbRFs67FNvHVLIj0mQbY3pHc2RSG7Qr8yjd4neKnHs9NIq6HR69VHqrb+kUkfpVW+nwGR9oEm9xeIX7xXivVfaQe8SvXXiYW0+HF34OyK9l1Z1vle93QR87GUxveP1yZ8xV9C7SG/7WpDu5R9Gr7deVtCGl/3qHV5qwpijG9FbllgGkwPVNdle0XvXgRXmvbeYy2HDid7H0juVGDwo7x3IuHu8Z72d+QEbe4lfRG9RNZwbKBlDt7TznfUurVp6vrXjEFXS8VY6nLSsU3bApt7GUree9Xbrp/YKP1tvlf4LF+Yod5yoE73L0EFRuMTAD4+OWJSfJlpMYevthpfbMKJvvd3o0rz6iq23dNDWBY+f7WfRuxDV6+wyWf7lHyy3NvLggFOqFH542bfe7g+I+RpTbzW8thbFS1bF6dvRuxB9pWr/PAUDyJFNiNW41fll/3rr6NK+doypt0ycuj+3EAX+qqbQuxQ17fszNyj94CrulpJxsOUM7hNudX4AvX/lXmLpHVw1M47Oq6B3Kf58ZXOid+CWknGwxWjx1t/7z/71zr7E0jvqkYFKrKB3MV5uUHrzMHU7qqXEwd5WG5NR6/34Vo66HDJ6F6N6vUVsondKxqEuBBHuTY2zvojeT2/7IEVN9C7HyQ2Kg8YKtVFdxse43LJOn3wJvZ/f9kGEQe9ylGLzyETvlIxDXYTN2NulMbVpzHpH1YjQpg7RuxydG9T3+Uu5pWQc6hKa1t6cyd/j1/v8bT/ayjx678HCkMK8OMSoLoBs7u0qfCPj1VuVdJ7O4qi7Ae5KO+i9B5cbg8xNVuXBoS5fb+8t/KqOV2/x9jHV8O/QLvTeB2MyrVl4G9XNRyJ7C8LL0eqt7mL5lGxZ1hTvKvPovQ/GbHzzspqjunVU5G0GK2dGq7c4lLi99hZl0L/vwXfWO3Pjv4lhbnCLPtudAW/8t7vzX1bvYKjVVe/bgqM6RG9Vj79p0kjx5xG9cxgffhCR2bf7HfC2rbshTV5v/7eoq94lR3WI3qqkE7n/WYva9Am999fb/0WP3JBkwJtu76G3F16OVW/pkl+aDKqjP0fv/fX2Ew5WVvAIek8vEy0eT2/3kEaqtyyxjN57WLjxNkbv/fSeOVvEbgbYUe/5MtXiEfV2Jn+PVG8xNJkV/ETlBq/Re3+93elIsVu5dtJ7kcmkH1Fvpzo/Tr3DbEgSyQ1+DNTRe0+9nfMZuxH34XpP57Nci8fUO7+2YGi9paSTyQoGEl2j9/5669xgVJwD9b5dXRa0eFS91Xaj1FuNNnJZwU9kbuH264De++q9zm1wiN6TyWJ+Eb+r9wn1ltHWKPVWsWIuK/jJk6PY99MbvhIyYeq1wO0PjfQrXuWfkxweekPFoDdUDHpDxaA3VAx6Q8WgN1QMekPFoDdUDHpDxaA3VAx6Q8WgN1QMekPFoDdUDHpDxaA3VAx6Q8WgN1QMekPFoDdUDHpDxaA3VAx6Q8WgN1QMekPFoDdUzNN5hPBqtq+xTY1rJ8Y2Pc2V5AAAAAAAAAAAAAAAAAAAAAAAAAAAAAAAAAAAAAAAAAAAAAAAAAAAAAAAAAAAAAAAAAAAAAAAAAAAAAAAAAAAAAAAAAAAAAAAAHrhf/qQKVZ3XvWdAAAAAElFTkSuQmCC;" parent="2Z2Zc4ZfPcimmZf8wGZL-9" vertex="1">
          <mxGeometry x="142" y="324.75" width="150" height="44.75" as="geometry" />
        </mxCell>
        <mxCell id="2Z2Zc4ZfPcimmZf8wGZL-10" value="" style="group" parent="2Z2Zc4ZfPcimmZf8wGZL-20" vertex="1" connectable="0">
          <mxGeometry x="317" width="253" height="390" as="geometry" />
        </mxCell>
        <mxCell id="2Z2Zc4ZfPcimmZf8wGZL-5" value="" style="rounded=0;whiteSpace=wrap;html=1;fillColor=#f9f7ed;strokeColor=none;" parent="2Z2Zc4ZfPcimmZf8wGZL-10" vertex="1">
          <mxGeometry x="-12" width="253" height="390" as="geometry" />
        </mxCell>
        <mxCell id="2Z2Zc4ZfPcimmZf8wGZL-7" value="&lt;font face=&quot;Times New Roman&quot;&gt;&lt;span style=&quot;font-size: 24px;&quot;&gt;&lt;b&gt;Serving&lt;/b&gt;&lt;/span&gt;&lt;/font&gt;" style="text;html=1;align=center;verticalAlign=middle;whiteSpace=wrap;rounded=0;" parent="2Z2Zc4ZfPcimmZf8wGZL-10" vertex="1">
          <mxGeometry x="8.433333333333334" width="50.6" height="30" as="geometry" />
        </mxCell>
        <mxCell id="2Z2Zc4ZfPcimmZf8wGZL-26" value="&lt;font face=&quot;Times New Roman&quot;&gt;&lt;span style=&quot;font-size: 14px;&quot;&gt;&lt;b&gt;FastAPI&lt;/b&gt;&lt;/span&gt;&lt;/font&gt;" style="rounded=0;whiteSpace=wrap;html=1;strokeColor=none;" parent="2Z2Zc4ZfPcimmZf8wGZL-10" vertex="1">
          <mxGeometry x="69.99666666666667" y="270" width="101.2" height="60" as="geometry" />
        </mxCell>
        <mxCell id="2Z2Zc4ZfPcimmZf8wGZL-42" value="" style="shape=image;verticalLabelPosition=bottom;labelBackgroundColor=default;verticalAlign=top;aspect=fixed;imageAspect=0;image=data:image/png,iVBORw0KGgoAAAANSUhEUgAABAAAAAFxCAYAAADtW9pAAAAACXBIWXMAAAjbAAAI2wHNrPlDAAAAGXRFWHRTb2Z0d2FyZQB3d3cuaW5rc2NhcGUub3Jnm+48GgAAIABJREFUeJzs3XmclXXd//HX5zoDM4ALCuK+565o7u1ZeVe26F1StmgoOjCDmhTLYMs0dylzRgwLmTOSGlaaSZp2q6n93DK91VxySU1Nc09AwQWYgXOuz++PGU0MheH6nrnOOdf7+XgQEsPn+2Y4MOf6fDdzd0RERERERESktkVpBxARERERERGR8lMDQERERERERCQD1AAQERERERERyQA1AEREREREREQyQA0AERERERERkQxQA0BEREREREQkA9QAEBEREREREckANQBEREREREREMkANABEREREREZEMUANAREREREREJAPUABARERERERHJADUARERERERERDJADQARERERERGRDFADQERERERERCQD1AAQERERERERyQA1AEREREREREQyQA0AERERERERkQxQA0BEREREREQkA9QAEBEREREREckANQBEREREREREMkANABEREREREZEMUANAREREREREJAPUABARERERERHJADUARERERERERDJADQARERERERGRDFADQERERERERCQD1AAQERERERERyQA1AEREREREREQyQA0AERERERERkQxQA0BEREREREQkA9QAEBEREREREckANQBEREREREREMkANABEREREREZEMUANAREREREREJAPUABARERERERHJADUARERERERERDJADQARERERERGRDFADQERERERERCQD1AAQERERERERyQA1AEREREREREQyQA0AERERERERkQxQA0BEREREREQkA9QAEBEREREREckANQBEREREREREMkANABEREREREZEMUANAREREREREJAPUABARERERERHJADUARERERERERDJADQARERERERGRDFADQERERERERCQD1AAQERERERERyQA1AEREREREREQyQA0AERERERERkQxQA0BEREREREQkA9QAEBEREREREckANQBEREREREREMkANABEREREREZEMUANAREREREREJAPUABARERERERHJADUARERERERERDJADQARERERERGRDFADQERERERERCQD1AAQERERERERyQA1AEREREREREQyQA0AERERERERkQxQA0BEREREREQkA9QAEBEREREREckANQBEREREREREMkANABEREREREZEMUANAREREREREJAPUABARERERERHJADUARERERERERDJADQARERERERGRDFADQERERERERCQD1AAQERERERERyQA1AEREREREREQyQA0AERERERERkQxQA0BEREREREQkA9QAEBEREREREckANQBEREREREREMkANABEREREREZEMUANAREREREREJAPUABARERERERHJADUARERERERERDJADQARERERERGRDFADQERERERERCQD1AAQERERERERyQA1AEREREREREQyQA0AERERERERkQxQA0BEREREREQkA9QAEBEREREREckANQBEREREREREMkANABEREREREZEMUANAREREREREJAPUABARERERERHJADUARERERERERDJADQARERERERGRDFADQERERERERCQD1AAQERERERERyQA1AEREREREREQyQA0AERERERERkQxQA0BEREREREQkA9QAEBEREREREckANQBEREREREREMkANABEREREREZEMUANAREREREREJAPUABARERERERHJADUARERERERERDJADQARERERERGRDFADQERERERERCQD1AAQERERERERyYC6tAOIhGRzztyW3Mod8WhbjG1w3xZjY9xH4ozAbOO+D60Hhvb99xLAMVbg/jLYS+AvY7xIbE8R8U/cnob4797Usjid35mIiIiIiEgy5u5pZxBZJ3bOGTvhfjDuBwB7AXsCG5Z3VH8GeBDjPtzuII5v94nTXyrvmCIiIiIiIsmpASBVw87t2IoVfBKLPwn2fmBU2pnAHXgU5yai3LW8bjf65MlL004lIiIiIiLydmoASEWzOfk9yNmRuB8B7JF2njXzHrBbwC8j13O5N7YuSjuRiIiIiIgIqAEgFcjmnrU5pe6xwFFgu6WdJ4Ei5jeC/ZKG7st9bGt32oFERERERCS71ACQimBgFPKfwjke49PU2gGVxss4F4LN9aapf087joiIiIiIZI8aAJIqmz27nrplY4DJwO5p5yk/d4huAD+bpmlXO+gvoIiIiIiIDAg1ACQVNrdtKKXBEyD6NrBJ2nlScjfwP9407Q9pBxERERERkdqnBoAMKGtrG8yohvHgU8A2SztPZfDbMX7gE1puSDuJiIiISAh2fsf6rIhHEOeGE5WGU7INiWw47sPf/B42BFuv9xf4YJxhvf/Nv/8bwG0F5m/csrQcrBt8OcZLOItwFhL5Ijy3CC+9QN3GT3lj48oB/i2LVAU1AGTA2JzTP04U/bjKD/YrI7ueqPRtHz/9obSTZI0V8t998w2IvDuP7/Pmll+nHUNE5O3s3NM3ZWXdpERFcsWfeOOpLwSKVLPs7I4tqIt3JWYbYDuM7cC2xtgEZyQwAhicYsQi8BTwOOb/wKPHsPivDI7u9uOmvpZirrKzrvb/xqODEhXxuNubW34QJpFUmto6aE0qks2ZsTNR9FOi3MfSzlLZ/OPE0Z1WaD+bpXU/9MmTl67510gQzomYb5p2jKpgdjGgBoCIVJ4VuVMwn5aoRqkuAqaGCVT9bP78HIue2gOKB2O2P84ewO7kGI4b2Nt+QeXMK9YBOwI74gY4uEGPx1bIPwzcifEXYrvJm6c+nG7UwGL7JObjE9UwWwL8IEgeqThqAEjZWFtbHaPqJxFF3wMa0s5TJQaDfYthxS9aZ/tEb265Lu1AIiKydmxeWwNLh+4O4BOn3JN2niyx2W0bUNfQlLySj7ezzjrdTzllSfJa1c268k04HcB6YJX0cJ9EBOwB7IFzLOZYIf8kcDVwFd2Db/JJk5anG1GkvNQAkLKwc/J7M6rh58CeaWepTrYtxpXW2X4hdXaKN057Je1EIiLSy9ra6ths8M7EtgfOXpjtDoyGhh2I4hxYFxDgYVTWWl19E7BhgEobUN/TDJweoFZ1c7YAsrA9bntgIjCRhhXLrJC/HPPzmNByo25rklqkBoAEZWAU8ieCnw5Wn3aeqmf2NUr+YZuTP9YnTvtT2nFERLKk92ta+/a47YHZnhh74b47oxp2I+7b3/z2JdAy4GxeWwM0fDNYQedkm9f2Yx/b2h2splSLocBXcfsqhfwT5nY+MT/3E6c+n3YwkVDUAJBg7Cenb8rg3C+AQ/SOKCTbmsivtUJ+Bgu6f+StrXHaiUREapV1nrY1VtcKjAZ2A1uv90ua5gIr1vL6Y4DNg9UzNqW74VigEKymVKMdMP8ROb5nXe3nEZfavfk7z6QdSiSpKO0AUhus0L4fg3O3AoeknaU2WQ74Lps2XGNdbaPSTiMiUrNs0JbAOOAAsrH8uarZ/Pk5sMnBCzuTe2uLUI9bM1b3mBXyZ9vsjq3SDiSShBoAkph15k8AuxnYJu0sNc/5KF5/qxVmjk47ioiISOoW/uNIYKcyVN6Bl54YU4a6Ur3qgYnU+aNWaJ+mBpFUKzUAZJ0ZmHV1fA9jDune9Zoxti2UbrJC/jNpJxEREUmV2ZSy1XZaVnPRncgQsHYWPXGXndOxf9phRPpLDQBZJzZr1hAK7b/B/XtpZ8mo9YD5vasvREREssfO6TgU2K+MQ+xNV/6/ylhfqts+xP5/1tXxPTWKpJqoASD9ZjNnDqNhxe/Ajkg7S8bVYcyxQv60tIOIiIgMuNhbyj6GM63sY0g1q8P9f+jsuNIK7RulHUZkbagBIP1iZ7UNZ1jxD8DH0s4ib5qiJoCIiGSJdbYfwMC8FznE5sw4aADGkWpmfhjYHdZ1+p5pRxFZEzUAZK1ZoX0j6uuvAzs47SzyH6ZYIX9G2iFEREQGhNnAzcxbpFUAsjZ2wnN/7mtOiVQsNQBkrdjMmcPALgPbJ+0s8o6+aV3tP0g7hIiISDlZoWMX4L8HbkCOsHNm7D5g40k12xCz63Q4oFSyurQDSOWzWbOGMKz0e+ADaWeRNXA71QrtS72pRasBRESkNrlPwgZ0Esvw6BSgcQDHrEWvgL0K/hrwau83e+XfP+3LwbpX/SW+DKwHPAe2AcRDIGoA3wAYBGwIbARs3ffjSjCc2K+xwsyPedPk+9MOI/J2agDIu7K2tohR9ReAfSjtLLLWfmRdHf/yCVN/mXaQjLkbfH7aIcovejjtBCKSXTZnxgii6OgBH9j5us2e8R0/afrCAR+72hXjUeX+vNn8+TkWProFNng7zLfDfXuM7YH9cHYHcuUcfzVGQPH3dt6sfX3cpJcHeGyRd6UGgLy7TYZ0gOu0/6pihsddNuf0533iqdennSYzjAd8Qks+7RgiIjUtisYDQ1MYeQh10XjgRymMXd3qRywp9xA+ZkwJeKbv2y1v/TnrbFuPqH5/PDoM/HBg53Ln6Rt5W1b0/NzgCAcfmDFF1kxnAMg7skL7BMxPTjuHrAsbRJT7tZ1zxk5pJxEREQnB5rcNBiamGKHZZs+uT3F8WQfe3Pq6T2i5yZumTvWmabtgpb1wP5vebQhlZp+nq/1b5R9HZO2pASCrZYWOg8Fmpp1DEhlOHP/OZrdtkHYQERGRxBY1fAnYIsUEm1O3/KgUx5cAfMKpD3pzy0l495Y4U4DF5R3QZtjcGbuWdQyRflADQP6DdZ6xGR5fDAxOO4sktjN19ecbWNpBREREEjol7QDgFZBBQvDm1te9edpM8B2BHwPFMg01iFLUUabaIv2mBoCswtraIiz+JWZpdtglKPs8ne1pLpkUERFJxObkPwzsl7DMcwGi7GOdHYcEqCMVwptaFnvTtG9jfiDGPWUa5nM2p+PjZaot0i9qAMiqRtVPAT6SdgwJzJhhhZmj044hIiKyTiImJaxQJOIzwOuJs5gnzSIVyCe03MuL3Qdh3lmWASI/UysypRKoASBvskL7fsD3084h5WD1ULrA5rU1pJ1ERESkP2zuGTsCn0tUxLnMx0+7D7ggQKTP6JDd2uStrUWf0DIR5xQgDlx+bwrtWgUgqdM1gAKAtbUNZlTDecCgtLOUw7BBg9h1+Iiq67q+sOw1nl+6NNTVMXvQXf9d4LuB6omIiJRfsXQyZsnucff4xwBE0U+I4yaSTYJFxPE3gRMTZZKK5c3TfmKdHSsxnxO2ctQI/L+wNUX6Rw0A6bXpkOm47552jHL55l77Rz844IPJ3jwMsIseeyg+6c9/LAUt6vYt62q/1Ce03Bu0roiISBnY3PyGmB2bsMqtPnH6HQA+fspjVshfC3w6YbSxVmj/nje1lPcEeUmNN0/ttEJ+RyDgNX5+uJ17+qZ+/Kkvhqsp0j/aAiDYnPweuE9JO0e51OdyTNjjvVXzWl/S080x119ZGnvDVaXXVqwIXb4Op2BtbWr+iYhI5SsxDlg/UQ3nx6v+2H+aqF6vYbidEKCOVLIF3dOAuwNWHMzK6JiA9UT6rWoeiqSMcvyEGr7y7yvv2S3abOiwqlj+f8NzT/k+888vXvz4w6H3nb2F7cumDXrTIiIiFc3mz8+RfJn9k2yy/RWr/D/NLdcCDyesC8bJNnduTW6dlF7e2lrE7WigO1xVOyxcLZH+UwMg4+ycjiNxPpx2jnI6aa/9K/513l0s8t07/1Q67Kr5xYB7/t+Z8wOb2zay7OOIiIisq4VP/jewfcIqs3zMmFW20zk4xuyEdQG2JF78xQB1pIJ589SHMQoBS77fZs4cFrCeSL9U/IORlI/NmjWEOJ6Rdo5y+tQ2O9heIzap6Nn/hxYv8g9e/qtix713xLGX/9m/z0YU6783UIOJiIj0m3FKwgqL8e6fr/Znou4LgJcT1ofYTk5cQypfHHUAywJVG8zQ4ocC1RLpN+0DzrKG7iaItk07RjmdMnr/ij34z93p/Nu98bTbbyqtKIU962+tGI12zhln+/gpjw384CL9Z3PbhlIcsi3OFlg8ksiG4z4coo3A1wPrXYprPhinDmwZHndj0XI87gZbTORPE/Ms5J7x5in/Svm3VDVsbn5D3Hai5JtjvjkWbY4zBPfhmBn4ULBueq/NegXiIm4vYv485s+DPceInud9TGvwg02kNllX+3vBPpCwylxvbn19dT/jja3LrJA/H5icbAh/nxXa9/OmlpD7xKXCePOUf1ln+/mYBbr5IfoEcE2YWiL9owZARtnMmcMYFgU81bTy7DVipB2yxTYVOfv/7NLX/Lgbry7d9NzTAzbl/58sRxxPB45LL4PIqgyMzvYdIRqN+a6Y7Yn7bsC20LAR5mB9H+l93/PGXyNf5TtwMHvL94Bb36+PsUJ+OXAvxl9w7gS/3ZtanhiQ32gFs8629aD+g2AfwdgXY3ecrXo/j9D7ue/7JBv8x+f/jZ9482P7PveLGmIr5P+F21MYT2P8DeIHiXL388KyJ721tYxnn0jVie1Ekn0FX0mRs9/1I8zn4DYJSDZZ0PtQmPCmAql4kV+MB2oAmO8dpI7IOlADIKuGFU8GG5V2jHL69t4HRWaV9/x/2ZOPxk03X1ta3BPwPJl15l+xuTM6vHH6I2knkez598M++2HRfuD7AftiNvzfD/Nl7ZENAd6P8/43Elmh40E8vpQo/q1POPXBcg5eSezsji2o40jcx2ANB/PW9wfh/ggiYAvMtwDe92YDpxTDqIbXrbPjAfD7gbupi2+p7n+X4q2s0P6JtFO8qdhzp5/U+mraMdaWzT1zJMZXEpb5jZ809dl3+wCf0PJPK+SvAL6QaCTnKJt75hRv/PaiRHWksr244v8Y1fACsHmAajsHqCGyTtQAyCCb2zYUGmp6z9oWw4bZkTvsUlFnXLyyoptT/nx96cLHHqqgWS7LUWQamrmQAWLnnr4pK6PPgX0K+BhmG/X+TIqLYVbhe/auOsi1WiF/H3gnS+su9MmTl6adLDQDo+uMz0B8CjkOwVM9F2g9zN8HvA+AUkTvagG/nsh+z8rua6rpARbss8Bn007xplz9gcBf0o6x1uLi8fQ26BLUiGat3QdGP4U4WQMAGvoytyesIxXMW1tjK+SvIcx7pq1s1qwhPmnS8gC1RPqloh6QZIAU68cCI9KOUU4n7bV/NDhXOdv/b3ruad/nkp8XK+vhv4/xJev88dZpx5DaZvPn56yQ/z0rc8+C/Qz4IrBR2rnWYG+wcxhWetYKHR1WaK/0vGvF2toi6+o4mkL+b3j8vzgfpzLfD2yG2ddwfkNdw0LrzF9nZ89MeiK8VDhra6vDaUpY5kafOOWetflAb5pyM/DXhOOB09R3baHUNLs/UKGIhtJOgWqJ9EslfsGXMur74nRS2jnKaf3Bgxm36+iKeG33lHqv9/vUVZcUn1v6eqVMcb6NDSJaGehQG5HV67uGa9Wl5dVjOPgUsMeskJ9obW3V+HsAwDrz72dUw+24/wLYLe08/TAY41B85WoPdJMasmn94cA2yYrYWf36cLd3Pytg7WzDS//4fIA6UtHicFvDvFTTB3FL5aqIhyQZQC8/cRhmO6Ydo5yO23V0NLy+Ie0YPLz4Jf/QwF/vt26ccbqTVgZAtd84MQI4m1ENd9mcGVW1f9Nmz663rvxZGH8GDkg7zzp6wk+avjDtEFJmnnSSwp5h5PZX9euXLIsuBpJvMQl1QJxUrmIU7mwSY/1gtUT6QQ2ArIn9+LQjlFPOjIl77pvq69rdOe+R++P3XfbL4l8XLazwJ/83bcCw+Mi0Q0jNezztAIHsTRTdZV35L6UdZG3YnBk7U7fsdpxvQsJz1dN1Z9oBpLysMHM02EeSFeFnfSuO1lrvGR92UaJxex1ic/J7BKgjlaonWhyslhoAkhI1ADLEzu3YCvivtHOU0xd22Dnabv0NU3uD++LypX7ENZcVm26+trSsuDKtGOsoHpd2AqlxZrXSAABYH+c3Vsh/N+0g78YKZ3yEKPo/YJ+0syRnd6SdQMrMSkln0FcSFc9dp18Z288Sjg1gREwMUEcq1eTJy4B+NZjema8Xpo5I/6gBkCUr4mPBavqAmm+O3j+11/Tvnnw03ueSnxf/8PQT1TLr/zZ2sJ0zY/e0U0gt82rfArA6P7TOju+kHWJ1elcoxNcCG6edJQh3rQCoYXberI1xvpasCFd446kvrMsv7Ts08O5E4/c62ubmNwxQRyqQ915Z81qYapEaAJIKNQCyxKiK5arr6kObb20HjtpiwGf/X13Rw8Q/XVf68nVXlF7qrvLbXOLoy2lHkBpWWysA/s38R9bZPintGG9l58w4DOdXQH3aWQJZSc/ge9MOIWW0omccMDRRDfdzEv16I8QqgPUoMjZAHalcYd5rxnFNT8pJ5VIDICPsnPzeYLuknaOcJu19wIC/nu948Xk/6NILij97+L7Ku95v3agBIOVjNbkCoJfZGVbIfzrtGAA2Z8ZBxNF8YFDaWYIxHtB92bWr94Yia05Y5lGaWq5PVGFl96+BpQlzgNFs1X3ehry7MDP3FmolgUj/qAGQFTE1fcDbThsOt8O22WHAXs/FOOZHd99W+ugVFxX/8eorVbrkf7V2sK7296YdQmqTN057BajVU9xzwEVW6Ei10WpnnTWcyH5D0pnUSuNo/38tW/Tk54DtEtUwn9u3PHud+UmtrwIXJ8rRa2c62z8ZoI5UGJs1awi9/94HKGa61lRSoQZAZnhN3017yt4HRpENTLP970te8g9e/svi/9x1a1yq9Ov91kn02bQTSE2r3VUAMBz8F9bWlt7X1vqeAljt3S2t/f+1zT3p7H83JZ8XIgpxHGIbABhNQepIZakvhjvfwbUCQNJRl3YAKb/e0/9tt7RzlMvGDUP46nt2K/sbbnfn/L8/EE++7YbS0pXVdsJ/P7h/Cvhh2jGkZj0OvD9QreXAYqD7LT/upnf2ux7YEBhOqNmatXMgoxqagDkDOCYAdk7HocBRAzDUK8DfgL9jvAr++qpvZKONAHDfBPOReLQJ5psD27CuEw85NQBqlc2ZsTNR9ImEZS7xidNfCpHHJ06/wwrt94ONTlbJPmOzO7byk6Y+GyKXVIiouCMe6i2nVgBIOtQAyIIV/ula3ok2cc/3RsMGDS7rGAuWL/MJf7q2dOU/H6/FKf+328+62kb5hNYFaQeRmrS2KwCKwD+AB4GHcZ4mFz+H+9PUsZDl6y/xk07qWVMRm982mAWDt6OO9xBH7wM+ChxEeffHn2bnnv5bP/7UF8s4xiqsrS1iVEO+TOWXAtfi/r9Qut6bv/PMuhSx2bPrqevZBY93xvx9wAeA/Vjze5FX+deKR9ZlTKkCUTSepPvlo7grTJg+Fv0M99kJq+TIxccDPwiQSCpFnNsVC/RWMPaXwxQS6R81ALLA/NBaPYumPpejcfd9yjr7//t/Ph5PuPna0qLuZeUcppJE0PAxwuyDFFmV8fhqdunGwCPgfwH7C2Z/YeWQ+9bmAX9NfEzrCuDRvm9XA1jnGZuBj8MYD7510jFWY0NW1k0CWspQe/U2rf9vnNDnd/wDfCbd9ReEOICv78/z/r5vvwWwmTOHsZ4fgseHAZ9mdfvAjb94a2u1HbS6EHg67RBvynnyg+3KwGbNGkJD4hPz7/Px0/8vRJ43eXwhWAcwJFGdyMbZ/Pk/9DFjAt0bL6kzwp3zYtGjwWqJ9IMaANlwcNoByuXonfeINh0yrCzdjWXFlXz/zltKP33g7mp745mc837UAJByMHuc3rMzFmBcgfM7it239h2+NSC8ecq/gNNsftsZvNQwDue7wBaBR5lgs9tOH7DfV2zjw/V57RmM6YzY/uJyP7j45MlLgSv7vmGdHbsRxYeBfRVn394Pqsbl/3apN03VHvA1aVh5FLBxsiIedvYf8KaWxVbIzweOSVaIrVj05GeA3wcJJhXAPxyo0Ct9X4tEBpwaADXOOtvfg9lmaecoBwNOHr1/WWb//7LgBR97w5Wlx15ZkoUl///J+UDaEaRG2fKHYOiHGbndbWnPivWtDihYof1i4CdgRwcsvyGD6k8AzgxYc7Ws0L4DZh8PVG0+9Yzz46amcjiVN099GHgYONMKM0dD6dtgt6aRRQaCT0hY4DXqowuDRHk752dYwgZAb6FG1ACoCTZ7xibURQcEKvf3QHVE+k0NgFoXRe+jJk+qh8O23dF2HT4i6Ox/MY456/674ta/3FJaGWdv4v9Nxh42N79h37VtIsF4Y+sy4Ja0c7yVN7UsBo6xQv4vwFmEuiHH7WsMQAMAt89hQTL/nKap45JepRaKN02+H/hG2jmkPKzQvh/YgQmrXFiuZpU3T/uzFfIPA0kPUf6UzTlzW5/47adC5JIU5aJPE+wGNVcDQFKjawBrnu+XdoJyOWX0/kFP9n7qtVf80Ct/Uzz1jpuz/fDfK6IU75N2CJGB5E3TZuMcS7gH4Pfa3DN2DFTrnZknPUEdjHsY2T2hUh7+JQss+RaJiPMCBHln5iHq54iKxweoI2kzawxXLLonXC2R/lEDoNY5e6UdoRz23WSUfWSLbYLN/l/02EPxe+fPK976wrN68/sGt5p87Yi8G2+e9gvgtGAFS6Ujg9VaDWtri8CS70n16Ft9WyJEys7OOms48JWEVR708VPvChLoHdX9Egjx9+I4a2vTqtsqZoWOg8HDbY90rg1WS6Sf1ACofXumHaAcJu19UJDX7qLu5X7ktb8rjb3hqtLrK/Xed1VWk68dkTUaucMPgu07Nzs0SJ13MnK9rYENkhWxB71pys1B8oisjcE93wCGJqph8bwgWd6FT5i8APjfAKW2YNP6zwWoI2lxvhew2tN9552IpEINgBpm53dsAWyUdo7Qthy2nn1h+50Sv3b/+MyTvv9v5xV//8/HM7/ef7WMPdKOIJIGHzOmRGTHEmLmzznY5s4dlDzVO6gr7Rygyh8C1BBZK9Z7hm/Sw/+K1MW/CpFnLYTZZuB416/yAAAgAElEQVQ2PkgdGXDWlT8K88PCFdTsv6RLy5FqWbfvEO5aqMrxzdEHRIOidd/+v7y4ku/deUtp9gN3x1rv/662TztAVXE+Z4V8mZejDqAcX/DGaZVzj/kA8/FTHrNC/jwg6T7lYcRL3guU5yo79x0S1zAeCJBEZO10tR+C2a4Jq/zBjz/1xSB51mTkDtex6MlnwLdOWOlQO3vm9n7i5CeD5JIBYeeevime+2nYqq6mq6RKDYBaZmyXdoTQ1h88mGN33XOdZ//vXvgvH3vDlaW/L1msZ/81G2Wdbet5c+vraQepEiP6vtWGlXFD2hFSF9fliYrjSb5a7kDK1wDYgKSdXiu9FCaMyNoIcPif27zkOdZyqDFjStbZPg+zpEvAI3LFE4BTQ+SS8rO5bUMpNVwBbBKw7EusHHZ1wHoi/aYtALVtu7QDhHbCbntHGw7u/3NJyWNm/vXO+CNXXFTUw38/5AZvk3YEkbT0Xdv1x+SV4qTXiL0LWy9xiTinyQAZEHZ2xxY4hycss4hNll8ZJNDaiut+DgTYLmjHlnVLkARjbW11FBt+BRwUuPQv/aSTegLXFOkXfdGvZeab47WzB6Auijhxr/3WqWnVUypx5I672JE77jKgr/mSx3Tce0f880ceqM5zBkq2FfBQ2jFEUuM2H/NPJqxRzgbAkOQ398WbBYkisiY5Px5I9gDsftFA31jhJ05+0gr5G4CkV25uRnHJ4cBvA8SSMrHzO9ZnVMNvgE8HLl2kFHo7gUj/qQFQyzzokqXUjdlhl2irYeuvU0djaN0gtlt/wwHthjzz+qt+/E3Xlv70/DPVvOKgdpa0i6yLOv8jpcRVku53fhe+PHkNUwNAys7a2iJGNYxLXMhzFwSI03/GeXjiBgDgjagBULGs0L4D2KXAPmUof4nOgJBKoC0ANc1q6uHtpHWc/U/DZU8+Gu//2wuKVf7wD2oASMZ547SnMZ5NWGbTsi37dZYGqPLeADVE3t2mDYcCCbeV+f0+cco9QfL0V0P35cDLiesYH7ezZ+qQ3QpjbW2RdXWcDHY/5Xn4X475d8pQV6TfquaBStbJxmkHCOWjW25j+4/avOL3Myzp6eYb119ZOuq6K0qLe7rTjpOcWc28hkTWmfO3hBUiViwpz4qsiFcCVPmYzW1Ldie7yJq4BZj9Z17yIOs49NjWbtxDXD0YkSsdH6COBGBg1pn/HKMabsf9J8Cwsgzk3uETWv5Zltoi/aQGQC1zr5k3dKeMPqDiX6s3PPeU7zP//OKvH3+4Ovf7r1btvIZEEkjaAIC6eNMAOf6T2RMBqmxAPOS4AHVEVsvmnjkSPOnhfyuJ6i4MEmhdWd15gSqNtbY2bcNNkZ3fsb4VOo6lkL8H4/fAAeUbzZ+irqejfPVF+qfiH6okAWNw2hFC2GX4Rvaprbev2Ndqd7HId+/8U+mwq+YXn1+6tNqX/K/KrCZeQyKJmCdvAMRlOpPF48fC1PHTrat9uyC1RN6uVPo6JHxPYlztEyYvCBNo3XjT5Ptx7gpQagtGNnwmQB3pB+tsW8/m5A+3Qvs8evwF8PMpz3L/t3Iib/bG1mVlHkdkran7WNOsJq6ambT3gVFklbn6/+HFL/kx1/9v6b6XFtbWg/+bvD7tBCKpK0VPESX8K+42JEyYt3mx52lGNSwBhiestD7OPJs791BvbFwZIprIWwRY/m/zkscIwPw8sP0T14k4AbgieSB5JzZnxgjMDiCKDsD9o1jDB3snxwb0PeVpPn761QM5oMiaqAFQ26q+ATBqyDC+8p7dKm72393p/Nu9ccvtN5V6SsmPCK9YXhurSEQSsfjVxG8YzRvChFmVt7bGVsjfBByRvJp9hNLii23u3KPUBJBQbM6Mg4iiPROWWUhu+FVBAiWVs19T4kwg6Ra5T1nnaVt783eeCREra+z8jvVZyoZENooo3hRnE4xtgO0wtsPZgSjqPWzR05qjsWtYsLw1pcFF3pEaALWt6t/ANe+xTzSkrrL6GM8tfc2Pu/EPpRufe6pGZ/3fwhjQu5ZFKpL7KyRehWTlW03j9kfMAzQAAPgCpcUX26xZX/dJkwJcMSiZl4vGkfyr5cWV0pTyxmmvWCF/GfD1hKVyRIOOA9oCxKps8eLbrZBf11fBRn3fD6e3E7sBkAP6nmL6yr71n+jKeHf2GIMHfc1bp9bQuVBSK9QAqGm+coCXOQXVkKvj+N33qajZ/8uefDRu/tN1pZe7s/K+2HrSTiCSOqt7FRK+hzMv32qaUmk+ddGZQKhVBl+gYcUDdk5Hk4+f+sdANSWDbObMYQzjqMSF3H8ZIE5AfgFY0gYAOONs/vwf+ZgxNbyUEHD2TTvCgHIeIbaP+7hJya+NFCmDinq4ksC8umdvv7HLntGoIUMrooPx6ooejrvx6tJR112RoYd/wL2qX0MiQZSWJT+8yct3kImfNH0h+PzAZXck9uuskL9Qd5bLOhsWfwlYP1EN5xFvbvlLmECBLOi5AXg6eSHfmpcf/2TyOlI57EEGlz7qJ059Pu0kIu9EDYBaZla1J44acOJe+1bE6/P2F5/zAy+9oPirR/+WwWVc1fsaEskUizuAcswifpVc6e9WyJ+rRoCsg+SH/2G/Sl4jLG9tjbFAqxLi6IQgdaQS3EEud4gff+qLaQcReTfaAlDbFqUdYF19drv32C7DR6Q6+78yLpG/947SaXffFpdSO0AmdS+lHaBqGPN8wrRj046RNQbG7BkjyeVGgo/AbCQeD8H6Zh3dhmC+vO+DXyK2FzF/niE9z/vY1u40s4fkE0590Aod54E3lqH8IGAcudIx1tl+CRad7U1Tby/DOFJDbO6MXSH6QMIyThRfGCRQaJa7AI9PJfley8/a2R1baMa4qjnwE0Z2T/MxrVo5KRVPDYBa5rxcrUcATBq9fy7N8R9Z8pJ/4/orS/cuWpDZJ38A3Ku2iSS1xebOHUT88p7E0b6Y7wn+HrAdge2pixr+feqTs8qBffbm//R+yBs/Xt6AFfIvgz+LRX/D4/vA7sf8YSa0POWVcoxUfxRL3yUXHY6xaZlGGITZ18C/ZoX83WBz6B50sQ4LlNUq5Y5L/NfIuMUntPwzSJ7AfPyUx6zQcRt40iZHHTkfC5weIJYMvCVgx3rT1MvTDiKyttQAqGWRL8KrrwOw/6jN7IObb51KcHdnzt/uiU+9/U+l7lIxjQiVZnHaASSbbNasIQxd+UFiPg5+CLAP2GDsjQeKIP9EbAy2Me6jwb4CgBsU8q8bPIzzABF3Ujf0ocSHAA4AP2n6Qus643g8/j3lPwF2P/DzaVgxy7ryl0B8gU+YfmuZx5QqYXPnDsL9mMSvwpiKW/6/qngeWNIGAMDx1tbW7q2tlf8Pjfybcwl1TPHGqQHOgxAZOGoA1DK3F9KOsC6+tfeBqez9X7B8mTfefE3p6qf+UX0zf2UT6X5iGTA2a9YQ6ns+j/FVGuy/iIOdat9f6wEHYByAc1w1PPy/wSdMudIKHR3g0wZoyA1xToDoBCvkHwUuoGTztJw54+KXP4tZ0pUo3ayoD324ZVjFnkuoa/gJMDRhpe3ZbMjHAd26UR3uhmiSN0+5Je0gIuuiIg5ZkzIxezLtCP21zfrr2xHb7TTgr8vL//lYvPcl5xf18P82yyJ1taXsrLNjN+vKz6VhxYuYXQz2ecJdaZc9TVOng/0mhZF3Bk4j509ZIf87K+Q/bW1tep+RRW7JD/8zrvRTTlkSIE3Z+Emtr+L+uyDFYnQYYMXz+zE7hgXdB3qTHv6lemkFQC2L/alqOwPgm3sdENVFA/d+8bUVPbTcfnPpZw/fVz1TfAPFeNEnT16adgypXdaZfz/GqRiH4dX2r1XlcnDLDT+a0hLAv5xChDrgCOAIRtU/ZV0d51HkPK0KyAabe/rmkEt+tZ1bmFP2y82YB3wteSH/vM2ZMcInTtfhu5XFgWvAf+xNLf8v7TAiIagBUMvq6v9BqSftFGttg8H1HLPLHgP29H/ngud97A1XlR5/ZYlm/VfHvepWkEh1sLn5bSiRx/gy5d+rnkne2LjS5s//GoueWARMTC+JbYv7/5Dj+9aVv5xSPNMnTr8jvTxSdqXo6yR/f7mIkcuvCRGn7Bb03MCoIc+Ab52wUj1R9FVgdohYktijwCXk4gu9cfojaYcRCUlL82qYN57yAlV0jdv43feONhxc/lW/xTjmR3ffVvrI5RcV9fD/buzBtBNIbTEw62r/NiUeAY5CD/9l5WPGlLxp2omYjwPSvvKwDudIouh2K+RvsULHEdoeUKtsbPISfkm1XKfmra0xFv8iUDldJZuuh4DTidjHm6bt4k3TvqeHf6lFWgFQ+x4EPpJ2iDUZFEU077lv2d8MPrrkZR9741Wluxb8Sw/+a+KuBoAEY3NP35xi7gLMDk07S9b4hJbzrTDzLij9Atg77TzAB8E/yKiGx6zQ/mOG9Mzzsa1pNygkAJsz4yCiaPfEhTyqjuX/b7DcBXh8Ksmbmu+1zjP28eYpfw0RS96VAw9jfhPYzcTRn7x5yr/SDiUyENQAqHXGA3jlNwC+/J7doi2HrV/W2cCLHnsonnjLdaWlK1eWc5jaYf5A2hGkNljnGftguT9gbJZ2lqzypsn32/y2A1lYfypm06iMQxZ3AiuwvOH71tl+BnU953hj67K0Q0kCUW5s73NVIo/RNLWqton4+CmPWaHjNvAAVwKWjgW+mbyOvMUrwN9wHsB4AKIHGVz3gI+b9HLawUTSoAZArXPuSTvC2vjm6P3LNvu/sHuZj7/52tKV/3xcs/5rLyYX3Z92CKl+VjjjQ1j8v8CGaWfJur4l1T+wQvsvMPsxzuFpZ+qzOWY/Jm74lnW2T6W55WIP8BQpA8vmtTVAw1EBSv2qKv/83S/ASN4AMPuazZ491U86qXoOcUrPEmAxxmJgMc5C4HnMnqLkT0H0DHHxGT9p+sKUc4pUFDUAap7fVunbbD+x1Xa294hRZQl53TNPeuPN1xSfX/p6OcrXLucBb5z2StoxpLr1nfJ/LTAk7Szyb97U8gRwhBU6Dgb/IfCJtDMB4GyF2UV05SeY+7F9OaVadDccAQwPUOnrVsh/PkCdgWXB/p0bQW7554DfBqqXvjg+mMiK614geh3i3uWbg+KlrIxW0NSypCobRSIVQA2AGudNLU9YV/4FnM3TzvJOThm9fy50zeXFlXzvzltKP33gbl3vty4ibk07glQ3O3vm9uT4HXr4r1jeNPV24NDeLRreBP41YFjauXA+DHafFdoneVPLuWnHkbXkjA1UaadAdarZsdRSA2DQiHu8sVH7L0UqhE7gzYKY29OO8E523WhjO3Sr7YLO/t+14AU/4NILinr4T+S2tANI9bLOtvXIla4ERqWdRdbMm6f81ZumjifHlsDJwMNpZwLWA/uZdea7bO7cQWmHkXdnszu2olJWktQC80/a2R1bpB1DRGqTVgBkgfkfwf477Rir8+29D4rMwjz/F+OYs+6/K279yy2llbGe/ROIofumtENINaufASQ/CXztLKD3tpMnged6f2zP4b4I8+XE1k3kywHI5YxS6Y0lyhsR+WA82hr3bcG2BbYDdgFGDFD2itK37We2wdl0dnyUyJv7zglI7wHcGE9p8U7W2Xa4N7dqL1elqvNjgOCr+TIs1/c5bU87iIjUHjUAssDq/4BX3nW6o4YM48s77hpkFcrTr7/qY2+4qvTnF57VfrDE/C6f0Log7RRSnWxO/sNE1lzGIVYA1+J2BXF0g584+cnQA9jc0zfH6/bEfT+cI4ADqfTDVAJycJqn3gjcaGd3bEEdJ+B+ArBlSpE+BkOus7POOsxPOWVJShnkHVjv341vpJ2j5jjHGuS1z11EQlMDIAN8wqTnrJB/iIGbkVsrJ+61b66hLvlL8KLHHopPvOWPpddXVl6Toyo516YdQaqTtbVFjGroohzby4xncf8pcK43tSwOXv8tvPHUF4AXgD8C7TYnvwcRD5ZzzErlJ059HmiztrbT2LT+cNxOBD464EHM30d9z+9s7tz/0l7iCtM14/0Q7Zx2jBq0M10z3s+E6TqTR0SCUgMgO66gghoAQ+sGccJueyd6SFjUvdybbr4mvuKfj2u9f1C5/007gVSpUUM+D75b4KqLcH7EyO5C3zV2Ay/ufoaoIZWhK4W3thaBS4FLrev0PfG6ieBHM7CHBn6U0pKfAk0DOKasiefGapK6TDw6FnQor4iEpUMAsyJXWafJjt1lz2hEw7ofDn79s//0/X87r6iH/+Ae9eYpf007hFQrnxK2nl3DoNKe3jztJ6k9/Mt/8AmnPuhNU5vIsSXu3wJ7ZiBHt0JH9V0RV6NsbttQ8C+lnaOGfclmzkz/Zg4RqSlqAGSEN057ALwSTnYmMuPk0fuv02uvu1hk8m03lA67an7x+aU6D6oMLkk7gFQnK8wcDbw/WEH3n7Jg+Wf8+FNfDFZTgvLGaa94c8sscsN3xP1YnEcGaOROm922wcCMJe8qHvJFQH8W5bM+w+Ij0w4hIrVFDYBMsflpJwA4fLv3RDtsMLzfB2r97eVF/oHLf1n86QN3x1psWCZeGa8RqUalcLOybmd6c8s3vbVVK3yqgDc2rvTmlnks7N4Dty+C31/mIbckVz+5zGPI2nAfm3aE2hcfm3YCEaktagBkiQ3+OXgp7RiT9j6gX6+72J05D94TH3TZL4oPvLRIz/7lYvyfN0+tiFUiUpU+G6jO5SxcPjVQLRlA3toae/PUy1jQ817cjy3r1gCzk+2ss4av+QPXQVwK8XWm5s9YsjlnbksaB0Jmjn3YCu07pJ1CRGqHGgAZ4hMmPYdZqie8HzBqczt40y3Xevb/mddf9U9eeUlx0q3Xl1aUUu9d1LaY89KOINXJCu0bAQckLuS8SK7uBM38V7feRkDLPLoH7YIxHVhehmE2ZHDP8WWoC9Qlv2XABvRwxHRY6evofeRAMCw6Ou0QIlI79A935kTnpjn6lPcetNavucuefDTe/7cXFG9+/mnN+pffKyzLXZp2CKlWuT0J8fXE/Pve+O1FyfNIJfBJk5b7hGntRNHeGH8KPoB5eR6KPA5wzaAPTV6jwpkfk3aEzHA/2qDfWydFRFZHDYCseXHZ1cDjaQy9/QYb2Oe23XGNr7lXVnQz9oarSkddd0VpcU/3QEQT41yfPHlp2jGkSlkc4orRV1lad2GAOlJhfPyUx3ix+5DeGwMohqtso63r9D3D1esTWfKMXtsrAOycGe8Ddk47R4bsSOGMD6YdQkRqQ83vUZNVeWtrbIX2n4L9dKDHPmX0gVHO3v35/8bnnvLjbry69NzS1zXrP2B8JXXRnLRTSBVz9khexK5VE6p29W3rmGVd+YdwLgcawlSu+xjwYJhab4hXJp5sdavpBgBx7hgI8mX6KrBlIQpVJHPD+SJBZu/9GOCW5HVEJOvUAMiiXM8vKDV8Hxg5UENuVN/A0Tvv8Y5P/93FIj+657bSzL/eGceuZ/+BZb/x46c+m3YKqWa2WeKHAfc7w2SRSuYTpl1rc/JHEfE7QjwUxf4BIHBDO/c6JDyGwmp3C4DNnl1PnX85QKknaZr2OQ/USahUVsjfSpArUn2MzZp1sk+aVI4zNUQkQ7QFIIO8sXUZ+E8GcswJe+wTrTdo8Gp/7uHFL/mHr/hVsePeO/TwP+C8BJZPO4VUvfUTVzB0A0VG+MRpVwCzghQzDgxS562GLlsSoEryvxOVqm7p54GNEtcxv6jWH/4BMPt1oEobUt9zRKBaIpJhagBk1dK6szFeHIihBudyNO2x73+81rzver8DL72g+NdFC2v/TUBFsgu9aerf004hVS9AAyAO8dAl1aLefoAH+Rq0lc2dOyhAnTf52NZuIOkBNFvU8KFtYQ7/M78oSJ1KV1ecD4S5xsgiHbwoIompAZBRPnnyUjw+cyDG+up7dos2GzpslTdCzy19zT911fzipFuvL/Xoer+U+EoG5U5LO4XUAk++39mi1wMEkSrhx019DeOcAKXqWPHqVgHqvF3ShlQD554+KkiSCmJdM0eBfSpAqXt9/PSHAtSpeH78qS8C1weqdqjNPX3zMLVEJKvUAMiyISu6cH+y3MOctNf+q7zOLnvy0Xi/315QvPG5pzTrnyazc/z4yWX/85dMWJG4glt9gBxSTaL4N0Hq1K3cIkidVVjy6yhLtkOAIJXF468S4vwo84zd+GEXByqUo5j7WqBaIpJRagBkmI9t7caiaeUc45PbbG97jdjEAF5d0cPEP11XOuq6K0ovd+sMm1QZL1OKNfsvoQQ4vT9eL3kNqSZ9M8ALEheKy3LifvKDUT3aJ0COCuPfCFAkphiF2hdfHXJ+Gcm3lfQyC/FnICIZpgZAxnnT1MuB/1eu+qfstX8O4I4Xn/cDL72g+LOH70t4tLIE4f59nzj9pbRjSK3w5A0Aj7YOEESqjfFI8hpR+BP3zZ8JUOW9AWpUDCvMHA0kb2oYN/qJU59Pnqh6eOO0V3D+EKjanjbnjH3D1BKRLFIDQMDt2+A9ocvuNWKkfXiLre1Hd99W+ugVFxWfePUVLfmvBO53MXLH89KOITXEoteS14h3CpBEqo2TfKm9x+G3j3iIFQB8JECSyuFxmAPo3DK2/L+PebhVD7lAfxYikklqAAjePPVhnI7QdQ/bZkf70OW/Kv7PXbfGJV3vVymKkGv2MWN08qKE4/E/k9ew9yUPIlXHKSauEeUCbEH5D08EqLGznT1z+wB1UmdtbXWYh9h73t23HD57uuuvBJI3SwGcr4S+/UJEskMNAOm1sCcP/C1kyZl/vTO+Z+ECPflXEvOZ3jzlr2nHkBpjPB6gysE2c2Y59nJLZUt+n7wHeqh6K/MwXw+j0pggddK22eD/AjZLXMe40hunvZI8UPXxSZOWg18eqNwoSks+HaiWiGSMGgACgLe2rsD8OEKc5t1Hs/4V5yGW189IO4TUoJKFaAAMZWjpiwHqSDUxdklcwwn/QNnQ8zAh7m43xhnYmj+wwsU5Lf8PwgIefujaBiAi60QNAHmTT2i5F/fWtHNIWXST4+jeGQiRwBoGPwgkP+Az4pvW1qavSxlhne3vAbZJWMZp8H+EyLNK0bGt3UCIujtT6Dg8QJ3U2FlnDQcP8XtYzMjlVweoU71yG/0/CHDuRa/P2nmzNg5US0QyRG+0ZFULe2YBN6QdQ0Lzqd447YG0U0ht8nGTXgbuT16Ifdl0iO64zoqIsQGqPO/HTQ2/BaDXrYHq/NDa2uoC1Rp49d1fAhqSF7L5PqY12CrDauSNjSuB+YHK1dOz8qhAtUQkQ9QAkFV4a2uMdR8D/lzaWSQQ90u8qaUr7RhS44wbg9Rxn22F9h2C1JKKZV2nbYnbiYkLOQ8FiPMOtf3aQIX2ZJP674aplYYozFLz2DO+/L9PzMXBapm2AYhI/6kBIP/BJ7QuwKIvl+NqQBlwD7KsbnzaISQDnD8GqrQh2DXWedrWgerVPJs9u94K+auts32szc1vmHaeNbF5bQ1QdxGQPGtUxhVr9fV/JMQ5AABm37HOji8EqdXfodva6vq2W/T/13a2vwf8/QFiPM2i7j8HqFP9FnX/GeyZQNUOskJH8nM0RCRT1ACQ1fIJU+8EJqWdQxIwXiYXjfHJk8txRZbIqhZ0/xF4PlC1nbBBt1rhjA8Fqlfbotf3AT6N2c8p8S/rys+3rvb/ttmz69OO9nZ21lnDWd5wOc6Hw1QMNUu/msrjJr2MBdsGUIf5xdbVflygemtk55yxk3XmZzCq4WnMfr5uRexoghxiaL/21tbk54TUgL7PQ7hVADoMUET6SQ0AeUfe1HIuxqy0c8g6WQH+VW+cEvxwLJHV8dbWIjAvYMWtIb7RuvJzreu0LcPVrUFRdOBbftSAcyRul1G37F9WyJ9rXe0fq4TDFa0z/znqe+4FPhmmoj/FhJbyXmvqdn7AaoNwO8+6Oi6y2R1bBaz7Jps1a4h1dRxthfabiOO/Y7QAmwMH9Lch1Hd7wdFBgpW0/H8VUcjPhx1dCX+/RaR6VO+hNDIwJkxrodC+OZgOmqka7lg03idM02GOMsD8PLCphPvaksM5Aeq+YV0dl4JfQEP3zX0ntMu/HfgO//9wYBxu4xjV8LwV8pcSxdfw2qCbB2plkM2cOYz1Sl/H7USMPcNWj85xKO99s7nl8yk1/IQQ2xXe4P4V6jjcCvlf48xjkx3+z8eMWeetBtY1cxRe+gTuh9Fgn8EZvppJ+3pyyw4A1n4ZfuGMDwPbr2uuf/P7/cQWHUL7Fj5+2n1WaL8fbHSAalszcsghwPXJa4lIFqgBIO/Kwa27fjwNKzYHPpJ2HlkbPt0nTNVsiww4b2p5wgod54M3Bi49GPevAF9hecNSK7Rfj9nVxH4PdfaoN04Leg+8tbVFbDxkCwb5HsTsTd2Qfcv9nJnQQWvxMVsAJxFHJzGs1GOF/G1gd+HxQ+SiB7HlD3lj67KkQazQvhGx7UXERzE+zDDehzO0DJ+/Hiw6L3TRt/PG1mXW2X4BZicHLj0UGIcxjkVPLLZC/nac+3r3hseLiexlsMV4XCL2OiJbH2wQ2CjMNwc2w9kV2IveP1uwNazUj/gg/WkAeHxMiMX/uOnr0eq4/RLjjCC1Ij8GNQBEZC2pASBr5JMmLbe5bYdTargS+GDaeeRdmP3QJ0z/cdoxJMNKtJHj6/Q+4JTDMLDP43weMyiBFfIvAI+ALQBeAX8d8+U4b7kezjYAy735Q/fhWN8Tk7kRMxJjU4xtGNWwKfggnL6J1Mp9+O+7B7y/B7zVA4eAH4IZxA40YIX8S8CL4AvBngN7Hec1jGLvobDe1yCw9XofRn0DjDrcN8dsW5xtwTZ4c3NhWT9tdpZPmLygnCO8qS5up5Q7nvK9pjcCPo3xad540Tm8+d/RW5/CE6x5cP/A2n7o/2/v3mP9rus7jr8+v0Npi8wFrUxRJ+JcnEAMiZcAAAz4SURBVGKiThPHVLYYweG8spoZNTNe6jkHamCjPQWSnVSn4wCLJJXCTvyDZU7/cHPihXndnGxzRuNQcWZzzqIBFNuuyqWn5ZzfZ3+ciqgtvX17vqe/z+ORnNCkh8/n3dPT9vye5/v5fsvs5pNSVv3BEe70YMNk/gMdrDN6huX9GatXJBk76Pse3Pll6+YL6uT0PR2sBYw4AYBDUtdN31eu2fyqrFz1ySTP7Hse9qPk3XV84zv6HoO21Qs33lGum3lnkncu4baPWXx70Cujur9vXT7o5x/8wv6BF/pZzq/19+/+vc9JJzdpS5I8cvHtQR+Mn1n5516IPvCfstQftzuzcuk+v+q6y+4s1125JalTS7XnsVHOKkk5pIQwXP3KpD786PesN9fJy7u64/1IqRduvKNsnfnHlLyog+UelrL6/CR/1cFawIhz0xAOWb1oelf2zJ2bki/0PQu/4Ko6PnWcf3HKyFhzxkwO51JjjkI50Pn/UVWTMlnfuPHug79rl4YzSe5c2j0794hcO/PUQ3rP2tGd5V3+/9AG5a+7W8zTAIBDIwBwWOpF07tyz9h5ST7T9yw84O11YuryvoeAn6hr1y6k1Ncn2dX3LCOv1kM5/z9CytV1YuOHl3rXOrHp/5K8Zan37dzYwY/x7Xvqxgs72G1PSv3bDtYZXcPdf5+kqxty/k6ZnfnVjtYCRpgAwGGrl1xyb1bPvSrVP+z9qven1nV1YurP+p4Efl4d37QtGbwsye6+Zxlxz+l7gCVTy025a/dlvW0/MfXxpLy3r/07cSj3Aahjr0sX59JrbtoXTjiAxTP79UMdLTfIfOnmsY3ASBMAOCL1DdNzmdz02pTizHkfSu5Ozfl1ctMNfY8CB1InNtycMnh1kvm+ZxlF5borzkhyat9zLI3yiZy0+/w6Pd3v59Lq3euTenOvMxyVcgg38h28rpOtOn3W/QireV9na5X6R6W7e4IAI0oA4IjVpNbxje9IresW7xDNkqj121nIC+rkpk/0PQocTB3f8LEMhi9PssRnthtQm/nu//syv/oV9Q3Tc30PUt8wPZcTV74iyX/2PcsReuK+S/z3q/zllc9O6pkd7LMrq/Z8vIN1Rt+jnvTZJHd0tNqTc92VjR0LAg6XAMBRq5Obbkgde36SbX3PMvJKbkrJWfWCqW/0PQocqvrWS2/KQn47/o7o1qCM+hf6e1PK+jox9fq6fv2yicz1TRfvTJk/J8ktfc9yRIZjB74KYNjVzf/yoeUQbI4Hde3ahSTv73BFNwMEHpIAQCfq5IZbMjZ3VpJP9T3LiJpPzZ9mfOqVzlRyPKoXTn09Y3lGkuuSDPueZyTUkX4CwJdS6nPr+Mb39D3I/tTxy29PnXt+Uj/W9yyHrZT93gegfHDziUle08keLv8/TGMdPg0gf1i2bFnZ4XrAiBEA6ExdN709E1MvTepkkvv6nmd01NtShi+qk1NXHNLzm2GZquumflQnpiZT8/wkX+x7nuNf/XFGL6ZsT3Jh7pp7bh3f9B99D/NQ6uT0PVnzpFek5NIkx8t3uxcO+DPbV5+XZE0He9yeH+z5XAfrNKNOXPK1JF/taLlTMrb7pR2tBYwgAYBO1aTWiU3vTVl4Xmpn/5g1qtaU3JC7B8+q45f+a9/TQFfq5NS/1Ymp56bkxUnxuX2E6sTUeanzpyd1U1K/1vc8R+n7KfWS3Dt2ep2YurZOTx8XYaOuXbtQx6euSMozUvL5vud5CLen1ndkLGfUiam37fc9ameXjn/gePn9W1ZK7e4qgOIYAHBgJ/Q9AKOpjl92a9m8+bdy6qqJJG9P8rC+Zzqu1Pqd1MGF9YKNn+57FDhW6vjUJ5N8smy96hkpwzcmeW2SR/Q8Vhe+m1puTcnXF1+Yj92aEx7+zWOxUZ28/HtJZpLMLD4VoLwkye8nOTvJcr8MeCEpn04d3pCT9tx4PJ8ZrxMb/yvJ2eX6mXOTXJaaF/Q9U5L/SfLh1NyYR53xhX1nzferzP7FmpS8pJNd68Dl/0difvCBjNWZdPEIxuTF5fqrT63jl9zVwVrAiBEAOGb2Pa5pS5m96qYsLFyTlHP7nmn5q3uSck32rHxXvfhiz09fKqV8NMkvH9Uaw3ypm2HaUyc33JLkbWXLlg0Zu/fslPJ7Sc5L8us9j3Ygd6dkW2q2JfveatmWMrwte1Z9u1500a4+hqoTm/43yZYkW8rWzScnq89J6ktS8rtJntjHTPtxT0o+m1o/kbLw0Tp++e19D9Sln0atmbNSsjbJy5KcsUTbzyfli0m9KcPceFg3i10Y/kZSbjzqCWrdue/PM4epXrjxjnLdzExSntzNivNPTXJ0AaDkG6nlg0c9yimnuCJkKZX6lWRwdL9vpd7b0TQsQ6VWR4pZGuXad70wg7Grkzyt71mWqY9nxdgf1zdf8p2+B4HloLznytMylmcn9TlJfjOLQeAJOTbx+t4sfrH8g6RuT8oPU/ODpN6VwWB7hsMfZqzcmRNO/F5908U7j8H+x1TZ+s7Hp5xwdpKzkjwlix/LAz4OriN7k3wrqV9JGXw5w/rlPGruy3Xt9N5jvO+yUq6deVpKOTslz0ypz0rNmUlO7GDpO5LcmpJbksHNGd73uTo5fU8H6wIwwgQAllSZnV2RhZ1vSs2mlHJa3/MsE/+SDKfrxKU39z0ILHdldnZF6o9Oz0J9XAb1V5KyJsPhmpTBqpThL6UOfi4O1PuS8pNHyP0ope5KsiMLZUdK2ZEThjuTue113XRzNy4tWzefnMHKJ6cOHp/kkclwTVJOXfxxOTmpJ+Wnxwgenp+9NHnf00jqXJIdqYPtKdmR5Pspw9uysOLb2X7P95wF/0VldnZF7r/7tIztfVwyeGxqOS2ppyRlZepwdcpg1QPvXIdzKYPdKdmdOrwztdyZUu/IsG6rF1y6o8dfBgDHKQGAXpQbNq/K7lVvSeqGpDy673n6Uf89ydvrxKbP9D0JAAAw+gQAelU2bz4xp656dZI/SRtHA4ZJ/iHDhffUCy77bN/DAAAA7RAAWBZKUnL9zDkZ5s0p9bykrOh7po5tT/I3GQxm61s3fKvvYQAAgPYIACw7ZetVj05ZeH1SXpPkzL7nOXL1/iSfSfK+zD/sI3X9+j0H+z8AAACOFQGAZa3M/vlTMl/WpuTlSZ6elNL3TAcxl9R/Ts3fZc+ej9SLp4+7u4UDAACjSQDguFFmr3lMFvaek9RzUvK81Dym75myeKb/myn5pwzrp3LCns+3eDdxAABg+RMAOG6V9179xMwPz9r3jPAzU/P0JKcc213rbUm5NaV+NbV8MXvmvlAvmt51bPcEAAA4egIAI6Vc/+7Hps79WurgCRmUJ2Q4PD2lPCKpj8zis61PyeKzrFckOTmpNSmLL+BL5lKzMyU7UuvOpHw/Nd/NWNmWZFv27v7vun76x7394gAAAI6CAAAAAAANGPQ9AAAAAHDsCQAAAADQAAEAAAAAGiAAAAAAQAMEAAAAAGiAAAAAAAANEAAAAACgAQIAAAAANEAAAAAAgAYIAAAAANAAAQAAAAAaIAAAAABAAwQAAAAAaIAAAAAAAA0QAAAAAKABAgAAAAA0QAAAAACABggAAAAA0AABAAAAABogAAAAAEADBAAAAABogAAAAAAADRAAAAAAoAECAAAAADRAAAAAAIAGCAAAAADQAAEAAAAAGiAAAAAAQAMEAAAAAGiAAAAAAAANEAAAAACgAQIAAAAANEAAAAAAgAYIAAAAANAAAQAAAAAaIAAAAABAAwQAAAAAaIAAAAAAAA0QAAAAAKABAgAAAAA0QAAAAACABggAAAAA0AABAAAAABogAAAAAEADBAAAAABogAAAAAAADRAAAAAAoAECAAAAADRAAAAAAIAGCAAAAADQAAEAAAAAGiAAAAAAQAMEAAAAAGiAAAAAAAANEAAAAACgAQIAAAAANEAAAAAAgAYIAAAAANAAAQAAAAAaIAAAAABAAwQAAAAAaIAAAAAAAA0QAAAAAKABAgAAAAA0QAAAAACABggAAAAA0AABAAAAABogAAAAAEADBAAAAABogAAAAAAADRAAAAAAoAECAAAAADRAAAAAAIAGCAAAAADQAAEAAAAAGiAAAAAAQAMEAAAAAGiAAAAAAAANEAAAAACgAQIAAAAANEAAAAAAgAYIAAAAANAAAQAAAAAaIAAAAABAAwQAAAAAaIAAAAAAAA0QAAAAAKABAgAAAAA0QAAAAACABggAAAAA0AABAAAAABogAAAAAEADBAAAAABogAAAAAAADRAAAAAAoAECAAAAADRAAAAAAIAGCAAAAADQAAEAAAAAGiAAAAAAQAMEAAAAAGiAAAAAAAANEAAAAACgAQIAAAAANEAAAAAAgAYIAAAAANAAAQAAAAAaIAAAAABAAwQAAAAAaIAAAAAAAA0QAAAAAKAB/w/iRyfuW9D9FwAAAABJRU5ErkJggg==;" parent="2Z2Zc4ZfPcimmZf8wGZL-10" vertex="1">
          <mxGeometry x="31.24" y="294" width="166.51" height="60" as="geometry" />
        </mxCell>
        <mxCell id="2Z2Zc4ZfPcimmZf8wGZL-11" value="" style="group" parent="2Z2Zc4ZfPcimmZf8wGZL-20" vertex="1" connectable="0">
          <mxGeometry y="6" width="300" height="390" as="geometry" />
        </mxCell>
        <mxCell id="2Z2Zc4ZfPcimmZf8wGZL-1" value="" style="rounded=0;whiteSpace=wrap;html=1;fillColor=#eeeeee;strokeColor=#36393d;" parent="2Z2Zc4ZfPcimmZf8wGZL-11" vertex="1">
          <mxGeometry y="-6" width="300" height="390" as="geometry" />
        </mxCell>
        <mxCell id="2Z2Zc4ZfPcimmZf8wGZL-24" style="edgeStyle=orthogonalEdgeStyle;rounded=0;orthogonalLoop=1;jettySize=auto;html=1;exitX=1;exitY=0.5;exitDx=0;exitDy=0;entryX=0;entryY=0.5;entryDx=0;entryDy=0;" parent="2Z2Zc4ZfPcimmZf8wGZL-11" source="2Z2Zc4ZfPcimmZf8wGZL-19" target="2Z2Zc4ZfPcimmZf8wGZL-22" edge="1">
          <mxGeometry relative="1" as="geometry" />
        </mxCell>
        <mxCell id="2Z2Zc4ZfPcimmZf8wGZL-19" value="&lt;b&gt;&lt;font style=&quot;font-size: 14px;&quot; face=&quot;Times New Roman&quot;&gt;Train Scripts an Run Images&lt;/font&gt;&lt;/b&gt;" style="rounded=0;whiteSpace=wrap;html=1;strokeColor=none;" parent="2Z2Zc4ZfPcimmZf8wGZL-11" vertex="1">
          <mxGeometry x="4" y="89" width="120" height="60" as="geometry" />
        </mxCell>
        <mxCell id="2Z2Zc4ZfPcimmZf8wGZL-21" value="&lt;b&gt;&lt;font style=&quot;font-size: 14px;&quot; face=&quot;Times New Roman&quot;&gt;Experiment Tracking and model&amp;nbsp; registry&lt;/font&gt;&lt;/b&gt;" style="rounded=0;whiteSpace=wrap;html=1;strokeColor=none;" parent="2Z2Zc4ZfPcimmZf8wGZL-11" vertex="1">
          <mxGeometry x="154" y="264" width="120" height="60" as="geometry" />
        </mxCell>
        <mxCell id="2Z2Zc4ZfPcimmZf8wGZL-23" style="edgeStyle=orthogonalEdgeStyle;rounded=0;orthogonalLoop=1;jettySize=auto;html=1;exitX=0.5;exitY=1;exitDx=0;exitDy=0;entryX=0.5;entryY=0;entryDx=0;entryDy=0;" parent="2Z2Zc4ZfPcimmZf8wGZL-11" source="2Z2Zc4ZfPcimmZf8wGZL-22" target="2Z2Zc4ZfPcimmZf8wGZL-21" edge="1">
          <mxGeometry relative="1" as="geometry" />
        </mxCell>
        <mxCell id="2Z2Zc4ZfPcimmZf8wGZL-22" value="&lt;b&gt;&lt;font style=&quot;font-size: 14px;&quot; face=&quot;Times New Roman&quot;&gt;Experiment Tracking and Model&amp;nbsp; Registry&lt;/font&gt;&lt;/b&gt;" style="rounded=0;whiteSpace=wrap;html=1;strokeColor=none;" parent="2Z2Zc4ZfPcimmZf8wGZL-11" vertex="1">
          <mxGeometry x="154" y="89" width="120" height="60" as="geometry" />
        </mxCell>
        <mxCell id="2Z2Zc4ZfPcimmZf8wGZL-37" value="" style="shape=image;verticalLabelPosition=bottom;labelBackgroundColor=default;verticalAlign=top;aspect=fixed;imageAspect=0;image=data:image/png,iVBORw0KGgoAAAANSUhEUgAAAP0AAABhCAYAAAAdkafEAAAAAXNSR0IArs4c6QAAAARnQU1BAACxjwv8YQUAAAAJcEhZcwAADsMAAA7DAcdvqGQAABi9SURBVHhe7Z0HfJRF+sd/2fROEhLSIYRepHcE6QgCKhZQKQpnQdQDFfspHnfqnXLYEDgQBQGliCJIOen+6VKlBwgQIIWQnmySLf+ZNxPIZmd23y0JITtfPu9n32c2CZvs/uZ5ZuaZZ9yMBEgkEpdBwx4lEomLIEUvkbgYUvQSiYshRS+RuBhS9BKJiyFFL5G4GFL0EomLIUUvkbgYNT45p9RgQKG+FEW6UuWxUHnUwd/dE/H+wQj09GJfKZFI1FBjRH+9uBCnczPLrhz2SC7abolQL1/UDwhWOoD65OpaN4ZcsbIzkEgE3FbR77megg1Xz2Pj1XNIyrvBWp1Dj/A4dA+PRaewaHQkl+wEJJIyql30m1MvYPM1cpHH8/nZrLVqifDxx6P1W+DRBi3RNCiMtUokrkm1iX7TtfNYdO4oNl47x1qqHw+Nhoi/JRF/C3QjQwCJxBWpctHXBLHzGBLTCE8ltkXvevVZi0TiGlSZ6Pddv4LPTu2vcWKvzIRG7fBC006I8QtkLRJJ7aZKRL8g6RCmH92BIr2OtainR3gHhHiFIsAjmITjATAafaHVeyO3xF15PtBTDx/3Uri7aaFHAXkuD7ml2UjKO4/kgmvK19gKFTwVPu0AJJLajlNFf6O4CNOP7cDSC3+yFuvU8QpEp9COCPNOJN8fjELb+4mbRPrqEeB5AxnaZBy48SfStLatCNBQ/2+te+GukAjWIpHUPpwm+u1pFxXvfiw7nbWICfcOQc+IHvDRxOJakT90BvaEE9G4AXH+WhiMGdiathmp2kz2jGWifQMwq+Mg9IlswFokktqFU0S/JuUMJuz+hVmWGR4zEB5uLZCuLQvXq4MQbwP8PC5h47WNyC7JZ61iPDXu+LzTYIyMb8ZaJJLag8OiVyv4DqEt0TyoJ5LzA1hL9RPuo4e75jx+SdmAYkMJaxXzQbu+mCjH+ZJahkOiVyP4AE8/DIseRsL42CoJ4+0h0lcHvTEJq1PWsRYxr7bohmktuzNLIrnzsVv0c88exNuHtzKLT6+I9qjnfTcRvAdrsY0QLzrRV3Z5k9EAHRCUkI5DT16xljzmEmedTa58Oyf/GgRkYeXlxdDqS1mLKVLwktqIXaJfeO4wph3czCw+o+sPxpXCljDY8NOpsBsHAhoi6GMZwLlc4FohkFHEvqASId7Ea/uVXZ0jASP5/jPke2whxq8YJ3LX41i2aT6BFLyktmKz6HdnpGD4th+YxWdyk9E4fCOaWdZpRIb5ecXAgTTgD+uT/xbpXA9oF0E6EE/gkuUNejcJ8DTCiH3YeO13xZaCl9RmbBJ9VokWndcvICG1lrWY83Sj53Ei24dZlmkWRDxzJvBjFSXtPdCIeHLyf6SoFH+UXxIJ+dOl4CW1GptE/+D2FdiZfolZ5gyKfBkFKsbXTagQc4Clp1lDFTOqKRBKhgBXBcOEch5NIF8rl+cltRzVon/3yHbMPnOAWeYMj3kRN4pJTG0BOiHnTx6/PFpmVzcTWwPX+XN2UvASl0FVjTyabWdJ8EOiH7Mq+IZk3F5EPO3tEjxl/jHSy5FIJKjSSx0QLQUvcR1UefqHdqxUhM+jV0RfGAyWE1haBgMf7YdN6/T3ECEOigcaBN666vqWLdNVvH5PBdaRl/a7DXtt6Ex/F/LzL5OxfjPy2j5oz56QSFwAq6KnO+ZeP7SFWaY0CWqMeN9h0OrdWIs59UhIP1eldx/VCOgbA9xPQu1wInBbSMoB1l8ir/ckcERFmn2IDzC+JTCzM2uQSFwEi6K/UpiHoVuXKY88RtWfhJQCsTojibDmHGaGBR5vDDxPxtvd6rEGByjWkyHEn2XXeQtr9g8nAssHMkMicSEsip56eOrpeTwYdx/Si5oyy5y63mQMfYQZAoaRcfTkVsDAONbgRK5ry4T/HhlWVEYKXuLKCCfyLhbkYOmFY8wyxc/DB24gsbiAYE/gtwvMEDDlLmDNvVUjeEpdEmW827FM3LEV9vhIwUtcHaHof7p8Wlj5Zmj0YKQV8bfGepDhfQYZDSRbCK3f60TG0j2YUcVQkf80GOgfKwUvkVAsip5HmHcwSvUJzDInlgzxf01mBgcqeOqBq5MO4WVil4KXSASiX3flLP4UVMDpHzkA14v5fUWcP7DiDDM4dKlX/YIvh27OkUgkAtGLvHyoVyAKSuOZZU6hFrgiKEwTSzqE34YxQyKR3DbMRJ+hLRSKvlNYG2SX8Nfk6ZbYBceZweGr3nQ3GzMkEsltw0z0x3My2J05kb7iXNXTFhJiprQB7pNnSkgkNQJz0WeLRa/V8c+Bo6msG/hZuspy2dS7mCGRSG47Zsk5z+xdhx8vnWLWLRoHxqGe9yPMMqVdHeDdPcyoxMzuZZ7eXvR6A3bsTcLq9Ufwx9FLuJaeixtZBQgO8kXd0ABE1wvG/fe2wajh7eHvZ/ts3YLvdyON/MzK9O/VDJ3bOi88WbPpKP48Zd9hHBUZ3KcF2rd2LLnh+OlrePn9H5l1Czc3N3w/+0nlb+so//nvFhQVCbY0VoSMFuuG+COKvI/NG0WiUUI4e8J+nn1tGS5czsTGpZNZizpOnk1VPmc8hvZvhTYtYpglJv16HuYv3cUsU+7ukkgucX5LOQWFxfh0/jZmmfLMmJ4II38vRzATfcdf5yuJOZUZGTcEaUXNmWVKhAcwj3O+RTzx8hfHMMNGSnV6fLtiLz6ZsxmXr2axVjG+Pp54aUIfvPHCQLi781cXeHQf/gmOnrzCrFt8+OYITH6yN7McZ8LLS/DDmj+YZT+zpj+EiY85VuRj8lvL8c1yfi/trN87ruPbyMpRWb2kArQTf3hYe7z41D2oFx7IWm3DXtH/+OthjH1pEbNMaZwQgf3rp8HDymdr4itL8P3P/Pf5zRcG4c0XBzFLTFpGHhK7v8ssUw5ufB1NGjp2GIvJb0An8XiCp/i6870L3SO/SRDa94xiNzaSkZmPe0bOwl//tlKV4ClF2lJ8+OUmDBj1uRINSPjk5Wux7CfxNum53/0OC5nZqjHY+TOupuUQL7cVrfv9A4tX7WOtt5+zF9Lx2QK+9y1nz8FkoeBrEiaitzSJV6znl8CqTyKNZP5+HLtEf/7ideJ9P8aRE+beVw37Dl/EsHFfKR9uiTnfLN+L4hJxeaMLlzLx285qKmlkgcKiEjz3+vf4eWP1FWCgwxtLfPD5RlxJzWaWKTQypa/3TsBE9NeLxeGY1sAPa2jarYiekexGJfQPOmTMbIc99amkNEx603LxTleEevB5S8qKf1piHvH2NYUp761Cbl7N6MBpNPn8m8uZZcqs/25VooE7AbPwXkShji/6UoHT8CBf3po/2S/k6WnLkHKN35NSNBo3dO/YUJlgC/AXT9q1ahaN6S8PZVbNJjaqDnp2TlR90Qkve6EenHpya2zYdtLi+6AGjcBrtmwaZfL70PfSz5eMEQXQibFVZKxdU/ht5yn88j/TjWj0b/XhF5uYVfNR5ekDPHyUfeo8RIUwg8XvI5ftu88ql4iRQ9vi2Ja3sGnZZGxZ8RJSD3+A9d9NQq+uprOhf3m8B7av+isa1q/LWmo2D9/XHhuWPK/6GtqvJftO25m7WJ0HpxHBnEU7mWUftKg4jxnThpn8PvS9vHbon/jqw1Hw9OBv4qKrNtWBlej+Jq+8v1rx+uW8+M4Ki0OmmoYqTx/mXYfdmZNTzG4qYavo5y35P3ZnzsvP9MO3s8aifkwoaymDLn/8ungS3plyr+L5l345Hv95byS8vew7Uac2k5xyg3jwE8y6hehvtXD5HmiL7f8gu9G1OJXQ1ZYxIztj6jN9WYspB49dZnc1AzoMnfHpBuWeev1N208q93cKqjx9iHcQuzMnUzAisEX0JaV64eRR1/YNMP0Vy6H6a5MG4OT2dzB8oMwCEjFf0Kk+NaobEhuYr43n5BZh5Tp+AZWqolVT/gEpySnqjhl3FGsTeRX5YuF2JQJ59e+rWYsK1P/4KkWzPetTlF+dInbiXx3P4eNOJ/BJp8OY2XkvZnXZiZENxGfW0eKUPGwRPV0npwkJPMY90pXdWSYk2I/d3VmsWHsQgx//UtW1+4CVyiQCaOhJk5B4PDumJyaNvZtZpjgS4ovCe0vs/oP/+4WH2bdebyu2iJ4mjdH3xKa5D8dXQp2CZkfWZyi/WoacRIjPOgR7/4Yg7x0I9NoLf89DaBgoDl/8BeKmB0uqhU7WiOh/d+0+I55+aH7fd07VdT3L+tn6PGhSEG8Jk06KUi8/+v6O3DD/8PEUZQm0qjEYjEruAM0R4BEVIY40nQtflTQTr/LQklJxXF9OaB1/5e/KpaZ4evaoYDTyFawzprE7c/wEO+eyBWN9HlnZ4lWDuqGOpRxK6BIcP7SfMLqb8hgU6IOH7uOXMbd3+U40pn/7X7+YRC99H/4UUW3fwF9eXap4Tx4jBt3eYZuXpwfm/Xs0sywza/pIInxB1FlTPD17VNAJ3qgSww0EefIndehJszxs8fQ0hVZEfoENvYfEDOqpqceuDPVII4feEjod2/NYufYQbmQXMEs9ovCe5v1XjF7o6ysoEn9Y6PKro2nH6hG74h6dEpWVIUvc26cFHhzSllk1FxPRlxhFp1EYEeXHTzzwFIneBq3SD6AI+iGR2I9omW7MQ51N8si7tGvAndDTEe+7YBl/PsASTsjkVV7P2m+fFS7lOR/+iy5PS54x7T5lbwAPGi19+c9HmVWzMRG91iDucSN8+SE+TcIRQU+eUQNN2BCxeoOVOtp3ONMm9Uf+2ZmqrmEDWrPvUgf10KsEM/A0vz2g8VST61wyPw17zuKdyri7uqBj+A/eGIFda15WdlLWFOguzjkf8cN8+noj6lbPhKOjmEi2yCAO40K9U9mdKX4WZunVij48LACtSRjHY+nqA1azyOiWyJ73z8TWXRYK9Lkg85fuVjy1o9BdX2t/42yjrCJaN4/BC0/1hr+FTL2qwfpMW98eTfDYA6aFHmnoP+7hLsyq+ZiIPk8nnkUP8+G/6ZdIPxEv6ODUip4yVvBHo7POQ8fORtIFvheiO5v6j/pcGbcOGzcH02b85FBSSW2Beua53zmWVVcRNTn7alj65ZM3Ixe6asCDJrvQzr6m8vE7D9706nQ+Su0kX03B7f1zDW/GbbSfa+vnA53RfGnI3705Zh8vy0KqTAzpkEWn0f58LzBcxYmwdPmjZZ8ZwuU7Ov4c/0hXZaKkpFSHM+fTlYQemgtdOfSke5+/nvkE2rWKZS1ieoz4hLujjy4Vqi2iQWe+re1xFu2np8s793RrzCzrdGwTj4G9+XUNKkKLdjz2/DfMcg7HNr+FhHh1GypiOrylJPhUhop++MCyYQrdSNOq7z+4E4WBAT7K3nF7luvs3U9Ps+tGT1rIrFt0vCse21b9lVll0N1/j0/+Bh+9dT+eH9+LtZYx6rmvuZGRM/bTP/1ET6XoiBpE/5eJ6CndAlsjX8cfBx7L2IODmebj73YhwLuCuR56+uzWEcywgqUiBrbSNLEe9v86TdmkYwlREQ1bWDb7SavjbWcV0aCVUz7524PMEjN07FcW9zLYg9r/m6JG9BS6OjB+ymJmmdKbdIbrFj3HLPU4W/Sd2tTH1pUvMesWM+dtwZS/9DFL6qlK0dsCjaZ4mE3DFRjEeettwvin1+aQaLqJYPPXtqvAbJXDQerF1fxRrEEnf1b+d6JVwddW6ByISPAr5k28GV6Lrspj1nIWr9yn7HN3JjRKouNkHvR3EFX4qU5ERUWmPt3Xpiy+moKZ6JOLxcfTBHrxRX+eRORDBUlIlJkk9M8w7/S50N7w3alDmGU7dPmPeoeEOBv39dYiPl+4nd2ZQstPDVIxNJgwmr8uTgW/5EfOiaAOQmfERfUNX5vxU7VVQroTBWwPZqLP1WXBz52v4Hz9LrSoI+jp3YFEwfDrXA7wug0d9qvP9ceSL8bbXCONhmHbSBhmaQmwtkOF+Z2gzNTEx3qoin7omn3zxvwKKJ99bblklD3Qte9/vM4/CYUm7tC6cxLnYSZ6isGNPymlNxaSEJ9f6fNCPjDcQqHPr08B022YkKWplye2vaNMlFiaJKMFGGg4uuabZ7FlxYt3zD76qoIKnheCU7E/9Sg/647HM0/0ZHem0KHDjj1JzHIeE0l0QTttHjTMF1WYldiO2UQeJcGnGQLc+APxMM97sPjst8jgVDCiO+uOpQIHLVQNmtObfKBaMMMGTpxJRWalDSf1woMUkVurUCpxLbbvKZvP6N1V/aqIK8EVPaUdGWPpjPxkHaPuByxK4m95jfclIaCFbdiPkmjg+wHMkEgk1Y7GS8Nf8/NwF5dlCvR5G7F+/PpZl4qAR/iTsRjXVApeIrndaBr48Md5xwvOwsON3yHk685iYOxSZpnj6w20rTQMpyH9N/xqSBKJpBrRNPHnK7HQkAc3jXjwrfH4NxoF8Ys65JSS8VTcrc04U+4qG8tLJJLbj3Ks1aKrj+Gidi9ruoWG/Gvr749SA/+UGU+3fph/cgG54y8D0fF9IHlqxp2zF0EiqfUovrhz8DjFqIyB/NMhgVnmlBo3Y2zjD5lljlFzGfAW19e7nVwtysOE3b8wSyJxHRTRN/MfpFw8jhUchadGnN3m5j4HDzQwP/Ujzv8yll1cjrlnD2Lsrp+RUlhzzpc7kHmVCH4t1qSckcKXuBw3F7hF3p6u52mNlnerBfu8jt6Rt1LuygVfzvorSRjzfz9j73XHNrY4Ayp02glR4ZfbUvgSV8LkqOq1GW/iUB7/DLiOAQko1ot3bXm4BWBP6lrklniYCL4iwZ7emN6mNx5PsK0CjLP47NQ+/P0Yf4/58NgmWNCNnwoqkdQmTESfXnIaC648CJ3RPN2OhgTt/MNQYhBXxvVwi8LfDw/B+TzL+337RSZgUpMO6FVP3X51R1l+8QS+PncYf2RarrcnhS9xBUxET9l841/YlT2XWaYEewQhwUur5OCLoB5/Q8o4/HDBejHD8Ylt8FyTjmgYID42yxHWXjmLr5MOY2e6+rPQpPAltR0z0efpUrH42hPILL3AWkyJ945FsIbWwTL5NhPc4IG0grF465D1ooZh3r4YGtMYXevGol9UA4R6+bJn7ONoVroi8h3k2pLK/x2sIYUvqc2YiZ5C1+zp2r2I5n4J8DBar8qiLe2Hl/a1gMGofp9yufh7hMch3NsP4T7+8Pfg18WnZ++lawtwIT8b29IuKlcyuXcGUviS2gpX9JQ/83/B6nTTumAV6RzYBEU681NQK2M0tsYHh/vjQoHgrGsVUNFT8dNOoNSgRxoROhW7nv/SnYYUvqQ2IhQ9ZU/OAvwv85/MMoVO7HUJbIZ8nfVaWJ5uobhSMAyfn4hGKhHrnYQUvqS2YVH0lDUZr+FI3kpmmdM1sBMKdOpOQPHWxOJi7gjMPhWEa3eA+Kc274o3Wlk+ykgiudOwKnrKF5f7IqtUXMS+Q2B3lOp2wQh19eb93JvgbPYILDrni/NOGoM7E293D/ynwwA8XN+Oah8SSQ1HlehLDAX4KNnyyaFN/drDH6dQalSfbuvnHoNSfUccz0rAmsu+OJ17+71/qzoR+IQIvn0ov0acRHKno0r0lJTiQ1h45SFm8Yn0qo9YryIU68tSXG3FR9MFyXlNsP96INK17kgtcsfVQjfS6dg/CWgLD8Q1w8cd+iPIk1+ZVSKpDagWPaVAn4k5KYNRqL/BWszxdPNG+4AORPgHLCbx2IKHWxA0bsGAMRiT93RDXqlja/mVCfX2xYTEtpjWsrqORJZIbh82ib4cmryTXGR58q6uZzwa+0SSDmI/DMZS1uo40/Y/haxi55xk6qnRYEKjdphIrvr+gtM6JJJahl2ip2zMfB/7cr5llphY76aI8/JFvo4e6WTXf2WCs0RPN/1MaNQWrckYXiJxJewWPYXuyKPr+MUGftmsiiT6tkG4hxYFuuOsxT4cFT1dd6fevXu49cMtJZLaiEOip1wpPqwI/7JW3eGMccTzR3mFwB0ZxPvT8+Rt++/tEX270Ej0jIhDz/B49I1UcYSuRFKLcVj0lFJjIXZmzSbh/kJyzzkFQ0CUVyMS/kfCxy0fubojqsb+akXfp14DDIpuiB4R8WgW5Lrn2kkklXGK6MtJKzmFvUT4ljL4RNT1TEBT/57wdjOSKKCE+P986AyZZOiQiiJ9CvTGYuXrKoo+0NML0b6BiPYLZJtz/NAmpB76RzZUnpNIJOY4VfTlnCvcgb25C5VHZ+CjCUKwewj83f0Q7TEVbet0R4iXD3tWIpHYQpWIvhzq8annpxGAsxgTtQQNfPlHakkkEuvcLIxZFbQJfAhPxqxC39BXSPieyFodpcr6KInEJahST1+Zq8VHcUm7D8lFe3C20L56+GOiviOeXv2RyxKJxJRqFX1FtIY8pQNIKtxOrq3I0anL15eil0gc47aJvjK0Em9m6Xnk6lKVOn25evZIbX0a9Gw5T4peInEE4P8BQYzJa7bulmMAAAAASUVORK5CYII=;" parent="2Z2Zc4ZfPcimmZf8wGZL-11" vertex="1">
          <mxGeometry x="174.88" y="326" width="78.25" height="30" as="geometry" />
        </mxCell>
        <mxCell id="2Z2Zc4ZfPcimmZf8wGZL-43" value="" style="shape=image;verticalLabelPosition=bottom;labelBackgroundColor=default;verticalAlign=top;aspect=fixed;imageAspect=0;image=data:image/png,iVBORw0KGgoAAAANSUhEUgAABLAAAAFvCAYAAABacTKSAAAAAXNSR0IArs4c6QAAIABJREFUeF7snQmcFNW1xr9bPQOILK4M4AZGcUFBBRTEoOBu3I2YmCgD7rgLLrhAIzIqDOCGiguLmkWMiiZGjckjRiUqiCKiuKKiwqCoUZFtuu6jqrt6qquru29Xd3VX9Xz9e+/n0H3vuef+zy1Cf3POuQJ8kQAJ+Efgge92QtXGywD9KCAyFzL2LIR4F61f/BSDB8f8W5iWSYAESIAESIAESIAESIAESIAESKByCIjK2Qp3QgIBIzCr4TxATIWUEQDrALRKeijEF9D1SdhcewCDO/wUMM/pDgmQAAmQAAmQAAmQAAmQAAmQAAkEigAFrECFg85UBIEHG45ARIwH5H4AtMSeUgWs5EblOkB8CCkXQ4gn0Fo8T0GrIk4BN0ECJEACJEACJEACJEACJEACJFBEAhSwigiTppo5gVlfdIOsHgWg1oVEBgErbeQaSDwPTTyNxg1voe3/3sPg7huaOVlunwRIgARIgARIgARIgARIgARIoJkToIDVzA8At18kAjMbRgCoz2JNVcBKNSFEIyTuRmPjZJzd6XNAyCJ5TDMkQAIkQAIkQAIkQAIkQAIkQAIkEBoCFLBCEyo6GjgCUamhy6qTIOUYCLF3Vv8EHoPEvgB28bgPo+H7Z4BYAimfQyMexzk1DR5tcRoJkAAJkAAJkAAJkAAJkAAJkAAJhIoABaxQhYvOBobArIYekOI6QA5W8imC/vi4w6vY/uueqMLJAA6C1LtDiG2V5rsNEngZEnOg478QLd7F0C2/92yLE0mABEiABEiABEiABEiABEiABEggwAQoYAU4OHQtgASmyWpstuom6Bhpa9Ce21FDwDqjZl7awJlfDQAiowBxBIQUkPD6TEpA/A26Ph6f18xHVOi5neIIEiABEiABEiABEiABEiABEiABEggHAa9flsOxO3pJAsUkMGvVMABXQcrd8jabScCyDD2wfCtoLXaHhn4Afg2gD4BI3usYEyQaIMR7gPwPpPwLhnZc7MkOJ5EACZAACZAACZAACZAACZAACZBAQAhQwApIIOhGgAnM+mZ/yNg4CBzuOUMql4Dl3P6sr3YEqo4HcCSk7A5gp7wyvlLtfQCJJyExF7GNS3DO9l8EmDZdIwESIAESIAESIAESIAESIAESIIE0AhSweChIIBMBKQVmNjwAIYzMq8Je+QpYztXuX9kVVeIqCJwBoDXgudTQsLwYuhiPz7d9HFHEeLNhYaHlbBIgARIgARIgARIgARIgARIgAf8JUMDynzFXCBsB43bBnRouhDD6XIkdi+J+oQKW5cS0r1qjdWRXxPSegDgFQhhZYZt59PFHQCyFkPMh5RMYUvN/EEJ6tMVpJEACJEACJEACJEACJEACJEACJOAbAQpYvqGl4dARiM6tQpc9DwDErYDsX1T/iyVgOZ165MN22ND2aGjiWEDuAyF2h0SVN9/FdxD6k4D2LBo3LsbOnT/GQNHozRZnkQAJkAAJkAAJkAAJkAAJkAAJkEDxCFDAKh5LWgozgRnLWgGbzdzU/Pw0X7bhl4DldPaOD1uiXZtLgcglgOxUQN8sw/JK6PIObNRvx7md1jI7y5eTQaMkQAIkQAIkQAIkQAIkQAIkQAIKBChgKUDikAomMHv5Zvi5xZWbxJrzARiCjz+vUglYlvdzZRW++LoLNurdEcGvIMUpALbKa3PSqCaUxv81QsoPIcTb0OXTaNXyb/j91j/kZYuDSYAESIAESIAESIAESIAESIAESKAAAhSwCoDHqSEnMLPhCAgxHlL29n0npRawnBsyGtI/tPIQ6JETIOQBAPYE0M5136ZwZbxM8Srxo/09uQ4C/4Qu5gCNb6Hl90txZs81vjPkAiRAAiRAAiRAAiRAAiRAAiRAAs2WAAWsZhv6ZrzxWV9sDVn9VwD9Skah3AKWc6OnygiOWXkyhHYtgL0TpYYCGcWrhICV/NzQtxIZWrpcCyEfgRaZgC+2/wRRsxE8m8GX7HBxIRIgARIgARIgARIgARIgARKofAIUsCo/xtyhRcC4XbDrqjpIDAXQoaRggiZg2Tf/8NedoGN3xGKDIPBrSLl7/GMrA8shXpl/ND6za1TmWB2QyyHF+5CNzyEmnsBFO39WUs5cjARIgARIgARIgARIgARIgARIoCIJUMCqyLByUykEZssWWLvqV4CcAil2KgudIAtYTiAzV3QH5IloxMEQ2MtsBm+JVW7iVfKztNLDGCDfgJRzAH0e9MZ3cNEeq8vCn4uSAAmQAAmQAAmQAAmQAAmQAAmEmgAFrFCHj87nJPDXr1pjtfZvQPTJOdbPAWESsFI5CDz4VS/o8lpAPxZABFJqySFNjd6bqgYtkcsYlCZ86S8got2ChuX/wZhDYrzZ0M9DR9skQAIkQAIkQAIkQAIkQAIkUDkEKGBVTiy5EzuBGcu2ADa7EUIY5YJtyg4nvAJWE7ppH7dHpMVuiKEvoBu3Gg5ILzM0Vav4HEO8chOz4m9+A2AppHwZuv4XfLf7m4gKvexxogMkQAIkQAIkQAIkQAIkQAIkQAKBJEABK5BhoVOeCUz7qjWqxLGIiImA2NGznWJPrAQBy8lk+optsXHDSZD6kWYjeCm7AqjKKV6l3GyYvOnwY0A+Dch/YiOWYOQenwNmM3i+SIAESIAESIAESIAESIAESIAESAAUsHgIKofAjBVdIDTjdsG9ArepShSw0gStL3fAhvWXQccFkLIlYJQaJgWq1Kbw5j2FNn1K2pKv4u+/D2i3oHHDY1jTYy2zswJ3oukQCZAACZAACZAACZAACZAACZSUAAWskuLmYr4QeOjHDtB/ngzgeABtfVmjUKPNQcCyGE2T1dj4UTcIrQf02EkQONos47Q3gE+5wNAhXiXLDs0ffoKufwSINwE8hp8i/0K0+4ZCw8H5JEACJEACJEACJEACJEACJEAC4SJAAStc8aK3dgJ/ly3R0HAmhLgRQMdAw2lOApYzEBMXbY5WrQ6HxAkAekLK3QFsFs/Osmdh2Xtm2X5OLTn8DsAzgHwWQr6FEfu+x0bwgT75dI4ESIAESIAESIAESIAESIAEikKAAlZRMNJISQlIKTBr5Z5A5CVAblnStb0u1pwFLCezqUvaIFZVCz12BYAdABmBhGhq+O4Ur9zErETWlpRfQ4iz0XXfZzBYxLyGh/NIgARIgARIgARIgARIgARIgASCTYACVrDjQ++cBGZ9sTVk1d0AjgPEZqEBRAErPVRRqaH90h0hsBv02LGAPAkS25kDk5lZtiytZCZWUryy2/wQkPehdfs7ccmu60NzLugoCZAACZAACZAACZAACZAACZCAEgEKWEqYOKjsBB5YvhWqW54BKW8F0LLs/uTrAAWs3MSic6uw5Tb7o1GcAD3WDwJ7QSYy7Oz9s1IEroTY1VSKOBda5HJcs9+i3AtyBAmQAAmQAAmQAAmQAAmQAAmQQFgIUMAKS6Saq59GueCMlXtAi/wTkJ1Ci4EClrfQTXrrWDTiagh5ACQi5s2GztsLnQ3hJdYiIn+JUX0Xxq8+5IsESIAESIAESIAESIAESIAESCDsBChghT2Clez/jG92h2isB4Rxi50W6q1SwCogfFJg4tvbIia7AfqvIOSF0GXbeBP4hFlT1ErpldVo9sa6/oBZBSzMqSRAAiRAAiRAAiRAAiRAAiRAAgEhQAErIIGgGzYC01dsi0hkGKS8FkC7imBDAat4YYzOboEWXS8DcBaAbmZGVkrPLGspuRFC/BbX9328eIvTEgmQAAmQAAmQAAmQAAmQAAmQQDkIUMAqB3Wu6U4gGtWw8wWHQ8fsihGurJ1SwCr+qY8uaYHqH6dBameapYX2DCxjtbiw9T3khh0QHfhT8R2gRRIgARIgARIgARIgARIgARIggVIRoIBVKtJcJzuBWd/2gGy8E5D9AFRXHC4KWP6FdPz8o6HHHgawdVzEStQVJhu/4yMg0gvRvj/45wQtkwAJkAAJkAAJkAAJkAAJkAAJ+EmAApafdGk7N4EZyzpC2/xSSP0KQLTIPSGkIyhg+Ru48a/sA138HRLxRv9N4lX8D0KcizH97/fXCVonARIgARIgARIgARIgARIgARLwiwAFLL/I0m52ArNnR7D24OMh8USzQEUBy/8wT563GX7Ep4DsEBexrEwsCehyNbb9aTtccsx6/x3hCiRAAiRAAiRAAiRAAiRAAiRAAsUmQAGr2ERpLzeBWSv2h9QmAzDKBcN9u2Du3cZHUMBSJVXYuLGvDoTUnwP0FmlZWFJeiXEH1xe2AGeTAAmQAAmQAAmQAAmQAAmQAAmUgwAFrHJQb65rzmz4BYS8FFJc3OwQUMAqXcijL4+ExMSUmwnN1eU83Hhw/9I5wpVIgARIgARIgARIgARIgARIgASKRYACVrFI0k5mAtG5Vdhp999D0+6GxGbNEhUFrNKFPfrX1tC3WBG/yTKlqfuPGDegPYRI1BaWziWuRAIkQAIkQAIkQAIkQAIkQAIkUBgBCliF8ePsXARmrToaUo4HsG+uoRX9OQWs0oY3ajR1j82HlFXJhY2eWDJ2PMYf+tfSOsPVSIAESIAESIAESIAESIAESIAECiVAAatQgpzvTuDhr3dDLHY1IM4A0CQiNFdeFLBKH/nrX/wvBPqmNHMHnsP4gUeX3hmuSAIkQAIkQAIkQAIkQAIkQAIkUAgBCliF0OPcdAJRWYWdGkZCiDoAPF8WIQpYpX9abvj3FZCYlGzmbnhgZGFt2LoN6nuuKb1DXJEESIAESIAESIAESIAESIAESMArAQoMXslxXjqBhxpOho5xAPageOXAQwGr9E/MyOc7oGWLr8w7IC3xylCzYmIf3DpoUekd4ookQAIkQAIkQAIkQAIkQAIkQAJeCVDA8kqO8+IEpBSYvqoHNIyGwMnEkoEABazyHI3r/u9FSAxoErAMaVWchrpBs8vjEFclARIgARIgARIgARIgARIgARLwQoAClhdqnBMnME1Wo+XXYwB5HZHkIEABqzxH5Nr/GwXIungZoam4GgrWPbj50OHlcYirkgAJkAAJkAAJkAAJkAAJkAAJeCFAAcsLteY+Z7aMYO3XQwA5ChK7NHccSvungKWEqeiDrvnnYRDihbh2ZYhXxk2EchluPWLnoq9FgyRAAiRAAiRAAiRAAiRAAiRAAr4RoIDlG9oKNTxjZV8IMRoAb3LLJ8QUsPKhVbyx18ztAqEvaxKvEqarZTfcdMSHxVuIlkiABEiABEiABEiABEiABEiABPwkQAHLT7qVZHv2qjb4GVMg5FmQvF0w79BSwMobWVEmRKMa1h/0LXTZPmlP6kYi1iWYeOSdRVmDRkiABEiABEiABEiABEiABEiABHwnQAHLd8QVsMD0lZcjIi6FxE4VsJvybIECVnm4G6te888JkPJKRxbW45h45K/L5xRXJgESIAESIAESIAESIAESIAESyIcABax8aDWnsUbmStcLDwb08ZDo15y27steKWD5glXJ6JX/2BUalkJKramZOxZj4pE9lOZzEAmQAAmQAAmQAAmQAAmQAAmQQNkJUMAqewgC6MCMZa2A1o9A4JQAehdOlyhglTduVz63AhAdTSfizdx/xsSj2kCI5P2E5XWQq5MACZAACZAACZAACZAACZAACWQjQAGL56OJwLQF1Wi5/VWAuBhADdEUkQAFrCLC9GDqqn+8BKkfFM/AMm4iBCDEsag/6hkP1jiFBEiABEiABEiABEiABEiABEigxAQoYJUYeCCXmyur8OmqgRCYAGCfQPoYdqcoYJU3giOfnwrI4UnxKq5kPYtJxxxTXse4OgmQAAmQAAmQAAmQAAmQAAmQgAoBClgqlCp5zDRZjRarboPA8EreZtn3RgGrvCEY+dwJgJyTkoFllBJGqtqg/sg15XWOq5MACZAACZAACZAACZAACZAACeQiQAErF6FK/vwP32+JjeueA8T+lbzNQOyNAlZ5w3DVy20R+3E1pKw2HYn3wQL0SE/cfvTb5XWOq5MACZAACZAACZAACZAACZAACeQiQAErF6FK/XxWQw9A/gtSbFOpWwzUvihglT8cI555EVIMSIpXZh8s/TRMOX52+Z2jByRAAiRAAiRAAiRAAiRAAiRAAtkIUMBqjufjT2s6Y/1PRtbJ1s1x+2XZMwWssmBPWfSKZ0dB6nXJPlhmFhbuwe3HsXy2/NGhByRAAiRAAiRAAiRAAiRAAiSQlQAFrOZ2QKQUmLVqIZu1lzjwFLBKDNxlucv/dhgkXjA/sUoIgU9w+/G/KL9zzcSDWV93w47bfIKBorGZ7JjbJAESIAESIAESIAESIAESKBIBClhFAhkKM3d82BLt2v0JwEmh8LeSnKSAVf5oXvZsFyC2LKWE0PRqQzfc8esPy+9gBXvw0Ld7Qd94NYDfA1gF4DkA/0BV1Zv46O0PEB1IQauCw8+tkQAJkAAJkAAJkAAJkEAxCFDAKgbFsNiY9c1JkLEnwuJuRflJAav84YxGNXzX+ztAb2feRhgvIQSgX4w7T7qr/A5WoAezl2+GtS0vh5RjAVS571CsBPSpiEWmY833q3HJrusrkAS3RAIkQAIkQAIkQAIkQAIkUCABClgFAgzN9Ae/bouIXALIHULjcyU5SgErGNG89K/1kHJEk3hluCX/gjtPPDUYDlaQFzNWDIcQIwHRVW1XcgMgPgPEUkj5GKqrnsLvt/5BbS5HkQAJkAAJkAAJkAAJkAAJVDoBCliVHmFrfzNX3QTI65rLdgO3TwpYwQjJhc90g9a41Lh/0HTIyMKScjGmntQjGA5WgBczv+4Fod8CicMAxABEPO5qLYSYC+BZCH0+YmsXYWjXdR5tcRoJkAAJkAAJkAAJkAAJkEDICVDACnkA1dw3G7d/AIld1MZzVNEJUMAqOlLPBi9+agWk7NgkYOFndFjUFtGo7tkmJwIzlrWC2PxmQF7WhEMfBmANpBgJgb0ArQUgvQpaOgQehC7vBGo+xGfYgKhgzHj2SIAESIAESIAESIAESKCZEKCA1RwC/VDDkdDxbDLrpDnsOWh7pIAVnIhc/NRL0PWDkg4ZWVgCx2HqyX8LjpMh82TGynMgxLUAuqR4HtE644xtVwBS4I+rOmAdfoEIDoeUvwHE7h53qUOIryDxEaT8O7TIHzFkmy892uI0EiABEiABEiABEiABEiCBkBCggBWSQHl2Myo1dF21CNLIfuCrbAQoYJUNfdrCF82ZCimHm++bjdzNZu7P4e5Tjg6OkyHwRG76u2XWqn4QuBESg1w8fhe1Nd1ddyKNrNBv94SIHQuJXwJyXwh0gkyUdua9fTEfMvZ3aNrLqI69hdM7f5O3CU4gARIgARIgARIgARIgARIINAEKWIEOTxGce+CrnVAV+bQIlmiiEAIUsAqhV9y5Fz5xAiTmxI0aPbAS/9385zaoP3NNcRerUGsPrdwcMjIFUj8n8w7lXajteLEygUdW90Vj4wgARwGiJSCrleemD3wBMdRjnZiHr5esQ3RgYwG2OJUESIAESIAESIAESIAESCAABChgBSAIvrowfeUgCPwrZQ3BsPvK3M04BaySI8+44LCn2qJV42oA1aZ4ZTZyN0Y37oNpv1kUHEcD6Mls2QI/rzJ6XF0CYLvsHorTUNthdt67eGR1O2yM7YwqfX/o2umA7A+JqrztxCesBsQngP4yYvofcVbnBR7tcBoJkAAJkAAJkAAJkAAJkECZCVDJKHMAfF9+RsMVgJzkug6FLN/xJxeggFU61iorXfD4vwEc3CReGR3iYqfh3tPyF1xU1quEMTO+PByoikLgQKXt6I29MGy7hUpjsw168OvOqJJHQeqHQ4p9Aey6qWxR82ZXGtmofwPEv6HJhTiz4zJvdjiLBEiABEiABEiABEiABEig1AQoYJWaeKnXm7HCaEz9K6NLdc4XBa2ciDwPoIDlGZ0vEy94fBSkrItnXhkv3cjCugf3DY73xuKricD0FdtCi8wA5K+UsQgjZ2rd1vjdTt8pz1EdOP3LHYCqS6HhdwC2BNBSdWraOIEPoMt6rG31F2zTfg0Giw2ebXEiCZAACZAACZAACZAACZCArwQUVA1f16dxPwnMlVVYtvJbAG3NZdKirRB+ilrFiRAFrOJwLJaVcx4/DJp8IV47aJUQ4hPcN/gXxVqiIuzMXDUOUp4DgZq89iOxEENreuU1J9/BM5a1gtZmR0DsATT+FlIcC2DzfM0kxv8MwMjGehNCPooza56BEEl506NNTiMBEiABEiABEiABEiABEigiAQUFo4ir0VRpCTzY0A9Cn5e2qGvUFY4CxSzv8aOA5Z2dHzPPf7ILZOOy+C2EiZfx88bGbpj5uw/9WDI0NqNzq9Blr2OA2C1xccjLS1yE2g5Tvcz0PGfqqjbYXB8EiKMA2QcQPQC08GjvR0A8A6m/AE0swLJvliLandlZHmFyGgmQAAmQAAmQAAmQAAkUg4CCalGMZWijLASmf3UdgJvUygedHiocDQpa6mGlgKXOqhQjo1ENX3X/FpDtzeXMRu6GmCUuwgOnlVZ4KcV+VdaQUuDpb9rg29jTEOIQlSkZxuiIaVvgrG1/LMBG4VNnL2mBNVufB4HhgNgpUWrotXfWN9AxDWLtXQC+R22X9czQKjxEtEACJEACJEACJEACJEAC+RBQUCnyMcexgSLw4Jd/hTDLahwvhbCz3LC4oaSAVVyexbB23mMToesjkwKW8YMu/4Lpvz21GOZDZWPaV63RIjIOwFkQiIt6nl/yc9R2NASjYLxmywh++rYzsNFo/n48gNMBbOvNORED9M82lSsugKZPQG3nN7zZ4SwSIAESIAESIAESIAESIIF8CSgoGfma5PjAEHjwqyUA9kz640mUctuNwrFhdlYqOApYgXksko6c95ddEYu9D8j4gY6XE76NB3/bM3jO+uTRDNkK+Po4CFkHYJeirCLlixjasZAMrqK4kdmIFJi+qh80eTSkcaOi3BcQRjP4/F8CsyG0WzCkw5v5T+YMEiABEiABEiABEiABEiCBfAgoKBH5mOPYwBCISg07rDBKeFpn9alUolZzF7QoYAXm0Uhx5Kw/r4BAx6YSQqzBjh+0QzSqB9PhIno169sdITc+CqBvEa0aSuBdqO14cXFt+mjN+LtypwbjptaRkPp+0EQrSFmVx4obADEUm9c8isFGhhZfJEACJEACJEACJEACJEACfhCggOUH1SDYfPCrIwD5fKorCuH23ODduWmVtRTGBIFlMXyggFUMisW3cdafXgJwULKZu5GFpWnH4sHfPlP8xQJi8YHlWyHS4jYInACgXdG9EjgZQ2qeLLrdUhj84w/bYOOanSG1Q6Drvwewt/KyQt6L2k7D2RtLmRgHkgAJkAAJkAAJkAAJkEBeBJqRgpAXl/APfuCL2RAiSy8fhdCXKjvLoF3pGVoUsIL5TJ31h7shxQWmc2Yjd+Msymcx4/fHBNPhAryaK6vwacOZmzp9jYYwm5r78WrETxs74qLtV/thvOQ27/uiGyJVxwD6wRBiPwA75vDhHgzrNLzkfnJBEiABEiABEiABEiABEmgGBBRUjGZAodK2GF3SAtu3/xlAxNyakjikcBQoaHk/KRSwvLPzc+ZZfzwREk8mxStTwQIQ09vg4TPX+Ll0yWwbJXLbrdgNmnwBQtsOxnMsPF7Gl8tpIRZgSIc+uYaF83MpcP+XByCi3bXpzPSEgHuZoZRn46zO0w0lNJz7pNckQAIkQAIkQAIkQAIkEEwCCqpFMB2nV1kIzFi+K2Lig4wjfBO0TLUsd2g8CWEKdnOvXL4RFLDKxz7bysOeagv502pIWW0OizdyB6TeEw8NeTuYTufh1dQlbVDd9n5o4jhAbG4KV8bzb/1/HqYUh05Abc3VimPDOWyarEakYQA0/TFIuDR/F42Q+v44ezs2dg9nhOk1CZAACZAACZAACZBAQAmEXBUIKNVyu3Xf50dC055TcoNilhKmggdRwCoYoW8Gah95EcCApiwsU8gajIfPfMy3Nf02PO3j9pDiTAhtPIRoawrLWkK8Mn82RCwfsrBE5EQM2eYpv7cXCPt3f7YlWlYbf8/un+6PfBrDOp/IfliBiBSdIAESIAESIAESIAESqBACFLAqJJAp27j/82sB44urx835JmopOOS5ibyCbY84ijKNAlZRMPpipPbhayExPl49aFV9ybvx0JALfVnPT6OzZ0fwba+doYt/QKBLPNPKkXXlfK+Y/kjZA0M7Li6myUDbmrFsC+gtlgDonOankIdi2Pb/F2j/6RwJkAAJkAAJkAAJkAAJhIhAwL/1h4hkkFy9f/k/ARzqWs7nJeIUtAqPLgWswhn6ZeHMPxwG6C+Y4lWTiPUxHh6yi19L+mJ3yntdUBW5HQLHQGhVZsaV8UoRsLR49pWhbvtRSthatMXgDj/5sr+gGr3/s8OhVf0j3T3xOM7q/Ouguk2/SIAESIAESIAESIAESCBsBLzIGWHbY/Pyd/LyzdBWfgOI1k0bdwmzl8j7JmSZ37JzxynMvbMoYOWOb7lGnPFQVwh8khSvkiJWZFc8csZH5XJLed3JS7ZCRBsG4FoIbct4eaDxsCTEKvNnq4TQKWgVsZRQyhcxtOMhyn5XysDo3Crs0O1FSHlg6pbEZzh7uy6Vsk3ugwRIgARIgARIgARIgATKTUBBNSi3i1w/LwLTPh0ITXMpW3GG2vFnryfBN1FLwaEwlRtSwMrrGJd0cDSq4eOdv4OU7eLrWplYuAh/qJ1aUl/yWezU2REcuMcvIcWj0LQOcdHK1usqmWFllBBmEK7s7+eztttYGTsTQzs/XKiZUM5/4KudAPkJIFMbi/28tgMu2fXrUO6JTpMACZAACZAACZAACZBAwAgoqAQB85juZCdw3+fjAFyfNkgpe6lUopbCsfMsTjl3rrKWwphCzx0FrEIJ+jv/jIfqIeWIplsIpZHF9Bf8ofZUfxf2aP3WRbtBk/d8vvgNAAAgAElEQVRDaAdAaC1M8crKvDJ/NnSURCZWys9W+aCjlNAqN/ToDgQ2YF2HLXGe+NmridDPe+CLjwHsnLIPKc/DOTvcF/q9cQMkQAIkQAIkQAIkQAIkEAACJfjmHoBdNicX7v/8WUgclXHLSsIQSw6LfmQoYBUdaVENnjmrG2Jyqan6SKOG0MzCWow/DetR1HUKNVb32tbQIpdBi1wOITZv6mNlNWpP/DcpZiWErGRZYY4MLe/+fYzamnD1DPO+V/eZ9y9/ERADHB+Owznbjy72UrRHAiRAAiRAAiRAAiRAAs2RAAWsSov6/cuXQsrdlLdFQSs7KqUSSQXaFLAUIJV5yO9mrIBEx7h4ZTbCWoPdlrdDNKqX2TNg2oJqrJaHA/JpaJGI6Y+RNZVSJpgoFUx7396w3a2c0HFLobfNvoDamiO8Ta2QWfd/8VdAHpu6Gzke5+yYnhFbIVvmNkiABEiABEiABEiABEiglAQoYJWStt9rzZVV+PBz4wawlvGlPIY3UOWGivtQ8tkRACXxziVoXkQtClh+n/7C7Z8+42VA9jfFK1O/MhKxxHF4dNjfCjdegIW6V/dETE6D0PpCiKp4qaAj48oqG0wRtGxlhfbeWObPVqN3S9wqWMSagNqaqwvYZfin3v/5HAAnpGxERx3O2/G68G+OOyABEiABEiABEiABEiCB8hPwqHCU33F64ELg3k9PhhCPu2tXHkOdUxhiuaHSWaSApYSprIN++6DRsH14k3hlqljP4tGzjymLX9G5XYAWF0OIy6GZylRCeHJkXiUFrUSjdquflSFy2ftiJUWvDKKVuUTCdr4b1nEUhtU8n++0ihp/n4uAJSlgVVSMuRkSIAESIAESIAESIIGyEvCoapTVZy6eicB9y56BFIkv2yoN2T2EXylrKeiilsK+lfbpEohM2VkUsIL/3J4+/QTo0siisUoI4/9t2bINHj5zTck2EF3SAo3fHQtNnwmItmapoJsQlVIq6MjKytrQ3RK6itbQvRGtN7TD4B3WloxREBeigBXEqNAnEiABEiABEiABEiCBCiKg8E2+gnZbyVuZ9lVryPXfA6La3GbOzCnFMSrMVNZyOuT15CmV7ykYV/LZsXlPcxKTKGCpnKTyjhn2YFv8jNWQsrrpNkIAOnri8XPeLolz1889BLqcBE3bL6W/lb0pu1Um6FZKmDbOURpoZlglBKxkuaHz1kJL2FJ4juJQXkJtjbN5eUlwBWoRVwFLr8N5XVhCGKhA0RkSIAESIAESIAESIIGwElD+hhLWDTYbv6d+ugcieDdtvyqii8oYFZBKdlQywxQWC5SQ5aoYpm6iSvTHGTXzFHbGIeUkMPiBFwEZF2PMywjNflin4fFzZ/vq1jXP7QKpjYQmhkJEWsRL+QyhKZFZZQlTZnlgogTQnoGVqXG7NT5F7LI3dbdnblk/2wQulU0LRDGkZqzK0Ioec99n6T2wpKSAVdFB5+ZIgARIgARIgARIgARKSYACVilp+7nW3R//Clokd7NpldI4lTEqe1Gy00zKDSlgqZyY8o8ZfP+1kBgfF7CsTu763fjL+Rf64tzFf2+JVpFzATEZmqhqyrpKZEW5NmW3ZVGlZWHZ+2BlaOKeYtMlG8vZKyvXxoU4BkM6PJtrWMV/bghY0tHEHRSwKj7u3CAJkAAJkAAJkAAJkEDJCFDAKhlqnxe6d5mRATE6fRWFEKtkTqmMUdmikp0KzNKq0piBpXI+yj1m8H2HQccLSTfiGVgf44nzdim6ayP+fjQkJkETu0EILZltlSwRdGvWbs+esvfGctxKmJZxlfjceN/M4ErMtWdzGRu0MrnsDeNzbVzG9sDQzktzDav4z+9bNgdSpN9CeAFLCCs+9twgCZAACZAACZAACZBASQgoqBsl8YOLFErg3k9fAuRB2c0ohFtFYFIZo7IfJTulErO8sDE2qThPav0xjCWEKseirGN+c08XNEaWmT7Exav4qxq74NHzPi6Kbxc+3R1VuA5C+w2EEE0N2m2ClVt5oCkq2YQoeyaVdfNgWilhIlsrU4mhvQ9WtlsKM298PVpv2LLZN3A3+Ny7bA7gELCMWwgpYBXlsaEREiABEiABEiABEiABElD49k1IgScwbUFr6Fv/ACCS9FUpsgqDVEQmlTEqEJXslErQykOcStlbJqYUsFSOQNnHRKMaFnf+FpDtk+KV1A016yI8OXxqQf6d+9fWaBG7BELcnCwVtGdKORuwW9lSztsGM/W1SopYkUTvLKuE0JGdlauE0LLjzNJy27yQT2FIxxML4lIpk10FLL0OF+zMJu6VEmPugwRIgARIgARIgARIoKwEFBSMsvrHxVUI3LvsKEjp6EHjRehROA4qfa1UxqjsS8lO0HtoWUIYBSyVkAdizMnT6gGMMNOvrCwsgb/gyQtO9eZfVMN5e58KTY6D0HY1xatMDdjN960+VolyP2f2VFLosjVgVxW5LFHK2VsrJRPLWNdWnmhlfrltXmrHY+i2f/XGpcJmmQKWoweW0cSdAlaFBZrbIQESIAESIAESIAESKBcBBcWiXK5xXWUC934yARJXuo/3KvAoHA2VjCmVMSobVbLjRbRzWbwYNxym+RthCaFKnIMw5pR7d4WO9wEZj2L8NsK38dTwnnm7d9Yf9kdV9bWAdoKhCWXtc5UmajkarKf0p7L3v7L6YrmVILq8Zy9FdApX2coI05+LtVjfoT3OExvz5lKJEyhgVWJUuScSIAESIAESIAESIIEAEVBQKQLkLV1xJ3DPJ0bT6cPU8fgkaqlkTKmMUdmIkh2v+3Q4UBRBiwKWSlgDM+ake1ZAomNcwDIysfQ12O+bdohGjXrC3K+LH2mHnyM3QIjLIUQk3ufK3pQ9ITplysRKZmm53SqYoa9VWsmhs1+WS6N314buicyvTI3ek7uXS1HbcY/cMJrJiHtcMrCMWwiZgdVMDgC3SQIkQAIkQAIkQAIk4DcBClh+Ey6F/Xs+/ggSvzCXUhJb3Jzykr2kcHxUhCaVMSocg5ylJShgqYQwMGNOuudlSNk/kX0Vd0tEfoWnzv97Th+HPHwBhLgGmrZjU68reyaUQ8yy975y9sEyhSzneDOVK/6sp31mz8bKJGDZbiHMVUqYIrol7DUBeBa1Ncfk5NFcBtzzSXoJIYwm7uyB1VyOAPdJAiRAAiRAAiRAAiTgLwEFBcJfB2i9QAJTl7SB1mo1JFqkWKKQ5QDrPOolzs6igFXgQS/x9BPvvhtSXmCuat1EqMu/428X/SqjJ6fPHICIGAOhDYQmhKt45ZpZZbScSpQEmuV9bgKXLXvKtQeWo4wwpaG7vaeWVXpo67WVdhOho3TR/NyRPWYKeohiSM3YEkcmuMtRwApubOgZCZAACZAACZAACZBARRCggBX2MN792e8hGx82Gz/nenkStbwKPQoOqWRMqYzJuW+3ASUWtAT6Y9h283K5ys8DQuDEu0+ELp+MC1iWggVg/do2+MeVa2xeCvzujraQm98OaLVpQlRSSDKEIyNzKiEORawyvRwN3Y3xKeKWXUhy9sGyMq6c4pS9MXwieyspkiXsm3832HxJCmnG+xkausvYAAzt/FJAIlZ+N9wELKnXYfguvIWw/NGhByRAAiRAAiRAAiRAAhVAQEFlqIBdVvIWpn70bwAHx68uS/lanXvXngQt8xt4/mupKGwqpYQqY3LvPG0LCWXBMdPLPl0WNzNYKGCphCUwY46+ox2qI99AyuqkT4aQpUV64unhb5vvRaMa3t3ucmhiBITolMxSsmdIZe1x5ZLZlDLeyqqy3zbonGMTl0yBLENvLdfMLqeYZV/PIWg5m71r2k/Y7JutMbj7hsDErNyO3PPRHEhxQqobkgJWuePC9UmABEiABEiABEiABCqGAAWsMIdy6qo2wI//A2QitcPajAfhJfBilkommMfjrJTl5YGp/WxpghlYYXvWjr/rRUgMSGZgxROxBmPN6iexTadBkLgRmnZAvOTPLhzZSvAyiVlmg/QMtwwmywyz2LUarNvXzShSWVlWCtlbaeWE9tJEu7/acxhac3TYQuqrv1M/mgNBActXxjROAiRAAiRAAiRAAiTQrAl4/MZfYmbRJS2whRyIRv0zjOyxtMSrB3e5O9/bG1p1PBsk68uD+BJ4QcvYsMq+PBxxpSwvFUHNFhQKWLkOafA+P+6uazdlYI1P9sAyMrAEpqO6ug0EBpulfUkByaWpukomllXKZ+zeWSqYvFXQ2d/KLTvKXk6YqWG8vc9WvmKWI/NLiqtwVqeJwQtaGT0yBCw4BCzBDKwyRoRLkwAJkAAJkAAJkAAJVBgBD9/uS0zg9jd3hd7iQQD9IMRduGzPy0vsQXCXu+vDEyBg3Hxle6mENE/xxbLuSdTyuJankkOVtVT4uIS80CwtCljBfY4yeXbMbYdDRP6RyMCKQcPPENpm0LSqphsA7cKVW/mes/wvwxh7/ylnBpbbLYTOzCt7c3i7sOZsvp7xswwCWMZbCnE4hm33z/AF1UePTQELqSWEAiwh9BE5TZMACZAACZAACZAACTQvAh6/zZcA0m1LdoTExYC4wlYi9w3+t6oTogMbS+BB8Je468NbAFxtOqqUNeS2JZUsJsc8T0KWi5NKp09hkMrelQQohZAr2XFhSgFLAW7Ahhx3Z1fE5CeQWAexqWBQE5ulZVyllPLZGqK7ilAu4pWzFDBtnuP2P1OASinlS9xaaMvScr2l0HaLoTXfzPBy3Ero7KOV7KmVyPqy/GuM7YLzdvw4YBErrztTP3TJwKKAVd6gcHUSIAESIAESIAESIIFKIqCgDpR4u3d82BKN648AxMMA2qesbngbE10wcs/PSuxVMJeb+tHrkLJPRueUxBbnbJUsJpcVPYlaHtcKXXaWACLsgRXMhyiLV9GoJv671adS6DskhatIot2cPSsqpVTQuMkvm5jkFLkcpXlpTd8TYpWrKOXS0N0UmBK3CSo1dHeIYdZ8c66t5NASrkwdWluPXbZrg4GCv0iwHx9TwHLLwNqVtxCG7uGnwyRAAiRAAiRAAiRAAkEkECwBq37JQdD02wGxnzssYVxpPwgj9pobRJgl9enuz7aEvn4VgKqmdRXCGTZRS2FLGdLPUsPhKUvL/Laef1jdpkQibOKeP8myz9COnDJJN7JAzQSkhDCUIibZBSubeGTPckpp8O6WheUQvYox3l466CxBTGZ92XtlOW8wdDSYN31KZnE9hHO2H1L24ATNgbtcBCygDhdRwApaqOgPCZAACZAACZAACZBAOAl4+Hbuw0anfLAzsH4kpBgKoFXWFSRGYMRek33wIlwmjf5XkI7+V9YWFMIaNiFLWUsq0t498XE5QpYdGemPc7ebF65DRm9x6F3dRKRxqRQQycwqZ8aVJe5Y79v/a/W2sjdkN8v0rKbtiZ/dbhVMaRCfEI+SdtxKC90yv7I0dE+KbAnxKil0JXyzMrhSxCvjlwjiYJy/4394OhwEKGDxSJAACZAACZAACZAACZCArwQUvu37uH50WSu0+18tZOQOANXmSjkzZcSzuKL7MT56FQ7Td3xwOwQuUUsQUghzTu6ZsLj0e8pFsFmWG1LAynUsgvq5OGLyCgito7SysFLK9Jy3BzozslxuKswlVuXd0N2ZLWVvyG5vIu8ieplrZSlFNHxNjjEB/ITzu7QNaqzK6tdd76f3wIJgBlZZg8LFSYAESIAESIAESIAEKomAgrLh03Ynvn0YNBjC1W7xTsLWK1dfJLEG24utMLj7Bp88C4fZOz+YC8hDXBU/pagqDPKUhZQrfhnwFkPUUtiSUkmgipinMiZlqxSwwvFgpXspDp/8MoToL5P9oWyiVUqWlL08MFOvK8f7uW4ctNa0yvfSbiS0ZV2ZY5z2bX2sMt5m6NLrKuPtg2Ixzu/aI6yx9NVvCli+4qVxEiABEiABEiABEiABElD6yl9UTFPe2AON1ddC4PQU4UpFELDGCAzE5Xv/u6h+hc3YnUs/BcROqW57FI9U0riKIWapnDZPQpZBwUMmmKd9q67l3CwFrLA9Ypa/2mGTp0qB4dA0SONNt1JBu+Dj/Fz1RsKUWwFdemW5No7PVlqYIRMrxZ9sJYaJ7KzUhu5P4oKuJ4c1lr76fcf7cyDECSlrCGZg+cqcxkmABEiABEiABEiABJoVARVJoThAJi7aHEKeD4j6ImTBjMeIva8vjmMhtDJ1SRvEqv6XmrnmVn4ZcEHLRQtyjYYnUavMe09bXvbHuV3YAyuEj1vk0PoTdSGeNJq4S/OWQFtDd2fGU9qNhPZ+V+bE1FsCkzcGZsjYMgUzexaV42e3PlnJGwPt5YH22wztpYSWyGXty/izW0P3RJkh5FUYvsvEEIbRf5dNAcvlFsKLduMthP7T5wokQAIkQAIkQAIkQALNgID/ApaUApMWnQSJmwHRzWSqkm3lBj85T/wDI/Y+shnEx32Ld7x3HiDuTf9QJQtJZYzTssIx8RpTL5lTngQtl4OnsK0iiK1xmIICVmif1/63ttVaVX0rNVFl3kRoCllW6Z6j51Wy5M/KoHK5YdA1kypxw2E2QSrldkJH36uU8kCXksCUmxNzZG1lKkU010dvDN/ljdDG0k/HDQELDgHLuIXwEgpYfmKnbRIgARIgARIgARIggeZDQOkrvGccty7uDS02CoCt5ERFQMnp1scY2WMXz36FfeLtS18H0Ce5DZXyPk9jsqqImSmqrJU2W+VcOCaFSciigBXqpy5y6KT/6AK/zClgJTO0bOV7KSWFNvEoebtfpn5ZLmWEbj2xsjV9T+md5WzobhfB7H45MrSaRLnV2HaXGgwWsVAH0y/nb1+anoEFWYdL9mAGll/MaZcESIAESIAESIAESKBZEcipFHmicceH7bDu56sh5FUAqrLbUCn1ShvTiK3btsXQrus8+RfmSdM+bo91G7/PugWVbCjPY5wrKxwhlbVcN1QqUUvlDBYo5gmwhDDEz502aNJ1ELjJzLwyXkY/LNvPyb5Yzgwse0ZVMgvK0ZvKFL0UxKpiNnRP68tlv23Q4U+y7FE8gQu7nRLiMPrruiFgOTOwBAUsf6HTOgmQAAmQAAmQAAmQQHMioKA+5IljwqKzAWn0p3I0GE/YUVpRQbiQOBtX9nwwT+/CP3zKB/tA09/MeyMqWVGexhQo7CSnqxwMj0KTp0wtj2tlagyvUcDK+8wGaELVofWH6xL/iItW8bJA81ZC44+WAJXWvN0Squw9sxw3FRoZUinliM7+VIm5ViaVm/CUdhNiJkEsQ1N3u4CWzApLZGullkpehIt2mxqgsATLFQpYwYoHvSEBEiABEiABEiABEqg4AiqqgdqmJ7zZH8AYAIfF0wlyvHKPyH6znMDrGNHzgFzLVNznty05FUKbHd+XEsRUBCrZUJ7HOGkr+KeylmsQFUTONHcU/CnWWs7YUMAK96N4xMSuWqP4xAhrXLiK96ySpp5l73eVqWm7vWeW8+Y/txsH7U3VE6JZVvHKMT5FiHIRo1JKC11KBp1rmePlIbhkjxfDHUgfvaeA5SNcmiYBEiABEiABEiABEiABTwqIA1t0WSts9t14AFckP3HVr3KIB0ragmNQlb4lLt83ezldpUX59ndvg8Slcf3KCU0JIgUti4CCzup+fDyIZ5pgCWGYn8VoVNP+0/Y7QLaLi1hN2UymiGX1vkpmM9lv/bMJXBnLAJ19sJwilzOrKlsTd6shvOVDQlQzfU4IXZafVv+sZGaZU8yyjZf6Tris++dhDqOvvt/+7hxAnJCyhjCauLMHlq/caZwESIAESIAESIAESKDZEPCgeNjYTHytK2LVz0CI3QCZ+JaUgZ0XsSWXd1L0wlU9FzabaBkbnfLu2xDY23XPXoRDN0MqWVGexzgXzBVkt0QzhTlu2WlK01QGKezBaaY5C1jRTX83RIUe9udUG1Q/GcDlxj7stxCaGVlp5YPO2wcTApXr7YXO0j7HjYSuZYZOgcx286CzJDDlz85m7ZlKFNOaun+Lzu90wODBbOCe6SBPede9iftl3dnEPewPP/0nARIgARIgARIgARIIBAEv39bjjt+6sDek/mdA/CK5E5WMFq8ii5unQpyOkT3/FAiSpXDitsU1QNVXOcVCwxcvgqGSmOUSiLS3VMYoLZY+SGWttFke/VE5z7nWspZuzgLWzJV/Q23HY0vxiPi5RsuBt+22UTS+Z0qqwuiB1dTbKq2U0DXTKlcmllvfKZdMLGOThihlz5pyzaCyRLSMtwoCyVJC+xinH+bvJu7CFXtd7Cff0NumgBX6EHIDJEACJEACJEACJEACwSbgTcAybhlc88M7ENgh6/ZUBIBCBC0p78NV+54XbMRF9O62xadBan9WaTGWrqu4KoD5O+c588pD2Z1Kjy8Vf1x36cEflfOcaa1IMy4hnLlyPTphKxzZcU3+By5YM7RB9SsB1BheKTd0TynTM8QnZ4lfoseV9X7y1j9bP62URu0ZmrRb5YFWxpa1rvOGQ7s/1mfZhCzzUYnshxHd8788Iljh89cbClj+8qV1EiABEiABEiABEiCBZk8gfwGr7rWtEal+A1K63zKYC6mKCKCePfQJrtqnKQMs19ph//y29+6F1NMFOxWmbntX55ydnEpWlKcxrk7njqLKWukKX7pdladDlX1Ea749sGY2xAD9t6jtlLh8IHcIgzoiMmjSyxLSuLDCfKWUErqWB9qzrmz9pNJuHnTrmeXIvkK2GwudZYfOEkZ7SaBL03jXWw6Tc77FFXtvAyFkUOMSCL+mLJkDIL0HFksIAxEeOkECJEACJEACJEACJBB+Aipf0VN3efOCeggxoihbV/nyn0tkiWm/wKgenxTFn6AbmfLufwD5y6xuqjB1GvCaBZdmJ+cbLtcGeCzv85SdpXLcPfqTi3tzF7AkHsbQmtqgP2K5/NMGTbobkBckx1kN3Y1jY7+VMJllZYhFLuKUVWKYFLLyEKfcygXtfa5Mm243HTpKCZN9u4xMrww3IcbfX4gre/bKxabZfz55SXoPLKOJOwWsZn80CIAESIAESIAESIAESKA4BFS+0TetdMuCgyDlS2kqRK4v76q+qthxjtHF+bhmn2mqS4R63JQlyyGxvf3Lc879qDB1M5JLOMy5cGKASjZUrjFKp1RhUDnLDZu7gAUsQm3NfqrHJqjjIoMmniQhnrD759rQ3Rhg9alKKf+zC0XOmwct4SnLjYTJhu6OGwaz9sSyN2p33EJo+mbvp+UUv0zRazau3Oe0oMYkMH4ZApYzAwuowxVs4h6YGNEREiABEiABEiABEiCBUBNQ+NZv29/Nr/8LUgxKT35xy1rJz3RGirkFmD/j6v1+G+ooqDg/fnENNhNfGV9tm4b7lC2kJGgZgzzEWEVE8jzG6biCf7nEM9fYeOAuI/1xYZd5KqGuuDFmCSHWYkiHdhAhv43w6Dvaaes3rAZQlVHEylRK6OxRZb+90PzZ0Ug9rcwwIX45byV0zs12C2HGGwndbCf9uQhX7Tu14s5lsTc0+R0XAUvW4Yq9eQthsVnTHgmQAAmQAAmQAAmQQLMkoPANP8GlfuFO2BBbCqBVkpTKl//cApQa+Ix25EJc3avyy1smLx4BiPrMsErYlDxI2VnKOprCUVc5z2kBUBSzpOyPC3dpzgKWBiF+gyEdHlV74IM7KnJo/UtS4qAUD61SwoToZN5KaAlWSdHIrc+VJRw5BCyV0kLXUkGXWwtTmrg7MrfSxDCr75VdTMOeuLqXcfsiX9kIUMDi+SABEiABEiABEiABEiABXwkofKtPrH/z609AipOyeqOUOaO+ZPa1LDviO1y1z9YV3mBYYPLbiwHRPc5EhSEFrexPjgLDYgpaFLAMRWQ+arc9AAh3M3BtUP31m67lG+c8X9KWUWX/2bw1NC0rq4CG7llvJLQJVFbvLdfxLj23rNsP7f2zhFiBUb07+/q/QpVifPLbcwCR2sTdLCFkBlalhJj7IAESIAESIAESIAESKC8BhW/xAOoXbIP1egOE8c0mz1cpRK2I7Isre7+Wp2fhGX7Xe1tjQ+xrSDOvI4N+pRLKEolavjWFd9m80vlSCbUCP5W1XJcyJjIDCwISonVHnNl2lUpEgjqmatCEI3Roz6f5Z2ZhNWVUpYhYyYbpOTKulDKvEn8NG38dR0yVyuhTlVqCmNLUPSGWpQpTjpJFu6CVksX1CEb1OSOosQiUX5NcBCyh1+GKniwhDFSg6AwJkAAJkAAJkAAJkEBYCSh8a9/U7eWmeQdCVL2S3KTXskCVjBYvtoV4EFfvd3ZYg5DT78mLe0PK+a7KlQpTt2/azvdUToJSbMQrgGwPYK+42OZmWGUxh4Mq4pHnMR5g5M+dJYQGZikGYGiHl3Ke+SAPOPTmnTVZ/bGbi00CFiCTPa8S4pI9C8stK8utR5YlTFnZUcYY45Xz1kGrFNDW2ypb5pY9+yp5y6HZ0P1sXNvnwSCHIzC+mQIWUjOwhNEDiwJWYGJER0iABEiABEiABEiABEJNQE1JGL/gdCD2h6adOjN51Mzk1lFc7CiJJliHdT+0RXRgY6ijkcn5+kW/BcQf3SsHVbKqVOKjYscpKqXNkdDRe1O5VBRSHpcxFs2zhxYFrPiBuBK1NVl6uYXgCT711Ij2zf7fQYi2riKWTaiy31CYVkZoikbWDYCGKGVlUbmUAWZt6J4Yn9LryiUrK5mlZe+DZZU32rK07GtB64/r92+evdvyPYqGgCUdAhZkHUZSwMoXJceTAAmQAAmQAAmQAAmQgBsBFWUDGPfaTRBoKoNQyT5RE55SfVLKoMngsiZ3wVW9XbMiQh/6+sX3APJ8130oxcI5UyXsbmJiLpJiBS7fczvc/t5TWQWsNHeaQ5aWoIAVj/tLqK0ZkOskBf1zbVD9bQAuzfRMJjOxNA1m4W9K9pOzJ5az8bpdVMoyNpnFZZ/vYssqHbSXJ1pzjUtNU9WvmF8AACAASURBVDLDHKWEWlVnXNd7RdDjEQj/KGAFIgx0ggRIgARIgARIgARIoHIJqCgZwE2vTwfkUE8Cihchy1hISZixDZLySIzq/Y+KDFX9ovc3ZWB1y7o3JV4+C1kSc3FF90GYsuRpCJE5AyvTRiq63JACViLsjdDkdjizY6j7YLU4pH73Rg3vZupI52zibmZiGS8r48opaKVkRykKWGllhGbJn0Mss5cSZrqh0NZQPtnDyxSyliP2fBdEo3pF/r1a7E1NWuSSgQVmYBWbM+2RAAmQAAmQAAmQAAk0WwKKAtarswGcqnT7XSFZVLnCkE2kEeI6XNOrLpeJ0H1+66LtEcHydL8VQlcqUctaR+JGXNF9jClgAakClmch07kJhX27BblYLJSWdy2FZQaWFRepD8XQTjND9yw6HNYG1a8EUJNpH/byQdeG7il9sOyZTzahK6XMMCFs2ftgWT+7NXS3C2ZpdmxilrMBfFIEw3iM6W/cuMiXCoGJi9J7YEnU4SqWEKrg4xgSIAESIAESIAESIAESyEVA6es4bnp1NiROVerB5Fk8UHMlxXzqlH9jVJ+BuTYcus8nLToTOmal+a0iyDgnKYmLSgF0GWRkf1Tvi8u7veUqYLma9RLzkJYbCmZgJY+AFI9iaIffhO5ZdDgcGVT/igQOzLgP81bCpuymlFLCiNWM3SVrKmO/K0e/qqyN3HOVFdrWNdezC1pWX65IV0T7fRr2OJXM/4lvzgFEahN3Ketw1b68hbBkQeBCJEACJEACJEACJEAClUxATUGwBCyLhIoQoqSDuGaq5M87bmYdtPUdcPVBP+ZvIMAzJr41HYCtfNPBzNdYKClg1qBPcHn3XSCExGRHBpbKKfOSoRWmkkOhMQOr6Ti9g9qavQP81Cm5pg2qvweAe2+6hIWmXlgC8Z9tNwim3UpoNVK3ZVqZ/bOcfamsmwWtpu/2PzsFMXtzdpv9lFJDF7ELYhVu/GXG7DIlQM1tEAWs5hZx7pcESIAESIAESIAESKDEBFSkBSQzsLI551tGkJqLpmsSx+C6Ps+WmKG/y01cNA+Q/TIvEhBBS2AyLt9rhOnn5HdsJYRuIqUCskoTtChgJVKOzAd1PX74sT0u2XW9wkkI7JDIwPqTpcDjWR00s7CabgSUxmBLuHL+11nKl5aJ5RSzHAKW2WfL0ZQ9U5aWa0P3FHuv4cYBfQMLP4iOTXDJwDJuIWQGVhCjRZ9IgARIgARIgARIgARCSEBNHTIzsOSpTftTmOZrZlCG9SWm4Lo+V4QwDpldnvCWcQNYR3OAAnbXQb6Jiza3pfwVRvT4e7qA5bY1FdHNMc+LoGUyc25eCWK60yoMs43RmIGVClU7D7Xb3hfqZ/WwW9pretVqABF1EcvKxLJELUs0chOnMmRa2cWnTOWGppjllqGVpbQwdfxDGHfwkFDHp9TOU8AqNXGuRwIkQAIkQAIkQAIk0MwIqH2bH2c0cbcLWHZKCiZKJ2bNxbV9BlVMDOsX7gRdW+YqXSlgL6mYpVV1xeV7xPvlmBlY8jg1xa1EYla5yw21CEsIUx5MuRSf3ts97DfcRQZNfFlC9M/1d05+Dd0TwpNh1BCizCwqS+Cy/5yplNDIwkqIt7lKBVNuP7TELXONYbjpkBm59sXPbQRMAQupPbBgNHFnDyyeExIgARIgARIgARIgARIoBgElGQTj5iWauKsMVxjjm6AlPsN1fboUA0wgbEx86wZIeWPcF69cnTtREYzyXEviK4zYe3uz/5UlYEl5XLrLCnbd9qk0TWWQg0Ups7MiFLDSnikR2R5DtvkyEM+aRye0QyfesKlTe+IZzW4kRcRKyZxyClGObKxsWVa2JvFmtmHyZsNMmVYOAcx43tJELE1Cx864ZSAbuOdzLm5ZOAfCIWAZTdyv6cUm7vlw5FgSIAESIAESIAESIAESyEBA7Vu/JWC5GVEq7VJYRqVEK4cWA4EYtthsWwzv8V1FRHzCwk8hsVNcv/JQCqeAvShZWlJeiit73pFkPnnx0zAELKcY5VW4VLKTS5xSPBFeOLs+F443I1XMwHJy0uWhGNbx/xQjE8hhVYMmHKFDe17FuWQT94RglLyV0MqwSutX5VZmmGjSnlHUst8maL+10C5uOW3YxS7zs49QN7AbkBCkVTbHMQAFLJ4CEiABEiABEiABEiABEvCVgJLEgbHzZkPA1gPLxSffhCxTvckNwRoi5eW4vu9tuScEfMT4V2tQ1WJlmpdeBBYFfAUIWeuwWWRbXNj9p6Sv9YufhjAELOtVpKyvMAtZUvbHpXvMC/ip88e9mQ2xeHfxNAVrDGo7KWUv+eNYEaweOmVnTcY+VrWUsZQwmTnlzKKybi203V7ozLLKJGal3F7o1vA98V6yX5YlbGn3oW7Qeap74rgEgVsWzAFEegkhM7B4REiABEiABPwgMGbBjtBkH0jRHUBXANtCypYQaATEd5vaAXwO4L1Nv1R+A9E+7/jhAm2SAAmQQKkJKEkbpoAFh4ClMtM3USvr4u/i+v33Cn32wK1v9IXEf9Mzr1yOSKlELfcMqncwssfeKV4ZApbZAyvxUsmuUxmTtnUXh4p2Lh2LFdxDiwJWevjEAgzp0KfUf+kVdb1TZ0e01Z8bGZ9tVe1mLSU0srCMl/Ffu7CUtYzQVgaYnJuwY4hYEbOBlq1UMMPP1twIfoe6w/+oup+SjHv4606I6begtia4jeUpYJXkKHAREiABEmjWBKJLWkBbvwd0vQ7AUe6/IHQl9AGEuAStq17GlT3XNGuG3DwJkECoCah83UdcwHI2cfdTPFBwK5vgoa3vgGsHfB3qyNy6YAikmOnypT/3tryKLQrYXcoC/4SRPU/PKmA5PVYpJVQZ40pCJdtLRZzKjTm/sk4KWC5EdayPdcV5nY3fEIb2pQ2ceLv5j0LVl0jcRJgQpZKlhMZzG7F6VCWyoeyZWZaIZf43UfZXUCmh3YZVRmj8UziyP245bL7qdkoy7uGGA9GIqzC05sSSrOdlEQpYXqhxDgmQAAmQgCqB8Qs6YaP8MyAOANBSdZptnA6B94HIpRiz7wse5nMKCZAACZSdgJJk4S5gWb4HUMjS9b4Y3e+1stMtxIFb35gOiaFZTahkuPmenSV+hyt7pGZr1C96GoDaLYQqQpXKGFdQJRKzlARDClgZzvJw1NbcU8ijUu65LQ6bskejri8BTClK6ZXfrYSJbKy0MkOFGwnNLC7rVsJsjd1tjeT1Ddti0nHfKG2kVINmrDwHEL+igFUq4FyHBEiABEggMASiUgPeOB9CTDZLBIvzuhOtcAOu6f2/4pijFRIgARIoDQG1L1xjXmnqgaU0wy/hQGFxs1pGDMF1BzxUGoQ+rCKlwISFy5IN3FWXKLWgJbARLTbfBpfs+kOKixMTApaXskAVsUplTDkFLWPt9FiwB5ZbTCSeCrQoofjsaYMmNgCig+Jw83zYm7inNXR3FascjdjzzcSyxhtOppQoppQrvo+JR+2uvI9SDZzV8Afo2DzQZ+Xm+ek9sIxbCK/tw1sIS3VOuA4JkAAJVBqB2bMjeHfnuwCcX/ytiXnAD0ciOrCpj23xF6FFEiABEigqAQVFCIApYFklhB7EKbcm7Corqwgyrg3exUO44YDg9krJFcLJb+yCjfgAUqV7fRZjKvyUsodc1ojH73lcuY9Rf5/6MgWsIt5CqCKEqYxJc9TP7EHHYkJQwHIXsN7H0JrgCSa5nlHH55FB9a9I4MC8pgkjZ6spu8oUsdxuJHRt8O64YTCTmJW48dAUVJ3N35PvpdxCeBXqj56Y1z58HywFZq5aAYlXgy9gIbWJuwQFLN/PBxcgARIggQolcO6CanTGoxA4HhIRn3b5ETY0HoS6vg0+2adZEiABEigqARUZySFg2dcPkpiV4suXiD23I6JRvai0SmXs5tfPBbRp5nIqIpSKXyp28hazxHBc1TO9/CspYFmOqQhFCkdRJfNKZYwrLw9nWYVpEgEFrAzHdAOqW3bE77YwGqGH9qUdVn8P9Px/O5q1oXuKwGT8XWArJUyKXW4N2W3lgKYgZv3ZPt/lVkIhdOiR7XHbUSsCFYiHvt0L+sbFCHq23vj5cyAcAhZCLGAZt1sBqf0NA3UwAu7MDxtux5QD1wbcS7pHAiQQZALR+dFNl1KNKYGLf8fm1YPZ3L0EpLkECZBAwQQUVAMjA+ul2YA4NWU1FaFAybqKuOGyz1zigYzshdH7LymYUDkM1C34A4RMfHFw46MENrfnuRi6Cmi2tTW5P0bum97sOU3AcnNFJe4K+1TJvFIZk+aiin95nEtmYCWuxXNhJs3m3AHL+sn9+NhHRA6bdIrU5V/ymxW/HNDMwkoIUmkN3Q2DGUsFrSysRFN31YburplXpg9fYsqx2+e9B78nzFp5KaS4jQKW36Ad9qPzDwHE3BKvWjnLrY9tg5sPWF05G+JOSIAESkpg9PxToIn8/13h3cl7EO093Pt0ziQBEiCB0hBQUAgAjH6pqQdW0i+VL/gqYxTEDRUv05uVX4Yb+t5eGoxFXqVu/usA+phWlYRCFUAKPuYraMnN2uHq3X9MszzBKiG0faLkokoWlIIhFcFKZUzaxlT8c0yymFLAyixgASswpMN2EEIqnNJgDjnslvaaXmV8Wc07xd/MwjIedC1xO6E9uypFlLJnVuWReZWSheUQvVLFrJdx27G/DBzgmQ3GP+BPoYBV4shQwCoMOAWswvhxNgk0dwLRBR8D2LlkGATWYuPGXrip33slW5MLkQAJkIAHAgpqQELAAuIZWEqCSpFEqUJ6Z0k8jtH9fu2BSfmnjJ//NQS2SXFEibtaOHNuUEnIkk/iql4nu9pyE7CsgUouqghFCoZURCqVMbmErIzPhW2iprEHVraDJ/WuGNrp05xnM8ADPPXBSuyn4FsJszV0N9Ywm7YnNEQj4yuSEM1SemRhGm4/3ocmsQUGbWbDmwD2Cb6A9Zp7E/frDwhnE3cKWIUdXApYhfHjbBJozgSib0wB5GVlQPA5fl63FyYclP7L6TI4wyVJgARIQEFVygDJyMCyBCwlKyqZVypjFBbLpGMIvI0bDuwZurDXvdYN0N5X8ltFfFERo1QWs9sRkJBaX1y9j5Eplv6a8JZ7E3eFcLq7onJWAi5oUcDKloFl1NEdjaEdnlM5ikEdox1aP3rTxQtjPfmn1NDd2QfLnk3l2tPK0TfLZYyZ+ZXok6Vpv8Htxz3qyX+/JhlXh3dZ9S2A9uEQsFyauFPA8ut0BNsuBaxgx4fekUBQCVz/WldURT4pn3viOER7/a1863NlEiABEshOQOFbv5GB9R+HgKUwLZe4opRRpBK+jOLGTxjdr92m5ofhKksaP/8WQF7tuXl7Tu4KscuJXTTgmn07ZWQ7YeHTkDjOfQ8K6ysMSUsFVDlPSgJakcQyZ/ZghBlYWY+VELdgSIdROY9egAdUDaw/UhfwLMJJ222DyZ+N/ZrZUy7lg8nsKev2QudNg873szR0N0sJW3TAncd8HSjE0xsOhIZXTJ+C3sT9JiMDy6WJOwWsQB2pkjlDAatkqLkQCVQUgeiCswHcX7Y9CTyDMb2PLdv6XJgESIAEchBQkgrSBSzLqsL0XIKKYcrTGCU14jCMOfBfoTkFRrZB9fzlADqn+Owli0pF0PFiN/5F8kWM6nVIRq6WgGUfkPcNh4nJCkcst5ilYESJl9KZcxkkAApY2TOwgHdRW9M9NM+qm6OHTtlZkzGjZ4W3l5mF1dTbKqWhuyVgZWzU7hSv7H/O0C8LKcLYYkw9qYc3x32cNWPVgxBymLkCBSwfQbuYZglhYbwpYBXGj7NJoLkSGLPg/yAwsIzbb0RVVRdcv8+XZfSBS5MACZBARgIK3+zdMrAy2VMw50msUsmKcfFJF49h7IGDQxP/m+ZtBxH5ItVft70rcHZuWkmgUbZbh2t6Ze7r4iZgpfnjtpbC+gpDcgtahjMKhop1Vo3lIrI/Lt17XmjOYjEdndkQM3KBcpqUG7ph6A4f5hwX1AGnzo5oqz//HkAbry7GBSzjeApIs7Qv/nO8zM8t08omVFk9rqyMrURj+Hjvq0S5oX1MUiwzbzG8DVNPutyr377Mi86tQtc9f4DEZuEQsF51ycCSdbi+H3tg+XJAAm6UAlbAA0T3SCCABG5d2hZrfzL+HZH730x+uq+J8zC6131+LkHbJEACJOCVgMK3+ISAJWW8ibv9pZTBo7BEsYSC9KU2QG5oj+jAdV4BlXRe3fz+0PWXUxm7eeDYqFIcXOwocXeJn0RvjOr1RkY2tyxM9MCyjVDxMf0mydz4FY6Xq1ilsve0864SiwxjKGCp/GNsJGprJuUOenBHaIMm3QHIiwvy0BSvmkoGkz/bs6+S5YZ2Ycv4J681z55d5ShBTGncnhC2JH6Ne3/9eEF+F3vy9IadoaEpoy3oGVg3vjoHwtkDS9ZhNAWsYh+NUNijgBWKMNFJEggUgejCwwD9hfL7JB9BtM8Z5feDHpAACZBAOgGlr/9mCaGbgJWXmKWwlFKWUJ4ighR7IHrg0lAEf/yr50KKaRl9VeKjwNmTMJOwK+VnWP+3nRGN6nkJWNZgT0KWMVlhXwpDipKdpRQHB50ImIGV8yEUz6C2Q6j7LrQ4tH7PRineMYoBc2430wCroXsyEytH/yvjVkFniaHrrYTOXlq2nlhaZF/cfdJbnn32Y+L0hsOgoekf8hSw/KCc2SZLCAvjTQGrMH6cTQLNkcDYBRdD4o6yb11iLsb2HlR2P+gACZAACbgQUPuSdf1/ZkO4ZGBlQ6oiVHgSJVxczpZNI3AsxvR/JhTRv+nVPwL4bZOvCuFRySRSioWDUGaR5g6M6n1pVp5uGViFnpXwZ2f1xwiWEOZ4Dj9Bbc0vQvGsZnFSG1TfAKBDIfuwN3E3SwkNQcp4eWrobhfA7KJV4mfjoosNP22FmUONsoXgvGasuBJCm5B0KPAC1rw5EOKEFIASzMAKzokqrScUsErLm6uRQCUQiC6oAxCEC20WItq7VyUg5R5IgAQqj4CCQgLg+n+n3kLoSRBRWUphTN7ZL3I8or+8PhShG/fqSgA1SV9VxCnnxpT4KHB2A2ZMk9pxuDbH9br5Cliua+XwsaxN4Q2HFRimDBEUsHI+hCKGjT9th3N2NgSg0L4igybOkxD9Ct1AShmh7YZC9xsJrewqe88se/N24/0MGViaeBXTBhfsb6H7TZs/s+FZAEdRwCo6WTWDzMBS45RpFAWswvhxNgk0RwLRBbcByP5L4lJwEViCMb33KsVSXIMESIAE8iWg8C3cRcCyVvEiZJnf/VWWzSVgZFJYbO/HTbyG6EF98wVT8vE3vt4dQn/Hdd0gCVkCv8CoPp9k5XPLG08DOK4oDFXOSiiysyhgqZ0HeRNqO96gNjaYo7RD66dB4tyCvct1K2GyybtTmMqUceXWH0sAVVXn4t5fl+/KbjdQM5a1gth8FSDbhkbAGmtkYDl6YMHogdWfTdwLfhhCaIACVgiDRpdJoMwEovMnA6L8F6pIvIexvfcsMw0uTwIkQAJq0ojrqOsSGVhKupPKIMcqKiJF3hkv1hqajnUtt8Ktvf8X6DMw7r9G4+c78s/ssXalwF1FCMsWC4GVuKZ3Zwghs7K8ef7TgEgVsJRirBAhFTtBFLQEBSyF6BpDvkfrDttgsDBuLgzlKzJo0qkS0shaLfzlbOhuPMNpNxK6ZVfZbic0Mq9cm76bY2JoGdkCdw/+qXBni2hh5qoBgHwxxWLQSwgpYBXxAFSAKQpYFRBEboEESkwg+vroTT0DxpZ41fTlhFiEMb32KbsfdIAESIAEXAgoqB4ATAHL6IHlGK4yW0VwcAuN0jwFB4whQj8F0YOfCPQJuOnVLI3yFfeZskEvcwwDzhjb/xwZgWv3m5yToylgOTOwXPxRinHO1dQy+kolamUq4aSApXILYTzYUnTD0A4fKkQ+mEMOmbKFpsVWF+sabG+lhInbBe2lh84SQuMzIT7F9NO7Bg7kzAbjH/CjQydgweUWwigzsAJ3vkrhEAWsUlDmGiRQWQTGLhgCiZnl35R8BdE+B5XfD3pAAiRAAi4auxKUpIBljXYTIxQseREslObkLDe8G2N/eaGCh+UbcuO8hRBi39wOeBGmvMxJE7PWI6LV4BqFTDZDwJI2AStX5pdSjHOTUSpNLVfvLKGxB5ZCCBMK1gmo7WiIoKF9RQbVz5NAcfpKGVlYphBviFJays+m3mxmZFnlgY4/p9xOaM/EMsYbpYeYi+m/C95NQzManoWw9b8yhU08haE1Jwb2UIx9ZQ7SBCzUgQJWYEPmq2MUsHzFS+MkUJEEogv22/QL4DfKvzfxBKK9Tim/H/SABEiABDwLWHNTm7in2Qm6oCVewo0HDQjsAZBSYNx/jYyNLVN8VBJ2vIhTXubgXVx3QHclhk4Byzkpl6BlamcKPqo4o2KnFNlZGgUslXAlBKw7UNux/E1M1R1OG6kNmjRmk+ISLcBEylQzC8tQqzRDzDLEJ5tQZRepzDH2WwsTfzanG+8bIpat5BDidsz83WXF8rNodmY0LIXAbqkQKGAVja+KITZxV6GUeQwFrML4cTYJNEcCs2dH8G7X7wDR1P+xHByEvB5j+owvx9JckwRIgARyEVBTCUbNnQ1hlBAmXiqigFvPqlyrKdl12VLOeeJL3PjL7XPBKNvn4/+7H2Iy929ccu7TVH5ybyNTmVu2mRKzccMBp+U2DiCXgOU0ouKP0t4VvFOx40eWlhZhBpZCeMwhUn6GoR27qA4P4riqgfVH6gLPFc23XA3drQwsS8yylwsm33OKWYYQFjkeM0//a9H8LIahqKzCTg1GT66WKUJ20DOwoi4ZWGAGVjGORChtUMAKZdjoNAmUnUB0wR8AnF5eP/R9Ed3/rfL6wNVJgARIwJ2AgtoBwClg2W2pCALl752lIya7YPzBywN5EKKvTIUQw5O+qUTFC3e3zatkQ8VVhTNxfd+HlfiNf/1pCEcTd6WJbvqbT72zVPgVU8jSZH+M2HeeKoaKGjezwWjIrt4Dy9h8DPvgrJpFoeUwaMIvNGgfFdV/U8RKZFCllBJawlQiM8vZ6ypzGeFGaLEOmDn0+6L6Waix6St+DeCxpHhlPYeBF7BeTi8hNAWsg3gLYaFnIozzKWCFMWr0mQTKT2DsaydBRsrXt1fibYw1GrjnuLCp/KToAQmQQDMloCKVAKP+NRsC6U3cXQURFZNlKTkcjRsHjAtcnKNSg5j3LYD2Tb75xUchNu5DGhFp3QGjenynxM8QsNKauHssCwx8dpYiUwpY+QlYEqMxtCZ4z6vSAwDgkGiVprX9DpBtVKeojMuvobt1E2GT6JXslRUvSXwNjwzpq7JuScc8+NVzEOJIc03z8bKeMRHsHlijX54D4WjibghYYylglfT8BGUxClhBiQT9IIFwERi1cFu01I1fuLcsk+PnINr7gTKtzWVJgARIICcBhW/fRgbWv+I9sFTEhGKJWiqeqWTRJP0RyzFuwE5mK+Agvca8tCM07bPcLjmAFI2PgiGBF3B93yNy+5gYYQpY8rj08c49KKztep6cb/qUpWV+d1bwUaWHVoQZWMrnJz7wBdTWqJ+5PI2XYrg2aNKdgLyo2GuliFgp5YFWI3e3UkHbrYSJZvAQog6PDAlWdtBDKzfHRvk9IKuS4lXyETQErI7BbeI++j9zIMQJqfEWFLCK/QCExR4FrLBEin6SQPAIjH3jHEh5Xxkc07GhsTPq+jaUYW0uSQIkQAJKBBS+ndsELLtJ5dIz2yQVMcDPcsOY6Iy6ASuUyJRq0I3zDoYu/20upxSNsghZF+GGvlOVkdzkELBUzorS2XB4oCKoerHrKpopBCdbySEFrPwysCCXo7bjjspnLoADWwyc3L1RyMVG4V9R3TNvJWwSpEzrVnP25I2Etkbtaf2xrEbv+gl45Kxg3fZ432fdEal6J/mXoZWBZf5XPoWhnYMtYMEhYBkiITOwinr8Q2OMAlZoQkVHSSCQBMYuWLjp9l2F28mL5b2MQRNnYnTvPxbLIu2QAAmQgB8E1L5YjfrnbEA0NXF3/YKv/GZioHgVkH2VMlyKJmqJgzBuwCt+gPRsc+xLF0KKu+LzPYhTXprlm0uphD4xRsq+GN3vNeU93vSaewmhZaA5CloRsAeW8gEyHwUJVHfBkK0+z2da0MZqg+qN32J2KLZfqQKWM7vKnoll/GwrIbRnbEHbC3+qXVJs3wqyN+PL4xCTRg89638nbGWE8ikMo4BVEN98JvMWwnxopY+lgFUYP84mgeZOIPrmIUDsWQCtSoTieUR7H1WitbgMCZAACXgmoKJiANf8M9EDy76OwtSsQoWcAykOhHB8uctHWMnTHWjifNx48DTPtPyYOOblxwGc7KZfuaZkKWD3JIRl41790xa45vD/KW/fFLDsJYQKTucStZTOhYuHuewqi3kKu8/mY5WggKWAMGWIkHdiSMdL8p0WpPGRQfXzJNCv6D7ZbyU0MrKcpYRWRpZdvErJxNIk2m1sg/vO+7novhVi8IEv6oyc36QJ85lKPMQCIRCwHD2whNEDa0CwyjRV40MBS5WU+zgKWIXx42wSIAEguuB8APeUAMVn2NB4AEsHS0CaS5AACRRMQEFZQFzAMnpgmV/2nWsqmHAv9XoCEl9AIPMXVCXRIq+spcdw0yGDC6ZWLAPRuVXQq1dCYOs0kyqcFdAXQcx6Gjf0c/R1yQHAELCkPK6IZyV1QaVzETAxiwJWniWEZre6H1HTYVscI9YX65ErtR1t0KT7AHmOH+uaWVjm/wMyKVhZ5YG2LCxbuaE53hC7NPEC/nx28HqMPbD8NUixf1PfdlsmlnEL4dlBz8CigOXHWQ+lTQpYoQwbnSaBQBGILmkBrB0P4DIAVf74Jr4HNhyKaL+F/tinVRIgARIoLgElCSQuYEn3WwhVNS8zbQAAIABJREFUhBZ3zesJCO1mSH1+/GMFV5SEiyyClpSr8cHXNXhscKy4GD1ai/53P+iNbygJPSqcFRDmJWgJISHkQbj+wHl57dASsJS0TgWnlfauYMeLP0pnToWO1h/X7JsfRxWzYRgzs8F43vIXsIy96Xp3DOv0bhi26eZjZNCkUyWk8QsAX16eG7pHYr/Bn89/1BenvBqd9nF7iOpvIYyzkjguSf3KUOkMAWu74PbAuuHFOYDzFkJRh3HMwPJ6JEI9jwJWqMNH50kgUASib0yBkBdCorqofgksRxUOwP+zdx5wUlTJH/+9niWpYM6nZ/bMws6aAywqwRzA8/TuPAOIiggsCChsLzksoGDCcOr9DXeLriwCggqYRXYWw5nznd7pKaIiStidfv99Pamnp2e6uqe7p2en+//5n+xMvap69V7Pbn+nqt7NYX/1B3Z0koGyIAJBBNpaBGhP/QJgcU47hdA428oobvXo8FI/bD7pB4B1IUGcDABBcV8vwyswqUfEFws57sURAJue4QslhrZlCBQnpftbjD1+NwiQZeWa+NpCcJxNg5IEf0gienBJ2RsGk3ILliEAWFa2kEb2Ily+qyizLc6r++ztJCn6vW2AZzZrbSmhJMXaxeubtqeVF4p+WGwL2HadMb//FjP1nr4/79/ngeFJ1aZ6H8bLB5P3JG/AVXsFAMurRQlKCPOLdACw8otfMDqIQBCBVARExQbb+mJw6WHnwsJfA9r3h3zUV87pDDQFEQgiEETA/QjQnvITAEvrj22AkhxYjyk9L8To5W8DOCJtqhSIkAE1KFNRv8Ufg8ndp7gfWoKFcS/VAzg/pyQlFrZkjKxmKHoR1SecSphJukgSYCVeJqwNZQ4Za06Yg90MKoo/lnQHAMvyPoqRjPtw+S6ulODZ88f6qFCP2tc4w3HWR9JG2Gjo/jGeGHgQTbuHUnf/aw4kDM44gVCALPV+DACWh6sBBAArv3AHACu/+AWjgwgEEciMgNx0JMBFSeGZtNIVwyCuBZS56NRlNm763c9BmIMIBBEIIlBsESCQhXgPLJGBZXaRHvqTUCMGsEYtXwgmsnVyXBRYZsgyDAYyLMLEHrntmc3TqffHvfgWgCNT6gjLQYmFbRndxDibCvmEVENl6rzHv2a+pqSSUb1BO/Ex2gMEPSTTVrK+AoBF3T46ua+x1S57oT/zR9mvjUlIlTNkgFXbGEoeklZKqO15pW/urmZnhZahfoD/Thq66/PnIbFTVVqlhcPJbCw04GofZ2DdvHIBGEvvFyiauE/oHjRxN9/JCr7fditzsSKSmHvAltb73lr2chFNL3A1iEAQgQJGYPyaU8H5HID/FhzbEjxpAbAWwCK0j47CmGNFZnhwBREIIhBEoCgjQHuSH/lMHRgzB1hWHvoZi2dgPTeu9VuEmvShBLcosCzDH3XQ+5jU41BfrNa4F9cD6JzbFzuxEBr1cIWwOHpTIXYsbjlhteVYCYClPYWQlKnk0DyNnKXsFZKPOuWW9AYAy/I+4vFnP6XlBFz5m9csj/fJgLLu03srkiSOwnbvUksJRXmgKFbUlRKG4v2kVJilykzGk4P8B1Xu/vxfANs7WT6YAlexuIlTCK/e278lhAHAymd/K5DDoXwUBGODCAQRCCJQUhGoqwvhvb13B9odDvBzwHAMgAPiQEsBw/8A/h6YtALNytMIbfUvVB/6g+W2ICUV1GCyQQSCCBRDBAjUAIAAWMlTCGlD0iZvNISjHtNOvxCjnu0OsJXGCTkEW1lFsrzBsREd1m4HucD9X25eeRIk6aX4g1k8XLnmm08sNECLnp31JfgJ+0BmiuWNrAdYWgWWQJGVOVuRzUW54noI6kz3uHZxWSho4k7ZSMl8BfGP+A+MTcHlu42hDPelTOX0/SVIn7jtm3EpoQA/oie69lRC6TQsuGa52/5Y0j/n453Rvkw0kQ2lSggT92LyZmzAAJ8DLOgysIDJmBRkYBH2QgCwCEEKRIIIBBEIIhBEIIhAEIEgAqUeAdpjugqwEiWEDpVkIQ6w5JUdsan5J0Bqn7EYlAwX/SAKoJGU8zHxNHFiVOGu6ucfgMIuz+oACfSYLB8lFlll+B2QT7reVoBq4hlYlN3lxDw1fC7lL8E4KT4EPbl4WOI9xk/EqGOCUwizbahEtpX6fhxcpWDWC7hij+629qIfBnWXyyRpmx8BbO2qO/qG7sJYAlylANZmrP9uOzwvb3LVF6vK7/50CLh0qzpMm3kl/p38jGBFALD0pxDyyZhU6b9sN8r6eNsDKwBYlDUJZIIIBBEIIhBEIIhAEIEgAiUeAdrT+QgNwHLuoT+WgSWuUc++CI6TSScROgG1GFuKSZV9Crb24jSRqPQTAHrPD9dAjwH9icX4XMgnLbQVo5pX4yWEusWi7DYv50kBT0apgSQfdcqlAGBlhDs3tIqJqxCLfY0rd9/D1l70ySCpZ+0d4LjWdXfSSgkZ1KystJ5Y0kosvK7SdT+sGrjzk3+CSYfHhiWatmv/rb7WgAG/9XcJofjcTLsCgEXcCgHAIgYqEAsiEEQgiEAQgSACQQSCCJRyBChIAdACLG20KOV72R/2tQBrIjhS31Ln9CpXiRdhOkKEowXNLduhttcvBVn8US/th7Lop7FnNYLPeieTQ3KNJejNtX5l7ACMPTHmo9UrCbCMBlqAWpZiY3W+VuWNNn6uvaibewCw4o2YxP2XSK3S9DdOeynjfQ5FORpX7yVOLC3Kq/0Ztx3e0tL8Ty+cz9nQHXwsFt0w0Qs/yDZuf39HsPZrVVacyrbStPGLAy0mMrB8DLDGrBBZvZlN3IMMLMpWCAAWJUqBTBCBIAJBBIIIBBEIIhBEoMQjQHiKR3aAlRWsJN4wUJ+CEimANfKZcyAeTrJdpKwvAixJYxDSEZjc452CrP+4FT2hSM8Z2rYEbeIaSGMIS50QYfgOOGk3W/2vhEs5AVauvUFYDafnmjRpIT5pbuqBXBY9AcCSMsBVWr+rVOVgsoRQxDkJu6SHcNUe2UtuCVun0CJSjxnfgrGdXfdDX0qYAEOxbKzeWDx4mes+WDEw99MwJN6YhFdpJxCmPpQA3oBr9vVvBlYAsKysul42AFj5RC8YG0QgiEAQgSACQQSCCAQRKJEIEJ7aBcBalmribiUwucFTPaafESshHPPckYjyt6yozrvcUGLnYVJldmhmyRmLwmNeGA7Ga40b1+t0kYCNgX3SuCzLz5XRmHDqVIuzSonLiRJCjQbSTrOQnZVQnc88tROkQFKjgGSMywJtSxlgPfBNFOBSorVVLIw8jVMZQ6t4wGOgawsUaXsM3ONX2/uywANDPWtf4xzHeeFGrHQwltHEpfjphOproYOx5PqPvPCBbOOOTy8B+KMx+ZTfqfHJkkKfA6znFkDfxJ2JEsLTgh5Y5pshAFjmMQokgggEEQgiEEQgiEAQgSACJR8BElaIAaxEE/ckObAXvFT5Wwpg3fTstuD4QRwEH3uGobmV5gAFQGhlGGZi8mlV9iaR56ibn18M8L6aGpnks5upZjuxIcdUDdAWbMFumHryD6a+ZBOQXxa9s85OewDVy5KWuA0BrRBKt4n7X7+Oinbimc3ZxaZINGzXlBMmX9aUEop/MnZUMZcRSpW19wK4yvZ9ZXFgRikhY5uw6YftfdfA/faP7m7tczYwvXl7ojxXm4GFBgzycQbWqOcWgOlPIeSTMSUAWIStGwAsQpDatEi/uhAO22dnhELbg/MuaGbtEVJCiCpRhKTNaMFPKGv/A+SjvtPm67bpmPh1cnU8hE/e2AG/RndAWagzuNIRjJep7kpoBvgWKPwnoOOPwJFrbWfz+3X+gV9BBLQRmPNxB6z/YRe0hLaHxLZGc0t7tBO3Q7QFwK/YwtZjG6zFqLDofRxcfooA5wyjmrqgU/P2wFbbINq8NUJSByAaa3sSFWUgZVuA6Ca0L9sAafN67FS2DgPDzX6aRin6QsIIGP50HRjrlwwQJevELJqc1aM2noElZEcufROQjsoYZgfYkGAWewtTeh5t5qbj7w+Y1w47H7QOwDbput2CNQYzyB3T9zH+lEPzmrcAWDwOsMz2CmkHGmU1ETwk7R2CA2ZzMHJFPybEShhg/TcGsNIYVS5wJQIq3tdlaUnsUly1VzxTh7D+PhMJ9ZjVnzPlH166lQaxJDyOpUNTn+NeOpLVFme445MPwXGgKqLeN2rqWGxEPIssPrwBg/bzbwlhALDy2VEBwMonesU0Vjww1Ly5LULS9oi2HAbw0wCcBOAwAB1Np8LYFgBvgeMVMP4cOH8fHdn3wcOhaeSsC8iRrdBctj2klh1QJtaIHQ+OcjB+IDja0RQyBVDeB1gjwF8CsBrga/H92h8wt+9mmo5AKoiADyIgDuBC+x2ADjsA/ARw9IAk7gm2r1plYHYx9gO4aJeAl8H5MqD9f4HmdZDDRVtZYDZlX7wvi7V5swvK+LZoie4K4BgwFgZwJBQcBGbjhHCGr6HgAzCIA4giYMqb2Kz8iBZpPTot+hmyrPhi7m3YCcLTOxADWNA8+FBgi4lqPcCqemYYJD4zM9Z6WzSXM/RkDlMQLdsTM3p84+n63rz8BHD2inmWmZvQRjdjLejheAITTrkor5ioAIvHM7Bs7BXSEtuIj2tAK/nknSNs7ETccsyrecW1WAffLwCW5pd72umDie/SddlWGXNV338EA357WbGGASdN2V5q325tLBvNo0stIYzdK1wK9cGyIUs9skwzM/v9fdAu9Fk6scrSzF30SfQ9wNKfQoggA4u2EwKARYtTcUuNi/SDxAYA/FBwbA+GTnlPiGMjJLYOCv8YjM1EdbfFYEyX0pu3ldJRIB72lEgvSNJVAO8WX6cuqc/ovEPRAvD1gHiYxzIwNg9yedEe0JJ3NAIF/o/ArC874ef/3QCOS8DYHgDfjg5wc05vPYC14HgRrGUG5OPe838wisjDCZH9EWV/BNTn0d0A1gXgWzv4WaYNhgBWG1qJyc/g/GtIWATe7jHIR/urZUcRLZ+ZqyRUoAIsxAEWKbvJyKxuYEYG1jN7gPMv0x7uSLZoU8jwSAxT2GWYftojZkFy9P3Ry28BYxMy/aHMgwKDdJpJ0EYzhvMrMLH7A3nNeZwoIYwDLEr2ki0Zwh4jhZQkZB4O0zmUMMC67z/pAEulKYmQGmRaxXBLTED9TzwTi2Edtv/t7uivfgNflFeo58zXOOee9MFKRlgALMZ+4c3rt8Pzskhp988154MrAHZ/MvMqmYGly8YSr3PegOsO8HcGVsYphMpkTDkj6IFlvuMCgGUeo5iE3HQAAG9APuONqA4vprqWISdgCGvqA/ALwZl4iNjJti76wK8A/iQgPQq5fBV9WAlLyqu6gEl9wENnAfwMALt4Fw2mgPH3wfkSRJUnMeHY1/K2XdN0HTjcPzBFvR/L5bz9zaXAy7mg492QD3PvS325qTfgTR9QQHoQctcvbK+N/MZ2YM39gND5apYoOePQpkUGDo41UPAEGB5BTfjfNjWV7rBpH3TGpo2V4NFeAHqA4WBwUrdp92LG8Ck4exHACmz5ZTkmn/K1e8ZKSzPl6T2WgZUAWNr4mD60G3HO+CDO61HbO9bEPXGNWPo1wHYzXAKSLdp0NPr/immnX+npko9ZsQjAmVltkoCTayCrBSFld8g9RJaI/UsLsBJaSOunN2kjy0pV4VZ8CPsrK3QtZYD1VbwHlkG2lViujO/KE6WDWogVFwyxnrh6nxX2N2dhR0qVM+VWElPtpRfxhu7v8eeGixIdf123ffA3MPwx2bw90cRdW0KYup99DrCeXYAMgCV6YAUAi7DpAoBFCJIqIq/uDUhPU8XzlLsLcvhayzrkj7sg9HN3RJW7AOxhebxzA55FCx+Mb9lnuCfoWZIWVlHKOemtPRBt+T04uxng2zsX9rw0rQFDFXinRsiHiYwG65cceRdAfq0wqFblMOEPQ6oyAzkv54JQV8hd38zD29xD5abZAL/RNf3pG7wH5IrnLduSV+8GLokTryeBeZgtn+6oyFKcDWy+FdUnfh1klOZYxQGRdtgLeyMq/QlcGQKGbS2vuXcDtrRmH9dBkm6F0vFD259v3vnra0u0D97hS+IAiyBuBioS73MYAKxl4tuyY0kRcyY7axWmnX48yZ5TQmOW636xUmJKkHEG2qzEhFMr856qEcDSKyWtn5EnNuCUEYAnhZQkZB4uVY1UuiWE9yYAloVsq2RUNXQr9s85GLTvEPOg+1OirOes3gpXvHr4TEWRYTFfXnWW76Jy2wevq/0IxJWA94kTFGMvang08zfAuskAYIFPxrQAYBH2XQCwCEFSRfwMsGRZAs7+Q+uBPDUA9vG0XDpb/Bg2t/aqeQFlZVfglqP/Qw1zm5YTva2A+wCIjBi/gCttyMUD/Gfg0ljI3eZbfoD3EvoEAIt+q/gZYMnvbgO+aRokfjE4dqRPylVJcbjZvcCGmyH38Ff2vKvTJiofHzkWCpsF8CMz+0oTdRREjG0B41+Che6Gst3tkPfdVBA3itwo5QkdGBYHWGZwisAbYiKqIgOA9fTDALtUI2MtvBT/0jOcvsW000VDN28u0QBQNHmDpmEcxWe9d3aytJJhzzFVhiGY0H1O3sEY91KqhDCpjLDVKLGwJUPYmAT3zPuW5QgyK2WA9WUUXN/gUlciKEKXVlYYX7NECWFqCV/BoP1Ew9/ivLrPOkCSlI+9d57doqwYPsl7uyYWb33/WzCWKvVQ78M4tEp+ziVvzgZcf6B/SwgDgJXP9goAFjV6fgVY8prTAEWUy3anTsVbOb4OYLPx66bbMP2kn7217RNrN7+5J9q1DAYg/l9ArGK4ngdjU1FdvozsbACwyKFKFyzBDCwB3dlZA0W3Z3DsbzNwbg97D2Bj8e6nDZjfX1Q0lPYlrzkH4IPjB4AUeyz+BcYeAOd3QA7nV/1U7JGw6D/lsT0FsBLKKRBB70impXrU9tGVEC4bBPA704fSXEwbQ8ruiQuxsgMxtccnFuNmT3zMil7g3LiJMsVnI6t2YFa2kHJ+PCb1yL9nhCHA0jpPWFPKHrMlYxhE61vOatxLGWDd8+9UCaG+t5WIvOHphIkl0dUXcmUtBu2/i+VvZO3dsc6P6i6XSdI26RDbeSsZGiUWOqFl+dD8e4s46ett74mTrGINLtX7KfGZrL6QOpEwAbWAAGA5GX8zXXJjd4CtNBNz6P0AYFED6TeAJUdEXyuRcXWNLzKuzOP4OsD/ALlCHB5RGpe8siOUbcSJaX/zqA+Z03EVfwg8BCijIR9j3qMpAFg2419KAIszyJHDAPb3+AmoNmPm5TB2KzpyuSRPXBWgUTrvECjRuwFevF9iZ98uChi7Bh14XUmur43biEASkAmw9IbswZd6zNQBrKFLD0MI76Spp0AKysSz6mEzMP30kRQVecuMXl4H8PhpjoTQ25m7VbCSmJSwVdbaA0HuIR6u87vGvrAQQOwUQrv+2NljlH1ICHtGD63487RpUHLNlfETccsJpXkK4T3/igEsbTYVLdtKNO5OhT0xXmp3Egb99hXT9fCpgFQ5806AD/LQvZ8VZcMOvmvgPvu9aQAfmVY6qC33VZlWHGyp9y1vwPUH+zgDa9kCcHau7vdXUEJI2+gBwKLFyV8lhHLjOa19S+8GsDvVfZ/IrQP4XyBXiL9V2vYlr9kDUMRDunjoI/0F5N+AsG9bTy8cArmbmE/2KwBYNpewhACWHJkC4DoAnW0GqzDDGP4JvqU75BPWFcaBAlmtafwruNQP4NsUyAMvzIqW859BabkWNcc944XBYrZB+2UmSgh5ArwQoYQ5fMkEWOLEmg1LxbcrmtNDdIookIKyIik9/8PnP+3pelqm+AZsU/QHAB2N/4QgLIV5TDNnTgdIT2NS976U0JnKaAGWXpjuT24zlH1gWybDaYO4mkYhHd6VMsCa90UUXNsM0wBK6cOZAFcZoEtt8O7vTByzrXHarCMkhb/V2ieGcNObKTN/n/ux/5X4rO/y7lcA2139PNR+LhhmY7HYKYQ3+BhgjVi2AAzpAIvzyZjROziF0HybBgDLPEYxCT9kYMmv7gB0qAH4VerfNMV6MSbjkG4T0Z+1vbIc0bICXS4D45PBiw4w5tpR4hTihwCMyVpyEwAsm3dkCQAsufHw1izE28GkUyAOMijGi+EngF+C6grP+6l6Hi45ch4Yan1c3ulWSB4B2o+DfGTpZApbjCTt5tUDLK0RCpAwBi+ZAEvorXq6HhznkyCPHaBjFKD22BuTen1pMXbWxEcvPgi8/Ye0E/IIy2Jn7rnWSuLdMaHyBWuTyiKdC2BZ3TuULwwpsbAlYzQ/ClDVjVObUpdwBtbdX8RLCC2AKxHCjP5XidMJAfwS7YKbfle0fUykypnfAtybY74ZH64sHzHLkXvbKSWzPtwTaP4qpk7f8ypLSaEoIfQ7wNKfQiiauAcAi7JrAoBFiZIfANaENw5ENPp4ax9T0Ti3+C/GH8B/2MA2dUrhtJc7Y3NHGQqGFf8CZZkBw/uQ+PkYW/FhhkQAsGwuexsGWAJWjV9zHjh/uIj6v+VaRwVMugzV3R6zudj+Hjbjra2xYctUMHa9vx110TvOvwcLXQB0fRUyC5r46x+tSaEftqgOHP1I2cdkoMWMAdbwpUMAfquhX7YgBAEGgXXHjDOcgTfZAjpq+RngyrJMHmPgH2WeejuUbCNDHqMOXIt2L+wKWVZI+8FMaOzzCwEWKyG0clH2ji2gFX9I1vpCiRdl61BPOJRQuiWEd3+eWUKoXYtc2VZCzqjcUJLCuPaAJivby0+yoZ4zX+OcH+eFTxJ4z5YVI1Z4YYtsY/pbJyMkvZjKvNKcNpiWjSWlVDIBsH7n3xJCkYEVACzyFtAJBgCLGrlCZmDVRPqB4x4A21HdLQI58XfP88COZ7aJ06DkuvbAfi+ST/QuggXK6iJjPyDK/4jx4cVpMgHAsrmqbRRgzfm4A9atfxDgFwBobzM4fhy2GYwNRnX5vX50zrZPU97eD5u3LAfw2+Ive7YdhfhAHgXYAzj0s2vQP2jgb/oYnxHuGxfVAehHgi/6wdmgBGf1mK3rgSXGDnu6Jxh/jgbLMoxl7hQSDGI3YsYZt+W7zXKOv+mZMQDLPAXMNkgh0BXS3FWvX8bkypMdm78AWDzeAytttxF8pu6fNDmCXkosbMkYRc0gS6uUAdZdn2mauAsglSsTS3s6YSK2+tc4oOBqDDlYHANelJfUY8Z9YOxKL5xXyvh+eGbE517YItuY/tYgSOxOFWCpt0v8nkn8vjAuKWzAkABgkWOcr2DQxD3fCLozvhAAa9aXnbD+f+NFjrw7k/KDVuUhYOsBkA8TJWrFeY1tKkeI1wPYuzgnYNNrxm7BO59OTbYCCQCWzUC2QYAlNx3Qmu1+B4AzbAbF/8MYuwLV5Q/431GChxOaLkCUzwWwB0G6lEReAtr9AfJR8cqFUpq68VwJT/4AEgAroYMCXQyf6zUDswGsoUsPQNox8wQXKf7klOGLMKO39YwhK/vnpmefA9Az65C855DDGXMwMwOTK51rZJ8NYCX3D2FN9dMp9uysUAlnYGkBFjnbSmwAA9CVysZagBt+d76VW9BPsqGeMy/mnOduROuMw78oyobtfNfAvfbt9C9FtH2vspcU+hxgLTXIwEJQQkjbx0EGFi1O3vfA6ojR2ARxv7bdB8DU3yZ3oLq8OEtW5KbjAGUZwLpQt1KbkmO4H7thEAaGmxEALJtL24YAFkMlmlu+Qruy5eDYy2ZAimQYUwDlbMgVS4rE4Uw3B0TaYQ92McDvb2NZcs4tCcNmcH4K5IrVziktXk00kqAHWIZwKoM4mEWlHrPPvDBDSKQ//7T1r2AspL5HATt2/UnoZmwDwmds51ojz8FLOqBT2U9grINZUNLeNwdPBvEhLKlehOFETOrp3Al5N4sSwsQphIQZk+CUgR7SOBvxIJUFGujNZSrESreE8M5Ps5QQErOtEr2wNDwLwEaw0Pa44cDNhB3mP5Fe8g5S8zZrXU+P5ux+ZeVw0WjZP5foRVH79ncAdkydQBj/sE9mYxmUFIoSwiGH+reEsMoAYLEAYBE3XgCwiIHyuIn7MgCHg7E9irbhMTWusY+gZnBcDjn8qJVhBZcd39gVChNl4m2ptNNqWBWArwI29AI6vw7gUKsKbMnLYcIfmbY0xwZ5CePQhgAW2G1g/CpwbJ1H9Itp6LfotOkA3HRScfaGlSOTAYxy/W/iYlpRY1/Xg+EqVIfnF/9U8psB7YN3iCgh1JxCqP6iJwzNDWCMAZbQPUw8CCjppzlp50kBO/q4mIEwhlMwo/dL+YUzy+iRS3sAUnoPGkr8jNRR5k6RSehm+A+Orvyto/BOBVg8ntFmEfQk/SLsr4w1powhyJjtlfizdrp5k3mWMsC64xNNCaFBOWAikNqm7Rn/1kY72cz9bNx4yCJX7lkPlIYqa1dx4Fg3TSmMn4DlI15z04Zl3VMau6Ks3ZrYOE0JYQJeaSFW4l4Tn5fi9MmhfgZYT2dmYIkTwGb0DU4hNN8kAcAyj1FMwtsSQqpXbUeOIYoWqRwTur1VFJMa13g6JCZ+D7al3j75hH4ROD8SjHlTRhkALPpayU2zAX4jfUAgaTEC7wGhEyF3/dHiuMKKyxFR4nltYZ0oKuvrIfHBGBv+PzCW/tV+UU0jP2cJT/MAhjwVK/cwuiggxhio5ABYiy8EmDjlJvdFAQ2GPutfVB+ixmNG72ozk7bev2nZBHDcEhtrBDpoy5BmmzJ3igzH3Zjac5CteWUblAawtEJtAWZR5mAUeHYi5BOcy3JzdMFcVpYEWJpTBFWTBjDLDFypwxKf12webjzkGpe9d0291KO2BgzjXDMArFdWVG3ron57qmvfHA4FtamPQoM+WEmIlfZlSQOGHubfDKxhTy8Ag+6LFz4ZMwOARdgoAcAiBEkVCQACHQtcAAAgAElEQVQWNVL5yD0PdOrl+35Y49+ogBJ9vo2cqpbPehVubACw6LEPABY9VvYlR0AO19of7uFIeWVHoMscgF/todW2Y0oKXYpxRz8mjrlvO5Oiz4RGTlSAJTKwCOJ0oFWP2WdllhCqf6C92x4/fbEBQLu0qdB1a4ZRfFbFl6K2Tx966CxIjlj2NIDe6ggKVKLM08g8JfNKLyNJ52FSZYOF2ZiL3rxyITg/m5Slpw8IYbloeg3cJMWV4IBZnA1VSKULsG7/OJ6BlaV5uxm00jZ9F8ua+nk1hh7magaT+Wa3LxGqrO3DATd7FrylrKg62r6HLo2c1vQkwM4Di58wmLhfkvenQVZW7HOiAcMCgOXSqmSqDZq4exZqS4YCgGUpXLaFOb8JNRXTbY93e6C8qgtQ9n7Q7NjtQJvoDwAWfQECgEWPlW1JvgkhqRvGlovPBn9fNU23gvMh/nbS195tAjAYcrhoD7TKJ7qEp3URnqfqwLjBKYRZiUy6T8bgoB63ZgFYYvTQxZ8C2C/n5ChAwgw2JA3wjzGz70H5BDPr2KqlH4IxY92FBlplykGYeMbHjs57zEpNCaFGM2W92iLQUm+TUgZYH2l6YIlgJDKxjHpgJd7XfaGQcXKhUKP8hJ8P3wGyaGBZhFf3WQdIaQdWODsHztgTfPnwi5zV6oC2qU1vg7EjVE3a5u36EsKMkkIBsA73eQYW15e+BxlYtC0TZGDR4hRkYFHjlLcc+wKHdjvA0fYKefsUVzDxzT3R0vJK/Jh5p7QGeuxEIABY9KgFAIseq/wkGyCH/fu3kpib3DgRYMXZXiG/tXF4NPsRIX4xxoafcVix79VZA1ja6ZDBUFaAYQKwFomeUT1iowluUuBILp8ZtmBtx23xYA9BNJ27RFP6X7ZdD8C8gbtbMCubXsbX4ZMfdkkePezUrLMBrIR+ylqRGqkbOEzSrRtHGkPZg3p/NGNKGWDNjQOsJLgScdKXEyZeI4Ar7emECuuLqsNEhmPxXeUD2knbHfSDa01GGR+uLB8xy1eB6VcXQvn+PwDonGrgLu4TTdP27H2x/A2whooSQh3A4piM2UEJIWEPiht/HkGueES2bleFEUf94rjDQQaW4yHNqpCxGlSXy94ZJFia83EHrFv/KMAvIEgHIm5HIABY9AgHAIseq/wkNwPKPpCP+SY/NS6MlmUJrG8/QHoEHLHD2oLLgQhIFZC7RRxQVDQqCE/lmgwss2lZgVqM5QZYNy6ZAyiDVZMUsKP3jQIl9Ho5/oxZff9mNk1L74989gLw6BMkCGekmBJTylwz4qMyhLGYdvpES/OhCI9ZnjqFMPsCpmsizUEXDMruJek1mBRpHMGBZHmUaKxYoj2w5nwYBXisXiyjUluALCvQSgu+xL/ZSlQdUUnZln6UkSpr7wLgSh+vEGdHN68c7q9GxFMau4NJK9PWQtxrRplY6md//AaK/acBw4/077eKAcDy4y1WOJ82R3fClGO/d9yBAGA5HtKsCsWphFu27ItJJ/zHO6MmlmrW1AJ8WEmcCumboOdwJABY9FUKABY9VvlLrkZ1+XG+a/Jds6YneHQZwAJ4lf8aazV8hS0tYUw+7n/OqvWvNsITuABYDZlN3CkP+DnhC6vHbTlKCIcsEiWLwm7mZQdoaR+Gsq/HK5jV9yRHl2vE04vBWV9bEM7u3ClrA2yBxPbAlNOc/wNbACyO+CmELgLIYsrSkpQTIZ9amk3cb/tAcwphnGKZQist1NJDK82NwcDBQjth2GHrHL1vvVLWc8aREmduQKZvlR333sPx7Mp84zJ59cNg7NJYxpU2QzEBqnR9sdKzsXwOsBZnnkIIPhmzzyrONHlve2Dlu7P8Nz4AWP5bEzseMXYFqssfsDPU8THjXz8eSkiUimzjuO5Aob0IBACLHrcAYNFj5YRkFEdiQvifTqhyRIe86lCgTHx+7emIvkBJegQ4VkIu7+k7aOnSOtkHWAmHKLDE2Eo9bjvHuIm70H3t4t3QnotvveJPNB6BrGZsi7l9Rclf/tfQuk4Idd4gGiAlldmFb3pvKHpyr82HmHb67/KfpIEGPcBK7hUja4QtSNljfu+dVfIAK5GBZXBYRgJmJd9K/CMHuNKeYCjheAw/apUre9kDpVJl7XcAdnLSFAfm8xVV/Z3UmbeueZF2WMd/BkeH2O2aDWLFSwrjIsnyQsYCgJX3IlhQEAAsC8EyEA0AVn7x881oFgGeOhayXNhei/Lq3QDpC1I7Ct/ErgQcCQAWfZEDgEWPlROSHKNRE57qhKq8dcgry4DOLwMo2oOX8o6BJwrYDBzabbQvezc6PH8CPciSgZXLEQpwYMgNsIT+G556HwwpyELTa+AZYZop3d0wq+8bjsR55LOHQGl5L12XgS+UMkGKQxQ9qXnWY9rp2QEixV42GRVg8bNJZZMUn/V2KPvAb9lZEi/dDKxb30vPwMpoyE7MttJCq/R/X4+RXe/IZ8sWcmyosnYVd/qXOmPXKMuH+6un0JSmA6BEPzbOvNJlY2WUFKo0qwEjjvJxCeEigwws0QMryMAq5P1VMNsBwCpY6B01LLJ8OT8OcsVqR/VaVVbTeDs4u87qsEDe5QgEAIse4ABg0WPlhCTD56gu3x9gBt8cO2HAgo6ayH3guILW1NqC3kBUjxg4JPQuhabuBLID4PoFqRJCEjzQ7SijMRSAdePCeeBsQM79SfHHCiRh7PeY1fcfjtwTVUvPBOeLMnSZ+UPJrqI4mFOPdBWmn3Y/RY1lmVGiBxY/O5MhEbab3bmb7gMKODSYqale4phSB1g8noElwqX+KtVBK+3rab9qdScW6ofG9DyDkV17Wd6nPhkg9Zx5Hzi/0kl3FKacguUjX3JSZ966Jqw6A4wtUz8XNEmppGws9fblDRjR1b8A60YDgCWauN8WAKy8904xKggAVjGuWhaf2e2Qy2M9WQtx1azpAx59KugbU4jgm9gMABZ9UQKARY+VU5IKKjE+nN531CndVD1yU2+A+/uwJYavwfnnAPsKYGtb+wyuB+ObwBlXm80zbAVgewC7AtgbwAGA+pofr88B5QRfNvF3MFoEoqADWAnjdh7sxdhUU17zDKwbF/4RHH+jZfIQpkKDI3di9pnOfMs1fGkNwMdlXS+KPxQZyoZI19MCBXuitte3lKGWZUY9p2vibsTc7awXZQxBphDZWaUMsGa/G8vAMgNXKqNI7DZd+WDae5of1Gwu3gxs3BE3nfSz5b3qgwGhnjN+zzl7zElXFKX9Xnj+hq+c1Jm3rgmrRoOxyaoefQkhqaSQN2BkALDyXgeqgqCEkBopY7kAYOUXP1+N5hHIFRUFcYlzhpomcbpUt4LYD4zmjkAAsOg7JABY9Fg5JcnYHaguv94pdZb1yB93AfvpTXDsa3msewO2tB6eJE5ofAeQngBalliGPXU8hPcajwXHBWDSGQD2ArCdey5b1vwY5PAfLI8qogGUp/30DKxck7MGteox99zcJWyDFx4HhtdsN0Cn+JOZDfURZp95sCNrOHyJyIDQNIUnhNssOyv58Kf1kKA3XfxFTO91qiNzNFKiAixRQpjDR7tgjhIfvU+UfeB2D60QSreEcNY7mhLCOKFKwCzr2VapUwvTG8FfjFHlxoc+uLbRHVLca9YOUrOy1sHU6rXKig2t3xIVuGeLPjwTX3sOnPVMwav4h1n6SYPp2VmqSPymFz2wfA2wFi4AZ+emT5tPxm3nBE3cHbpVikpNALBSy8UQhcLfAJNWQFHeRFmHL9C8ZQPAy9Au1AUKOxCIHgfwswAmvuH22cU2QC7vXBCnxjVeCUm6J3mSb0GcCIxmjUAAsOibozgB1q/g/HmE2EtQ+HuQpP9AUTYDoY4A3wmMHQYePQWQ+gC8HT0YnkmuhhwuXN+pWOmgoxUG+UVOmoNQ6E607/Bf3HSw6FGdf3ml/G57bNm4IzqwSnA+CcBv8/PRkdFbAF4OueIdR7T5UAmNfIgSQs77pfMIwtDc4MAcYF3fsAcklnl8sW34QfKZg2/ZD7eeL5pl2r8GP9wF7XYQGU4dVCW2fda7QCmFM53nMMzoNdv+5ExG3qQDWJS5U2SMzHoFtLKuoc6pbHu+pAHWP6MQVdnqpc2s0v+s+T2ib+iebPSe5XcN5w9hdPhy1/a0y4pDlbWvc+AYR8wwNktZPny4I7qcUiJHtkKoWTSr3yrZlD3xoZgCVDFr2bKxGBowspt/SwhvWLgALABYTm2ZotcTAKwfAD4fDEuwKfQqpnQT97/5JTceDoX3giRdBoajxDmz5oM8kGChM1Dd9VkPLKVMyC/vAdbxE3B08tSuNWObALYGUJrApHcBfAHG/wtl0/fA9uux+8bN+Ppn8Yu7DB127ITN0W2Bll3ApD3B+f4APwKMiey2g9RSnWK7AoBFX7HiAVgfAfg7pNAz2GbjGgw7YaPpJMUhNf+TTkBUORuM/wVgO5iO8UKA43vUhB09JIjsttx0AKCsAVhh4H/K0ffAcA84HoEcFl8Wu3fNWdIBa3fuDYZrwHB6Qcu+GfsPNrY7AlOP/MG9CRdOM+0PAyOApfWZkuGSKWMOsETq9JCF3wFsx6whsg0+ckyd4SrMPiu//lDDl/QBxxJDv21BFyNNOkXUWERxImb1etW1bacHWGl7RW/VESBnAAgJW5uyb50qNyxlgDXzn1H122PDbCuxH/ICV4nxb2B0RdGWWEg9Z4wHZ2PzvycZLytTjtzyzAh/fesy4ZVKcLY8lk2VyKgSs9X82+i9tHuUNWCU3wEWdBlYogdWkIGV/74uQg2lC7DEKc6PAKExkLv+mNfKyZFrAYjPxd3y0uPM4DrI4YudUUXUIkduaO27chtR2kMxtgGMfwzgIXTAgxgV/ilv47esOhBlZdcA/DyAiXIcP2azZE4zAFj0pfc3wBKo/CuIvpXV5fPA8sjMUU/c6yIO0ekP8G3oAXJJMsQOxdjy913SbqxWXtkR6Cz+Dt3fU7tpxti3AJ8LdJoO+TBRNujtJa85B1BmFTYGuBpy+D5vJ+6NNcJTfrwHlj4Dy8w/MzjAmDnAEjauXzAHjKWaZ5rp1TwTpVwkTFOrl/FHMfvsS82mmPP9YYtmgLMqVcY1n/UeEGFQC98Rs3uvy2t+uQbnAlgElzNoFBXMmeq2uA+yzpECDnWDy1jplhDWvh0vITToayXClNb3SguzsmZbpQalRH7FlsWdC37Uuc2bqjUDq09rBpYx8Lakk3+vrBixs65LviUNrgjXvDwZkEbHGrgn7h8dyMqaeZWQ5w0YFfZ3BhZ0AEv8MTw3AFiu7Cm/Ky1FgMXwCsrQD82L/ufYZ/GYyO7owJ8AZ8cXdMkZNuKd8s6Yz8TvM/evWa92wk/tvwRD9i9w3fdCZ4FHAfYAsGUasO2/XXkorFq2Nbrs9DsofDqASs+naNVgALDoEfM1wOKzsZHVYJoDMFZERJYl4MwwGHu+8BmUvAZyhUxfKAck5cZz1JOjC3bxh9E+NAxjiJm/bvk57eXO2NhxSOuDjlygbKy12LrdPhhx1C9uTbFQeglP9ACurc/vFEIxuwyIw+pxu0kPLDHu+oYwGBqzswTCFKwCEMYiuPWs/Bp2Dl30HMB6GvptC2ipQTTfJ2bZXYw9hxm9TjdXlIeEAFhcpNES/DUyYzYHw1AQbFndBwnfSPMwgVqlDLBmvJUCWCKmufpepfe1Su2ObCWESXkOSOz3GH2MMyeI5rH9bQ09ZfqBUpkk0tbzuhhjkejy4fl9duXlQZbB8ivi9EHR6FLb0youzFJlg8l7W7yWAbgCgOXG2mTTGTRxzy/aJQewWh+SsNNUyPtuyi9wBqPVh8Gz7gZav00u6CXtCbnbfz1xYdzq0ZCk2KEX/rgeQZTPxISKNzxxR2Sx8M6VYGwMwN3r2ZrvZAKARY+gHwEWw08A/zOqK9yBLSqAx1PgKKcHynHJNyGHuzquNevfDu+2B9u0Gpwf5ZnNlKFvAGUE/iv9A/eEmwtg39ikvLo3IM1pzU4+0HOfOKaiJjzac7suGyQ89esAltYh0oO9bgbJMbwet5+fu4l7YujgBpGe3CVnLCi+0AHGOtx6lmjOZ7+527DFom9B7tRJZ31OD082CKTw0zCrz3JX99WIZxaCIb2JO2Wueqco60WRMZosBZJl+EO5XbJkwXF2Iiad6l7ZpqsLmqfyGW+mmrjbyrYS9vW9s8RL6gmEKSDGWCNurjjWkaaMeU7Z8vDyee2k7X7+ARxbWx6bNoA9pqwY7r+TR2pe+ai1/8CB6Q3cddlYiQwsMR/jvlgNGO3jDKzBDQugz8ACn4y55wVN3PPb1MU5umQAVmuDcyhXQ674u+sLVRN5EBx/dt1ONgMS74ZxHgGcmog4uasQD4D62f8bChuA8eXLChb3mqahrb/vRQZJ7ueAQjgYACx61P0HsD4FcJzrfZHkt3YBa3kFnB9AD5bDkjts2xE3HLjZYa3G6mqargbn93hiK93IhwiFzsbYrqK82X+XvGYPQBF9FA+hZaQ4NQX2BQ7tdgD6e5Q97JTbJnooT+TpGVi5FFqBFAx0gHX9grfB2BGWY0LxJxvIYLwct56zxrJNMeDyBzpi+51/VptWpj9cmqvLx+eca6O++T22eX0Xx1L7s9lTAZbZKYS0rZdhggKeKDJ6xbZBGGUeat1U6QKs6QmAJWCThRJBPT7WZlvps7hi6yl6GOyOm4/7n/mN5j8JqUftPDAMyNOzQcqKKpGp4J9LrmsPZfcNYKydCqaSt4zm31l7Y2kysTgacHOFf0sIA4Dlnz3nB09KA2CJ1NfzIHdb6EnI5VVdgLL3AOzpiT29EY5eqAk/47rtyWsORbPytg+ami8AOl0J+TD3Wk5Qgin64U56bQ9EOzwLzsXDn3+uAGDR18JfAOtfKNtyIm45IfOgMPqM6JJyRPRobaIPcFqyZS/Ix33ltFZDfXJTI8DDnthKGOH4Eu1bKnz/9//QVzth23ZPAKyPZ/ERyThcuQFyxe2e2fTAEOXpOw6wdKcQqs4RhmcDMlYA1nULnMnoUV2m+KwK3o3bzh5kaw2GPPUnMPZQxlhbYIXqr96aYSbQK6jtc5KtOVkZJAAWdADLbO6UdTHywUyv4TZ1MKYZYc+mWypdgDXtjVgTd3EZlQhmBVPx4CYyrdTxqd9WGaWI6vvSKRh37EtWtqtvZHvMPEpi/M18/FFCykF4dqS/vn0a98KlgPRwWvaVtg9W4pbJ2eBdEmsfAKx8NofVsUEJodWIpcuXAsBi7ApUlz+QX6Asjq5+aW+wjm8U5JQvxi5DdfkjFj22Ji5gTU2T+B12orWBjko3g7Hp+LlsCmp91DtFZLKgeW6sObZPrgBg0RfCLwCL4xeEcDzGhf9Jd94BSfVQCjY3+fewAyrJKiQc6cl8xzeVQ+GrMhM4yJ7aEXwLG3GqY/3L7HhgZYz87jbApnsB/nsrw/KU3YBNG/fG1JPbzImEhCf5RAmhEcBKhJOgRg8orACswQvGteZW1GRdPDvww2wM5xuwY5ftIfdosbxpbnzqeYDlrtmngBe9YTOfhXzuTKLZmNlnmOX5WB1gBLBybhWd05R5GvlEiSlFJiPuJGOZQmnzKGGANXVNFAxSdnhlUB6YLA2MEystuBKR1v+svsYBJlVh7HEzrW5Zv8hLlTPW5jx1NZejDF8qy6v29stckn6MfXFlayPT7urPiTLBtP9S+2IJgHWsfzOwrntyARhLP4VQNHG/Iygh9N2e9MKhtg2wFAD3QC4XD2T2Wy3YXQe58XaAXWd3uO1xnN2MmnJ3+1LJjfsBTJQ2FeraAsbHo7piUqEcyGl3zscdsO6nf4DhLB9kqAEBwKJvE38ArF8BnAw5bK/Chj5bY0m5sRFg3mYnCU8kdgrGlbv75W4dD+H9NW+Ac+sVU/bj+h1CLSdi7HH++uLWbD6xbOKXAXgXK/GZWR1ebOZasbxPIE8ABokm7hqARRplKlSPOy+g9cC6/snu4FgZewAy1UuTMWQSOt3N0v6466zPLC3mFQ2d0Zn9KJ6kk+NIPhs6ZG7aim5JOgUzerv7ASY8zgWwSNM0yh4jrLteN6UskCJj12ftOBYq3QysqU2aHliJZx0jaKXpayViZ5ZtpcpoSxLVF15C9YmnmN84/pQIVdau4sCxtrzjeEhZWXW5rbFuDRr5cmd0iP4Ilvg8jN9wSYBlUFKYcUph8iZtwC0BwHJrqTL0BhlY+YW6LQMsxl7DO5+ejPn9vTmRT78S8qs7gLf/N1i+PQMtLjHDXFSHb7A4ypr4+Kb+UHjhDiNhuBZ80TzXW01Yi0q6dF1dCO/t+38AuyQfNY6MDQAWPYy+AFhsBuTykXSnHZasabq0tRfWww5rNVfHeF9UVzxtLpiHhNx0JMDfykOD9aEh1gdjy5daH+iDEXJkKwACpB7sjTe8HnIFjbt441BeVmhUYNATGoBlWJpGcCJjHB1gDXhqK5Q1fw/GOmYYIgEc2jQzJ8FPx9zzniNMLiUydMERUEJv5xxD8tlIA2Ee2XV/jS6d9raVUWYpAAJgLdOUEBJ81uunQCVKDEkhpOxnwhzMfGb8REzqWZpN3KcIgCVKCPXZVPEF0jdjV1/WA64svbPUl9MSAJrB8RvIJ35rddv6QV7qWXs/OK6w4wsDvyK6YoS35Txmjo594QhwLnoYxiQzSgc1JxBmy8oSaVux4Q245Th/Z2AZNXG/44KgibvZPmmL77dVgMXwC1jZyRh3tDen0WXbG3JkCoBR3m6dVrAkV7hb9iE3PQHwC7ydl2pNZNVNxH8x0Vend2ULRNWyrbHNTn8rUKxSXgUAi75VCw+wVqHLrpUYttdGutMOS86LtMPXEM+Iv3NYc251DP1RHZ7vqs2ayE0QJ955dXF2K977tKpgX6Q4MU95zSmAIsCigFluX1vQLB2ESd3+5bYhL/QTnswBDHyiDoz3yyxPozz8G01DHUcHWEL6uidF5lDu/k0UqEGRSbrMRmHuOdMsLcTQhedCgTiNKr8eYVqjtsreMgbdi1l9820QTQtF1TLzJu4UTWZQSA0xbQtnmKPElCKjV5zN51IGWJMb4yWEumA5Ca60ICuq/AUTTnmQssX8JhOqrL2EA4/a8SskseObnxsueg/457rlxfMA5cm0+zQbxDLvixUALC9XNsjAyi/abRdgjUN1eEJ+wXFg9PjIsVDg7ecdwzJUh3s74L2xCtEbhW1aC847uGYjm2LOn0BNxUWe283HoLx6N0ASGR+75KMmr7EBwKKHr9AAy4syOko05KYbAT6bIuqYDONXobrifsf06RX1qwvhsH3fA9hBrtlIV/wW5PDRHtly10xN0whwPt1dI3HtDP74/e3AZGlP/wJgiRJCvTQJMGTzklkDWNcvmAjOrX+TTQEc2WWew9xzT7cU5xsapgEslp5qC4AQloQSd73TnF+IW8+qtzQXu8JVTy8E2Nlpw+34bGSfooey5nrdJL1kh9IFhW6G0s3AEgAL0DRxN8iuMj5V0KhEMBXbBLTSlxoy1KHm5Ivtbt+Cjus5eUeJt/+ORr/TPVVY2W5YfqO/TmC8eeUMgFUlPwu196a+aXu2LK3E65w3YNwJQQaWVxs0AFj5RbqtAiwou0M+5pv8guPA6FmvdsL6dj8DLOSANqIK/hrkihOIwtbFapouBud/tz4w3xH8Q2CrMOTDNuSryfPxk97bHc2/fgCgi+e2hcEAYNHDXliA9Tze/ew0X2TrjF1VjlBZhB44ByQlNhTjym91QJOxCnn1KYD0gmv69YqVaG+MP3aZZ/bcNDTtg874dcOXYNjWTTNx3S9DDp/sgR3XTRBoSTwDS9sDK+GW0WgKtImVilgDWNfVnwueyGyKO2ALVBCmnNL7Kzr8tAtq//QLeSWGLGwER/YGfZT46I1R5mmml+FgzDrzI/I88hFUARbSAZZRd3kzn6k+UPRQYpgRdyMHdMYotoUaqYQB1qTVsRJCI0iVrRm7iJnhe5o3MgBW4j32Dsaf7F1jROo+JcqFKmtXc6CCKB4TY/xzZXnV/gVpqJzL0dHL10CSusZ8jN8suSBWslxQ0xsrJe9vgHVtvci8zWzifldQQmhpL7cV4bYIsBgfhuoKbzMHcu0HOXIvgKs83DJrIIfLXbMnR0Tm8J9d059NsRQ6CeO6vuK5XacM1jRWgzPZKXWW9AQAix6uQgEshp+xGQdjcvhrurMuSs54a2v80rIO4O1dtJKummM0asLulffVRO4ExyCP5vMg5PBfPLLljRm56TiACwDo8p5gP+LQbjuhPytM/0oHo0mgOQJgza8DWL+sdm2BLFaPu4hN3IXhQQ1HgkWNm8PZghOEqat6lV6Ye/4zpJjf+OR2UKTv0xq4ZxtIBR/a8ZR5Gq/FD+iy9S6e9L8S/g7XACw3M5v0sSXZIqy70ZpR1iuXTCkDrImvpzKwDPtgJXpjZTRkT62EtkQw499CLK1H1iaEFHGC6CbSfeszIamyVpTn3GLJLYZqZXnVeEtj3BYe/dyOgPQdmPi/xM1hAKbofbECgOX2mmn1BxlY+UW77QGsryCH98ovKA6PliPdWr8sa3JYay51b0MOH+WavZqm1eDc2pcX+TjDGIfC70JN2PsTHfPxWz9WLV/aT2S0eF9SFAAs+koWDGDxp1Fd0ZfuqAeSNZEF4LovvNw1OxZyeKJrJuSI+BwWn8cuX0wB2BGQu73nsiHv1cuNLwDM/UOoGL8I1RVPeD9BZy3SnuZVgAUNwCIM04tkDqnHXRfRu+EPeHZblK0Xp/uZR4ACeoy0GI1jmIG559FOrLj+qfPAlCczVFP8ocAXqs96OYbxmH1WtXngHJLQAixDnzMdzIwZQYbiLgk8EfYUyZ0c2VkSK90SwomrYgDLlWyr+MJoTyMUL3HlGkzsMY+yRfwmE6qs7cOBJVb8UpToXnj+pq+sjHFddvTKiwBlfuwjW5t9ZQKxVPX4+kAAACAASURBVHGNfPK2Yg2o9nEJ4bWPLwCYQQbWhdZL311fHIKBAGARgpRDpO0BrIcgh/11yinnDOObfgJH5/wWizz6Pcjhw8jSVgXliCgf38nqsDzkPwF+PsSzLzfzcNR06LjG0yEx2pfNpsosCAQAix6sQgEs4PzWfknx3sR0d12VlN/4AxB9xFUbWuWMyagur3HFnvo5vOZncL61K/rTld6N6vJrIeB7W7u8OoGWs0bUlB9T7OGjPbkPrCMALIIqrQiDNYAlIn1d/Rvg3OAbFoptgox+NdWHKL4Ct5/fk7TQ1y+YA8YGk2RtQS3CHDL0smaUlf0Gtb28O5Vt+BJNCSHF54zAZ4aQAqIogafooawNweU02BoqYYA1QQAscQph/NLCJv0pgtn6WqUGpyKfAa3SsrA+xMTuhxTlL7nTpx8oRSUr5b7fKCuqdqdsf09lRi+/E+CD0uGVwUmEGSWFwkvd6YQxmQZUn+jfHlgBwPJ0e/neWJsDWOx4yOXeNk2nLLIc+RjAARRRB2TcA1hy435g7BNwyre0DsxE/ZhlI1FdPsMhbYVVM+fjDlj3k8jCOtxTRwKARQ93YQDWZ/gvfue7kzXlV3YB6/CNZ/e7mwCrpul8cO5Bj2X+P3Rp3hfDTijcKZL03W5dckCkHfbAuwAOtD7Y8oidIYfXWh7lowEEugBgQBxgkbKECCqFiD2ANQycz8wdP4p9gkzSCPscd5y3H2nNrl+4Eox3J8lqhSjAhAJeMqCKOugj3HrWwZZ9ymdAGsBKm6i5Vso8KTLmlsyb7FPWxciOkX8lDbBei2dgWSwRpDR2F/HPCsSU32BSz/9QtoKvZMrntZO2W/8jOCMdq8uA16IrqtxrLGw3OKOeexHAyZkZWAb9sGh9sRog+xhgXfP4AjBdBhYwGXcFGVh2t1BRj2tbAOsdyGF/9hWUI68BOM6jveIiwIpUAfAQJrH/4vv/7Ye5fTd7FDv3zcirjgTKRClTmfvG4hYCgEUPdSEAFuMyqivcyTyiz9xYUo785NnhA24CLLlpGcDPyDcchPH3Qw572fOQ4JLDItWNI8HYNIe1GqgrOxby0avdt+OeBRrJSQAs6sN6hpyhmXrMs1BCKHQOadgVW1pSp9+QvCcI5QYVUWyUtsdfz/3ZdBmuX/AFgN+mydmBIJQxJJioNnduwK3neJu1IAAW1zdxt3sqI2HTUWNhtoAUPZS1MbQjnYhpPV81c6FNvj/+VU0JoQHE0p8imAxCWkZVemhyZnHFx0m8Jyb2XFGMMZUqZ9wDsKuJvj+grKi6gijrndhNz30J8N+oAMuoz5XwRN/YPaPRe6KUUJVtgHySt59lVqKlAix9TwsWACwrMWxLsm0JYLndADifdZcblwCsTz4qLIx1EWA1vdCa8e9+/5PEZBluRHX4NgtzLw7RmsgacMQODvHiCgAWPcqFAFi89Uu0mvDLdCc9lKyJfAGue2Z0y7xbAEuObAWG9eBw+zRYBc3SfpjU7V9uhcgXesevroAiuQ+WGLsM1eXelbC6EFwC3dFkYFEcIGXHqELWAZYYNehxcYrEbjFXdMZIsyEI6SEFY9fh9vPuzDn9oXU7oLm9OMI+9zc/dgAIZUxW+MKvwW3neNsLaOiShWAGAEsfQAowMgo6ZY9RZJzaz5T1QQkDrJpXMntg5QOtcvXSUteUx3q6K6wa0yr91dicsueEzCkzu0plfA1FnHHlz9GVI/9GkfVMZszS3dEifQkWP+JevR91ZYGJz3Bqg3fwBow/xd8AS38KIdhk3B1kYHm27/xkqC0BLImdgnHlL/kpvElf5MhDAP7kkW/uAKx5kXb4GhvcP4FKE6UQOxRjy9/3KG7emZGbJgF8jGcGA4BFD3UhAFb76E4Yc+z3dCc9lKxpehOcu3cohHYqbgGsCY0HI8o+cD1qHBvBQPqb2HVfXDXAOwAs7KqJ2N/ed0IuL+rDOwg0xyLASrthchKLeszrR2/inlA16HHRg+HYdM0G0yDNjCAUe7h6E3ecL05XyN407vr6a8DZXbF9QdZrfY+SdMfVckSh8L1x+7n/tW4ojxECYIGfTY+FkS1KDHPur9ibvgFZJQyw5DjASoAldWHikCm5hHlmWxnrbMKU0zz4RZDHvZJjqFRZK+rTdzTRzjuUsd9ufGb4l+54YVPryGUjAEyPQSvNTSj+nYBZ2s9KPcQy7IsFfwOsgaKJuy4DiwUAi7yDGPxxxDnZYRPBjRsPw9STf3BKXVKPvLo3ID3tuN6cCpXdIR+Tyn731nhuazVNE8G5VwcluAOwJkV2RzO8/DvtC2DR/pBlxU9L6YgvE946GNFmcUJZqu+mI4qzKAkAFj263gOsVZDDx9Md9FhSjsTaLHhxuQWw5KZKgC/3YgqBDQcjwPEGasIenBrpoM86VQRKEAdYnGtOISRCGr3fadaYPYA1cP6jYOySjJBQQIXpbLMKiLaaO+OOC7JT/OueFM0jy7MuFQk8mTqYqT6XXoZXcNs5J7m3fbJo1gIsIxFSLHJuHmPDlIwuigwlYBQ9afMsYYBV/XIsA8sOtKJmWyXXLAHG1IEKQso+mNTLX3CHsr8AtJ5G+HrraYQmJ4XwD5UVI35HVOmd2MilH4Kzg1SDagmh5lkimY0Vv4kygJbBKYWqHhYALO9WEPD2FEIFm9p7efqa+5GccsSPrhwi4TnA4p9DDu8v+hG4HzQbFmoig8Exx8ZIO0PcAVhy4+EA+6cdh2yNYfxPqK74P1tj/T+IoTrSBOZRGWEAsOg7wmuAJbG/YFz5g3QHPZasaVoCzr0pf3YNYEVET6p7PY5cYC7/CLTg0E5bo/9hW/JXVRgNNGJyVV0dmA5gZfAFmqrUMFaPe2xkYA2cfy3A7sgIl948CTBQgp5QxI/BnRc2Go648cnt0MzWAZweBBLEoatL8yulewTmnFNLmaWjMkMXpzKwkk+wJhZI8cjYdOZu2wKbduOewz/GT8S0XqXZA2vcS3GAJeITfwbSnyCovpWryXvivcT4RKy1P+vfEzqV6zC9V+7yX/NdVBAJqbL2rwD+kts4v0tZMeLagjiYzejgJTujg/RteqaVENZkYyUhVvx19T8JoJXlv+IUwgmn+reEcOB8gwwsTMbd/bzKDnF2G3gNsOSw2z00nI1PobR5DbAYm43q8mGFmq6p3Zqmi8H5303lnBFwB2CNbzoZChfZGO5fHL+AddoBcvE+uJgGSY6I1gFjTeWcEAgAFj2KngIspgB8V1+ftFYdqQNDenIIPZrWJN0CWNWR28BwgzVnAmmfRKAccrhoyzJpT+pX/b0OQD9nS+NsAqxr/n44eFn2b6rcAlmc/xF3XfSw4aa75vGukKQ1pPgYKSDBG9pSpannOAm3n/uK5zfKjXGARYFHeudIsTAMovk0Kf5QZMwtZZYuMpQ4wOKpFBw9vCKBKxF0g7JDlVkZgCv1ZSGvNGBGb/9Cjxx7KdRjxh84YzmbLDImXRJdPsyrhzfKzgeGLj0GIf56Ws8rMTJb5lUazIoLGpcU+hxg1WUpIQwAFmHjKAgAFiFMrSJeAyyEzoTcdQnNuQJI1UR6gMOrwzrcAVg1TWeD84UeRc+/J0o6FQD5jb5AdLFT6nLqCQAWPcyeAiysgxw2a8FA990NSTki2s5c44bqDJ1uASy58RmAne7JHAIjzkaASX9CdbeizcSlUZEEwHIUvtgEWLIs4ZvDvwHnOxs0OMr00GiGFEiRCcIewB0XGp/0df2TF0LhjxvuLAqQsQVxCEunRHfKWfbo7K2Q0pYAWBnzMtxA5l5QYkhZUzv+UDL5zGcgCuhKF2CNfUGTgRUPFglaWcy2EqpVvWnjPsSMXv4rsaPsmZ637yjxzd/lyuxUOMJYWSWODffPVfX0ZeD4v2T/OfX+1dxIGZlWwnWD7Cz15fhY9T+8ARN6+BdGDqxbAG5wCuE9AcAibM4AYBGCpIp4DbD83ARZxGP8m12htHj1LbJLACvyZ3B4VOrEn4Zc0Ze63YpSTm46EuBveeJ7ALDoYfYWYH0COXwg3bkCSFZHpoBhlCeWXQNYkS8Aj05S9CRQpWSETYZcXpwVAkYtrg2XLhfAMmQSJnAl9lBir4RQ2BtYVw/gfGOARQA7drK0JPwbd1y4j2Ej92vrbwX4EBpQI/hnO6ZpA1/A3HO7F+RWzAaw7AAkO7GIPw+nDyXEnQKrKDJGPgcAS0qWCOr7WqVlZBllU6X1tco8SiEBrQw7tPAtCG29myvNlD24uUI9ZjRylv1EEqWdtCOWDVvngSt0E8OW3A/gilRJoA5QJe9Pqw3e0YBJPgZYV9ctAAsAFn2jpEkGAIsaOE8BFt8EuaIT1bWCyMmN+wHsU49suwOwqptGgvFp3syBzYbs45JQJ4Iwec3O2KJ864QqUx0BwDINUVLAS4DF0ITqsL8P8alZcxO4MpUewDwk3QBYsdNTfwVQlodnwdCCRaC19F6uyOwpXjB/rBkmPNUDsAqwEj7kypzhrB739bd+CqHQPWD+jWB8tjmgIEzPCsyK8kNwz0WZx4VeW/82wI8w90e3OJTMIv16UsYIGSnUG7edtczadnBI+sanFoIjdgqhuEg+G9mmgFATn+0CJ0pGF0Um4V4pA6xbnk9lYGlL/kRskvAqF7hSBbODq/jb6TtBK89HorbPDId2t6dqpMoZEwFm/A0JY/9Ulg8/0lOHTI1xhqFLPgNj+6SSrjQnDybKBdXPhfj/JDOyEj8n39T3xQoAlmn8HRQIemA5GEwHVXkJsBi+Q3V4Fwe9d17V5Nd3xJaQOLHVi8sdgCU3ihNbxcmt7l+MX4XqCvElQ9u96upCeG//XwHe3vVJBgCLHmIvARb4C5ArCvMlPjUickSUD8ZOr3f7cgNgTfznXmjZ/G+3XQ/0uxaBZyCHe7mm3WXFBMID4ErRA8uBUwjFZBIPK/kArIHze4Lz59JiQwIVhOnmKjlkGIw7L7o9ze5Vj+6K9h3E8ceEI3sp9gky+k2RCYh+wE5v7lSwI5L1AMtoE9uCWoTY2NKrbszctxplf+WSKWWAdbMAWPEeWO5mW2kgVxrA+ga1ffZw5UQwlz+gQz2m9+VMMu7lwXCjsrzqNpddsKZ+aMMBQNlH6g2lB1OJz38txErcevpTCvU9sGL3ZwMmV/q3hFBkYIGfq/u9NBn3XFycKdoBwLK2972S9hJgAV9ADu/r1dRs2ZmzpAPW7bLJ1ljrg9wCWPMANsC6O3ZGRHtCPtarnmF2HHRmjBwRJYTuf8ETACz6enkKsLAYcvgsunMFkJRXXwZI3vQgcgNgjY8cCwWrChC5wKQzEVgFOXy8M6q810IgAgJgPRZr4p7rooCDtPGS/QysK+sOQAgf5/bHkJroXiRMXyvC2XzMu7B/mpJrn7gYHJlNlAmqTaFJ4oHP+r54DXecf4L1YQ6NUAEWT2VgmcEh6jwpEMlw2QmLYSWbKmGD4k9CRmKl2wNrzApdD6w0uBSLZiIzy6gMMLOvlWaVs5UX6jK6FLYvbu0javWL6zp9+oFSVBJASH9FlQ5bdsfTY77z1YSGLBwIJt2t+pT1VEH1zVQGVvzHnKcUqvcRb8Dk0wKA5dWCBwDLq0hbs+MlwOJ4HzXhQ605WABpubEFYF6cYukSwIqIwzr+4EnkQvx3GFvxoSe2CmnEqxPeAoBFX2UvARbDfFSH05/X6J56Iyk3XdBavfOEJ8bcAFg1b5wJHl3kif+BERciwN+FXHG4C4o9UUl4shcHuT9WBxbPwKKAKooMUI/7fm+vhHDwkg7YtGE9GGjpwSQ4QQrFW5h30dFpK3PtE3eD84Gp13R6SGoJQrSYxt3gc3DHBUM82UFGRm54aiHAz87kVg7NkwKOjPyixJC0V3TKKf6EShlgLY8CIsXGximC2U4YTNOVDYglbgcVZvXB7DOXFuyesGt4wLx20qcbfgTnW6WpYPhSWV61t121ro0bsvBRgF2iwittppVZ43bhUEI+W0mhaOLuZ4B11d8zTyEEm4z7ggwswn4LemARgqSKeAmwgDWQw+VU1womJ0fWA+jsgX23AFa8r6sHM9j86y6Ycoq/vvhwY9rVjbPB2I1uqE7TGQAseoi9BVj3ojrsUVYjPQTpe6epN9B6qIIXlysAq+lScP6wF+4HNtyIAP8ccsV+bmj2QieBKOgAlm0wkGHKPsASPgz4+0Jwdjapv5LeZwpwMMoa4vgZ91zUJU3dwPkvgbGTkq9RAAgp6gShbEAmih64+/znvdhAhjYSAMtW3A00ugaeKDE23PDmodWrDkmlm4E1+rkUwBKRczvbSrWhTeVSTyacitlnjzZfOP9JSJW194pOhFrPGPBidEXVqb7zdsjCRgDhnKcK5gJbYkLifX1JoXhREiWEPs7ACgBWPtsxAFjU6HkKsPhrkCsKl81Njknkm9ZeMrtSxfOQcwtgiSyGM/Pwy8rQrSGHRePltn2Ni4yFhPGuTzIAWPQQewuwZqI6XEV3rgCSY1efipDkzbOaKwArMggcdxYgcoFJZyLwDeTw7s6o8l4L4QmeALAyQAVBLRNN3G1mYAl7V9VdBMbnG4aMAjwyfDZ9IfFkdSrmXfhiUnrg418B2DP5s37qFFhGCJeFcsNv0bzXb3BPuNn77RS3eMPCWAkhZR0owM/W/jKaPSHQbvnMpRMxq9erBVuTQhoeJQCW6BFn1Kg9AZsMmrSnyZs1ec/RED4Gs97HbWf7vxTGaJ0qZ3eTEG1Ke4vhTmV51XWFXFZD2zcsFM2Ud8yaTSUGJbOz1B80mVfxn5P/0ZxSGLt1GzD1dP+WEAYAK5/tGAAsavS8BVj+b4Qs4iZH/gXAi4xUtwCW6HPYl7oF8pLbvbw9BrLC/X2Yl/MWBo9rHAGJTbcwwp5oALDocfMSYIHVQC6X6c4VQFJuOg5o/ZLAi8sNgDU+MgwKZnrhfmDDlQj8ADm8gyuaPVBKeKIXAOuROjCWuweWkbO5YUA97r/EXgmhsNVnSQf8Zv3PAGuXNU4UGKEfbA6cHsG8fpepwwbX7YwtkvjmL7OBu5EeCqwhrUhOob/izguu9GDvZDcxeGGshFB7UdaCEp+M9SIEzHxNjefipM8lDbCeiWVg6ftb2eptJZZKB7v02VYJOxmvs4Mw5+zcvfMKeuNkNy5V1n4PIPmLhjH0iy6vetxX7g5deBha+DuqT0YlhPrMq7SftaeVxm9YfUmhAFjTfAywrnwss4SQYTLuuyRo4m6+UQOAZR6jmISnAAvPQg6fQXWtYHJy5BMA+3tg3x2AVd24GIx5A7B22LYjbjhwswexKqyJcatHQ5Imu+5EALDoIfYUYGEE5HAt3bkCSMqRbgDSv5x0yw03AFZN5CZwTHXL5UCv2xFgGyCXe1F678pECE//cYClb+JOebg3cjk1Lj+AJXRf9dinAIvVb1L8ocgY+qx9kW3BOt4Z8/tvwcB/VAHSjNi7hFB6kZ0lsYtw+/neNAXMtiWNAJZelrIWfgBPaUtvY40Te6OUAdZNcYAlYpGAVhnN2rUZVhazrdKqBfWlg4mSRWFcGYE55/n7D5os91SosvZ1DhwT/6zhyka2E14bts6V3wp2lQ5umA0g1XPEtIm7HlTFDavjNPdaSk8AsOyujZ1xQRN3O1Fzf4y3AGsJ5LBXpW32Y1cTeQ8ch9hXQB7pDsCSI08C8Ci7NLQ95K4/kmdcrIJypKb1l/44190PABY9xF4CLMauR3X5HXTnCiA59tUjEGr/tieW3QBY4xpvhsQmeuJ/YMSFCPBNkCs6uaDYE5WEJ3IAl4sMLJNTCFWGQ1OnzoyzejyQRwaW0HH131eAo0fWSFH8ocjoDXDlYNz7+48wcP67AI+XJZHoVLom0hCdkFmIJX4Ibr/oA092TzYjFIClH0tZh2IGWjxUuiWEIwXA4pkZWLEPglRPrPiPsa2hg1gZPa20YMq0fDCx2xZj7rn+PlY5yz0lVdY+ID6J42+/oayoEt/c+efqVxfCzu2+gcR2Up3K1rQ98Z4+GyttjPpD+u8TIc/RgBm9PHrIsxFakYHF+bm6D/nJ+GuQgUWIZpCBRQiSKuIpwGILIZfr9jTVUQ/l5Ma3AXaEBxbdAliPArjEA/8BhPaF3LX4TuS1Ghw5cheAa6wOsywfACx6yDwFWPwqVFfcT3euAJIT3joY0WZvntfcAFjVkVFgmFKAyAUmnYlAM+Qw7TA8Z+w5qsUMh8SMCYClzcCijDIDEs4ArLnguJ4UETN/zN7XGuGsL9qHVqO5ZS3tpD1CwByBWXw9Wr7fCfcMLGx/g+sWLAQDrQeW0eJR1qLoyg1LGGCNWBpv4p52EyUZVfbTCePySXhlkJlFKh9MZn59htvP96LMhPSRZEUo1LP2Us6ROO1lprKiyl/NSQfU7Y127UQfGgN4laUk0LCkUFVg3BdLlBD6GWD95bEFYAHAsrKvNbIBwKIGzluAVQ+53H6rB+qc8pWTG98AWPoJ0fnqNB7vDsCqaboHnF/tjst6rex4yOWrvLFVQCs1kUXgHjTGDwAWfZE9BVjsMlSXP0J3rgCSt6w6EGVlH3li2Q2AVRMZDo6irGrwJOb+N1IKAOvhdIClpzYEPpORneUEwLri0f5g7B+WMr8SG4oESbJNjNWAsUXgijhxK/MyhSuEgBmJmOpVpuCufmMKfs8kAJZdOGVnnO+zswKA5XG2VfpJhDHQpaBj2a6YebZoNF5cV/fanSQJ6tHnjOH86PIq0W/JP9eg+lPB8HzaZ3HWEsIE0LICtlTZAGB5ueJBCaGX0abb8hJgMcxHdbg/3bkCSVY3rQbjFR5YdwdgyRHRisKbLyU4uxg15eJv+rZ9yZFPAbh/RHwAsOj7yEuAxZWLUXOMv/e5/MY+QPRzegDzkHQDYMmRawH4u0wzj5CVwNDNkMMdi3WeBJIiMrD0AEs/XYtlbrHh9Xjg0vy+2bu8bjeEov/NaEBFgVMZUyCEIvlAhlfiR4fS6L4peFIfS833UM4sLdaC6K97454/fm2uyGUJAbASTdwpa0GRsbVeRvOkxNlExg4sY2WlW0JY9XTsFMK0vle5sqlMygez9ryKr3ciKystOytZZjgJd15wi8t3gCvqpcraCIByhfGjsHyEN30TqDMZNH8wmDQns/RPB6vUjzpNhhXp52RWVwNm9PZvCeFfHjFu4v7XS4Mm7ub7KMjAMo9RTMJLgAU8Bjn8B6prBZMrdoBV3TQSjE/zJH4M41AdnuCJrUIZGfxxB+z406+GByw57VMAsOgR9RJgKewCjC8XveX8exU9wGq6DOD/598AB56ZROBXyOGtizVKhKd5CsBKTN9AXXYL+QMsYfbKRz8A2MGGC2AHjCQeqHKvaBSMidMH97S08K6CLP4J7up3oCV/3BLWAqzk1iBsNTvrRRljBzjR9oEBd8wyz5IGWEui4Cx+UqeFMkCxBtryQSq4Shun1SFACF+HnXfYFXKPFre2v1t6pR61k8AwSunQfns8fcN6t+zY0jvo8SfBWBwu6TOssv2s3mQxc0ZQS3sPxsoNG1AbACxb62NnUJCBZSdq7o/xFmD9DXL4z+5PKk8LxQ6waiJ/BseDeUaBOJz9A3L574nCxSk28c090dLylSfOBwCLHmYvARbY2ZDLF9GdK4Bk8QOsswD+VAEiF5h0JgIbIIfb+CmEIgOL834Z8aLAg+zlhs4ArCsevUe0c08+BJktKslnnRLKGIqMkW9OQC2hg+Ep3HXROWbT9+R9I4ClN0yJF0XGMKYUWJbhkHloKP5kg2WlDLCGL471wDIEUK5mW8XXVGNY/FPhB2HeRR+bL7i/JEI9ZvaFxEdHl1ed7CvPOGcY9MQPYNg2rX+VcFJ7z6iQSnODJKGVKqjpnRX/OTE+Bq9iTdxn9fFvBtblBhlYwGQ8GGRgEfZrkIFFCJIq4inAYn+FXH4l1bWCyclNrwD8BA/su1RC2OTdgyDjr6G6wotYebAcWUzIa8JAlhYfTnsVACx6RL0FWH0gly+lO1cASS9BqxslhGMjxyKEtt9PrwBbwxOTHD+hJrydJ7ZcMEJ40gfw5zjAokhTHvJjUKseD+ZZQii0XPXIn6CwhwxjQ/GFImOknDKOIqPXTcoWMhJi12HehXe6sEesq6QALE9jSti4pLgbOE1Z4xhgPBGzznrVejDbwIhhi6PgiGdgifkkTh6Mzy3XCYPGZYCxgbne09IylV9pbEbZubj3woVFF9nTpm4L3m5XLB/uTdNPaoCufaICUb5aFVf3eqJEMPFCrsbuiQysuGyqTDszO4sznwOshzNLCMEn48E/BiWE5nspAFjmMYpJeAmwOO5DTdij5uLUABjIyY2vAMwLKOMOwKqOnASGl/KIgJWh30AO725lQNHJ1kT6gcOb/kcBwKJvDy8BFuNnoLriWbpzBZC8+dU90a69N5mCbgCsiav3Qov0b/cjx9eBszfdt1NiFhh+hhz275fCJstBeLLXAKyEMsoo8wf7ejx4WX49sIQ/Vzx6PABzMGDuT3p2AHUfu6VX8+yXcsUQXIm3o2jP9sHcC735IDSLzbVPWuuBZaTPrbiS9OodImx4M71SCQOsoYvipxCaZFuJsOcqE8zd2yq+aLpsq4RC8XLiLYY5uPuiIWbbOHifGIEBdaPA2JRU9pUBxNJnXqmfb0bZWLlKCgOARVwRZ8SCEkJn4ui0lgBgZUa02AGWvOpQoOxdp7eKoT7GOCTpYIztWnRZyOT4yJHbANxAls9HMABY9OgFACs9VsUOsOSVZUDnjQDK6JvAluRXkMv3Fj1AbI0OBrXJCBCezAXA+lsdODQlhLphFC2ZD/gOAazH9gD4fyyvjhlw0D9gWTHglu6sWUJ8Feb1FyDPH5cWYNmFUxkMibDJKHG36w+p1FOnXOtPKQOsG5+KAyx91lQuoKWTtZttlfx1l/iH+t8vMK//vv64WdqAFwP+v70zgZOiuvb/71b1DDsKFRBaygAAIABJREFUatRETZ5mVePGoImYRNxFcQdFQXFB45oomORphAKXmKeJBnFhUVkUFRQZNFGjoFn0rzJjNHFJXhZ9ZnFfAFlmurvu31td1V1dXd19urq7urr61CdmZrrPvffc373VQ33nnHPvWwFVb8K6R+xAu0zUoZ0aaH/1fqb6pRS6bbLRWNmbrxM3HBHdvxZNXLgcUhydt6JCpRByBBZhl3MEFkEky4QBVqFSTQ+wnv4M0Ocd6hao2k5oCzBtr4lV9xPVDozu1wH5hVDcY4BFl5kBVr5WzQ6wrN9Hq/8OiPqf9tmT3hI/2ecD+mZjy7grQKACfgCrgC4U6lSuZyFqA7AMqeHNxf+BxNZZJ4KADEobik1gQFJOMJ+Os03kjzD7xHBOsKHcEec9oNKzRmdMCfMKoiulDcUm8HoR7gG3iS5aN4XwewpgOWSjVPpgAGjlBlR5jMoR3xV65f7bjTD3wOyTXqJsZ7Ypo8CkJS9DYJfc7Z6lV9lVz0VbuSKsrI+HYj+7PjtyKYmduOHI6AKsUxcuh2CAFfB+YYBFFS5MgAXcCqNDHZUe7avZAdaSJTpe2XENBMI6ESoJ9G4DY98Po72wAbwzur8ByP8XoGWwJgyw6LqFCbBMHIAZHU/SnWuAZSwAVvevAHl43dXT5F6YOvwPdR+HB2gaBQh0AcCEhSqXfAyFRfgCC79RpFiGhTVIIVRSn7F4JqS80Ff1IBCD0oZiExiO0JYl270pvo15Y8Kqn1B+c+cBLMecMKcoaep+uC41Y2rtrJYGWCtyACsLmTyRwO4IK2+0ldLffRqhsx7e2lb+0Vb5aYlOX9Kcinnj4n2UePk7tXoLFUL+r3c+hhADcjDKgU/2zWEFZdWkLlb0ARY8AEsVcV/IEViEjcYAiyCSZcIAq1CpZgdYakbTu1dASvsPf9TNUIWdKQ7DjGGPVdFDNJsa3TcDMjzoygCLvg/CBFiQI2EMf4ruXAMsYwGwuq4DMKXu6gl5MqYNv6fu4/AATaMAgSo4AEudQuhjTurBJ+WwlgBr4r3DgXSuiHA5+YOAEkobio3XN0qbcjZJfAZ3jn2v3LRDe98XYPmNTtg85ebu222d+rWewyl9Fywy0MoA66JO+xTCCqBVqcLu7oLseV3a0VbeLHlfOCYex7wTDwntnojrQGffewhMZB6CClICXSCrIKXQgVqu+6loNFY2SqsTN0Y8AgvITyFURdwXnsZF3MvvfwZY5TXKWDDAKlQqHgDrdEh5B3UbVG8n7oMx7KTq+4lYD0bXnwF8JTSvGGDRpWaAla9VHADW9NUTIMVC+iYIainugjFsQtDW3C5+ChCexgGMVxFY0icCqxqgVcMILEiBiYs/BjC4YIkoM6RAiQImQeg4SL9kSJId//eYM/Zbkdqa57pTCF2eESRrupRDyhqreUttBGa26CmEFy73r4FVaV0rtZXcxditrVUJtLL3Ymbcf+L2cTtE6r5pRmfOuGcpBE4onwroisDKpQTakVkUiGWZduLGo6KdQsgAK+guZoBFVY4BVjwBlvHMUKD9XQA6dStUaZdCWu6NK2OUljO9+1BI+atcyYIqFaI0Z4BFUSljwwArfgDLeP7bgPYb+iYIaCmxBqLfdjB2+SRgD9wsZgqQkEIWYDmTp6RNle95GRaeWv0phI5Ppy36E4TYNbc+PlFf5RaPAiO8fVDaUGz8fCO100Zj7piHy00t1PfPvb90DazyeyOGtbMYYGXTACsFV6VqW5GirVy7P3eSoYQpdsT8cW+Eem/EabALZ/bB+i3XQYg2a1pl61k5kVT27Z39fCPWxdIiDrAmLFwOL8ASHIFF3PIMsIhCcQSWj1BxiMBS05rW9SYEtqduhRrYPQij47ga9NP4LqY8NgADt3gdwFahOsMAiy43A6z4AawrX/ovpJP/oG+CKiwFJmJax4IqeuCmMVKAhBIwfkGmBlapq6CnstFZtQVYE+9SEOeI4i6W9ce/KQkieZpS2lBsysOyj/G517aAYZiR2pMKYEm7iHttYGf9gJb7wbvk/qbdKnld5K1xCwOsCx5MQzpF3G2F/FIE1VtOXSvn+8Apgj7jeMGZiZsw/+RwjtqO1A1aI2fOWPQVQFfpGpmrIIXQC6Yso1w9LOttJzKrDMTK9N+JmRGOwJqwwAdgqRpYnEJI2HEMsAgiWSYcgVWoVFwAlrH6KUB8h7oVamDXA7R9Ecbu/6pBX43tYvpzx0Lqy0J3ggEWXXIGWPlaxSGF0JAJoHs9gHb6Rghs+TiMDi79EVi+eDWkPZVbAEvVwHJfZZqWBxfLsKiGEVinLpr26bOQkfcwVXatQorSch7uyvlTKdQS4lnMPfGb5boN/f1zXBFYfvugcthZZAqE7VuppnVbK711UwjPX+ZTA8tFpijF2L2RVmqdctFU+fujVEH4/PfWYdDQrXDTqJ7Q75E4DDhx8WEQ8pG8unCVQCylQWUF3jtx09HRTSFUAEt6a2DhGtzFAIuw3RlgEUSyTBhgFSoVH4D1P4C4lLoVamMn/oa+sgM/6lhTm/4a0Ivx7GAg0QXgS6GPzgCLLjkDrHyt4gCwrN9JL8wHzNPoGyGopVyHTX0+j2t3+yhoD9wuPgoQCICqgbVgCaRfDSzrab+8Gv7AosYA6+6REOaqAmdIAKNJo7MEZmHuSf6nL5ZflfpZuAGWe5S6wSzKHiTY+ClC2T8kmxYGWOcpgOVEYPmAKwtGOdFXzg/211LgyjJx91fk+wI7Z6Gl+vjaBXeOf7V+N0OMe5549xWfruuMTFCV6/6qBGI5zWh1saINsE5ZsByCAVbAHc8AiyocA6z4Aqxpz+4HkWjEidKXwui4nroFI2dnrJ4FiPMb4hcDLLrsDLDiCbBm/GE4ZPo5SAoQoG8Xf0t5H9BxMgwRrcyjaqfF7StWgPZU7wAs3wd874uELjMmy7DotNrVwLrwV32w9oN1ADL1WEpdFODgvQ8J0yKdUFdLSKLLgzB73Mpy0w39fQtgqeOgCaJ5TcpH7pG6JRmR9oFHPUobPxvRygDrflcRd4sm2amCAaBVqfpZJd+zx82yqyzsOgELJjwQ+j0ShwEnLrLTXTwF2tXcyp0oaNmo/7NCsLKZhUVTCjOmnbjp2OhGYJ1y53IIUXgK4V2n8ymE5fc7A6zyGmUsGGAVKhWbCCypAd3/B2A76naokV0SkKNgDH+iRv2F182V/+9rSLf9AUCf8AZ1jcQAiy47A6x8reISgaUOUjO63wbwGfpmCGgpICHFHjCG/TFgD9wsJgoQCAOAk+/M1MAiPbz7KeMzjMQy3F1DgKWGPXWR+svVfnkeUGZImVf0gNb72E77HIyxvZHbi+csWQGI0YV+ERaj2YCW+2G91EJoidZNITxXASxomfpWbmjl/OACWo6G9DTAfNXz2nkG831PzMPCCZMidw9F3aHzlgzE+p73APTN/V6wQZY3Gst9jxSALevNXCSvX0phrr9O3BxxgAUPwFJF3BlgUXYzAyyKSsqGAVahUnEBWNb6rm5AGqH1Efw62tLDcdk+H1C3YsPtjGe+CLQ/B2Bow3xhgEWXngFWvlaxAVjqc6vrSQD70zdDNZafRmEZw0+qpgdu2/wKEIiCC2C550uBPqVqHdUFYC24GhCXZdysZ1pgSLWzSmu8ALePmxjJLWgBLLuIu+9aELZd3dINi+yNSve2n/Cl1kvDCMw85plIrle9nfruUrsGljOQh2QVO0mw9tFW+UXilTsSb+Gf/9gBTxmpessQq/4nLDwUAo/SIq0U2PKkGFq3of2a9aUMxMrYM8AKcxMZq/f/tKC0+kdpGBcDLKrKDLAKlYoTwJrx/Hdgak9Rt0NN7QTehDT3gbG3iqaI9vWj3w1B3/4PAjLMovc+e6+D8A/aKqQ0ul4BsHMVPVTQVN8Txp4vVtCgMlMGWPl6xQlgTeu+DEJeXdmGqMJaihMxfZgKruGrRRWgffA6EVjlRKoEaklRhwisBUcDQp0EVeSqF3iqJyzzTCWrsTkWt5+ytNySNOT9sz0AqxTIzDpI2IrNHJ3VygDrHBtgOYWuigErtRfCgVa5MDCr9pb+Tdw9/tmG3CvNOuipi/4HUl6a+TtB0BTCImDL6c/bN0QnbjkuuimEJ99ZeAohcA0WcwohYZszwCKIZJkwwPKBCKufBsS+VAmrsHsVRscuVbQv39R4ZSCwURVUt/OryzepqYVAN+QW+8H4r0017bfWnRldvwZwcK27rbg/jsCiS8YAK1+rOAGsy1/8HNpSYZ5m+iamDfsChPCrlEvfk2zZtAoQqIGKwLojk0KYdxGalgRadQBY4xftDiEzfz0guNfUUVrSjG7xaS/A8t4elDpXlAVsZJSWtcdImywze120bgTWOUvSkJ5/jIeWImhvPu9Jh9bL9u89Ka7F3af9d9N+ijfC8QkLHgdwUGHNKvd9USSlsGTBd+fD2wPFrFtNduKWExhghbXeHIEVltKVjcMAq1CvOEVgqdlNXz3t07IyuVO1K9shNbAWzwDaETD2/LgGndW2C6NrS0AuAsRhte04YG8MsOjCMcCKL8BSMzO6HgZwBH1DVG35O6DfKBi7fFJ1T43swHiyLzD4IGDtozBGcjYIcS1oT+AKYEkbYJGiaTyj+z7o1wFgTbxzc6T1D/PwFWmG9YygChL15TzEFVtFuQ7r2rbE0gjWv1IulwNY7mmR9hNhEesWnVVuLYggq5UB1tn3uYq4lzgpMK+4u+ePKhXXtrI3mQOuXLwqB64cG/kbLD49pNx94idz1M3Gz/87IHbMj8DyicTyRlNZt5OTOljsq3PPuVIMrVMKow6w7lgObw0smNdg8ZlcxL38fuYIrPIaZSwYYBUqFTeAZTyZgBj8LqQcQt0WdbB7D5p2MKbu9VId+g7W5VXPb4+UWAiI6Py+ZoBFX0sGWPlaxSkCy/rd1H0cIMM9FEmIq/G1vaZhrFC1dpvvMrr6A+IqQF78aUTp00B6KoYOfRoXfamn+SYTrscEMmBHYElpR2BRgAyhW6HVPoVQaTdh4YuA3D1fRorPXuEDtCFF5NQAlmm4DvNO/kG4W6WC0c6+bwUkRlcUoeR0H9forFYGWJMUwLIjsMJMEcxjYE60lWsfO75I+TbuOWPbCnZ4a5tOvLMvkto6CJnIRrGq+zb7+eeNvPIDW7Z92Wgs1ymF6hTCSEdg3bEcEvmnEEp5De5lgEW4YRhgEURigFVEpLgBLDXNaas7IcRR1G1RJ7sNEOICTBt2Z536p3d75R++hHRa1Qb7LL1RCJYMsOgiM8CKN8C65oWt0Gu+S98QNbE0AfNqGHtPrUlvYXcyfbU69OxIyGzaUQoC7wHyNEwbrjId+CqiAIE0ARinIrBsgEWJmKHYAMuw+PTja74y4+dPAcR1ef1S/CEpERLUKu1LGkLbAXeM+0/NtatVhw7A8vZHAnw+TpRdP8LiNTrdENoI3NKiRdzPujcHsNTyktMHLePchsgCJ+cl93su2+zLHmiVB8/yTj6UMOWeuO/M6PyluVb3Yj36GTf/dAh5R2EklRqsgnpYlnlFBd47MTvCKYQnzVsO4TmFUIIBFm0PMsCi6cQRWH46xRFgzVg9AlL7HeSnR9Q39BK9VvSr1vZDXLH766G7Yjw7GEhcBoFLINEW+vjlBmSAVU6h3PsMsPK1ilsElpqd0f1TQIYdYLEJQlwFufanTZOCd2XXTkhjAYARRW4g9QDzHCDnYk3yHtyw70b6jdYalrRfjG6A5ehCiZQpbVMfgHXK3O0g2v/PtwBmYJ8LSEzh7qAoSQI4ZSHZP3DnKTtFensWA1hup0laeGZJWb/I1s5qZYB1j30KYYn0wYIUQTeQKgKqsiY+0VXudETLzu/kQxfEEliIe848LdL3VVScG3fH0xB2wWQLQLl+KVjfO695UgAtM2pdLNs2+8UK8WKAFeYe4BpYYapNH4tTCAu1iiPAUrOMRhRWRm+J9RC4DOi5F8aI+kdZqNQagX0gMRdAdP/NywCrgs+u7hsA+X16g2os5UgYwxtzmifV7VgCrCcTkIPehsAWVBlqaHclgGthdGyoYZ+172p610hI3A2AmvnxZ8C8HDCfgPGNtbV3qDl7pGCX/AisUvMsGymTV51qGRafUfsILOXfhPlvQWIbUiX3ynwuMfuy4KmwLQnieB2Uv8T88UdGeruddd8KQI7O85EyV4qNd+KU9QsCtSiwjHT3OEYtDLDOXFwIsKx/EJcCU14oVatoq7zIq9xukjIFc+1gLL2E/8pR6sNlzOzNkEh8ZIVOZWGVC1Q595rFm5y9743KqiBKKy/FEJ2YPTa6RdxVBFZBDSyOwCL+rlI3eNh/tSW6FtRsi1l1OcmNAVbrAKwrur8FXf426A6sQzuV6LIWErdicO8MXFKnqIDpLxwPaV4PYIeGncZIFY8BFlUpFZ3DAMutVhwBlpqfsVodsjCevjFqZikh8RSMYQdG8nRC45V2yA03QWgTAdle4axNAB8D5mQYe8+vsG0szUmP4Dhx3hII4TmFkKBHKbggVAphnQDW+AXPAnIfH2JU3mkKECGpVi+ghYswf/xN5SfSQAs/gFUAnggi1gRoqYG9Y1HG9tGvqr2ht24K4Rl3FyniblEsN0Ryfe99z/7ZW9fK/bM3RTDbhQ+08ktjFOk9cN93OY2w1EfHibfvDgH7pFcHXBX7at97eVFZDtjyi84qU+BdohNzGWCF9skebgRWaNMKbaCe9Jb4yT4f1Hw8BliFksY1Amt2Vxvewa9hIjpFy3PqqxMKfwMhHodMPQ5jn/8NvNeNJwdCDDwQ0A6HlAdCYCdXTZjA3YbSkAEWXWYGWPlaxRVg/fjZLyGRUP9O7E/fHDW1fANCXIJpwx6saa/VdDa9+1hI+WMAe1XTjdVW4BVIcz76anPxo441VffXpB0QnuQBC2DBOYWQ1qRAj4JAIrEM99YJYJ2y4G5Anpz1gRJN47eA5YAFSQofI0o7f3iThi52wu2nqBTJ6F4UgOV4T4FUFBuvGuQ1L7MYfm+X2xf2c3u+Sy0OsKRdxF2J4j4Z0Pq50hTBMrWtvGN4DjTMjucdV2rjcf+ZKqyXr2IKjL39eGi4P/fZ6k0X9MIs+2bIBmOVgV6WeZE+VQphswEs07wGSybxKYSteEcxwApv1eMKsJSC13Ztho34PwhsFp6ggUZSPj4BiOdgytegy/UQ2iZA9iJt/7LVEzrSWh+kkwOgy60B0QGB/SGxn89fGgM5EXojBlh0yRlg5WsVV4ClZml0XQvgh/TNURfLxUilDCT2+TsMoSKYwr3UabIYtBsAVWBeHchBefqvwEf59qcPUNOA5PJQ0ror8CwMU5qYboDl51UQwIC6AqzzAHlzSQEpEMLbAQWKkBQNALUyGq/G/PF7h7ExqhrjrHtXQMpgpxA6D7DlHAiy5yjrR/l8IQV0eYxECwOsiXfZEVgRirZS+8sbvSXFYjww6ZRyW6+l3x879wYIkalh4dyDeRFWLkDlvF7U1hWNVQ5wWX1o0QZYJ6oUQp9TCBlgteYtwwArvHWPM8CyHga7ZwHy/PAErXIkYf12TUFCHeCSe3BUiecSOgR062scLgZY9FVkgJWvVZwB1rSuHSDQ+GALiY1QGV/t6e/hsjpERBfb/caLXwZSCyHEHpCyD/0mqdhSfdaug4nroQ27uiGgrmKXa9OAhFswVkVgOacQEpqQ4EIdAdaEhbsinf5TViKKPyS44SM6BYQRJCsAs/7+XIYF439Sm6WvYy9n3ltYA8sZjrIWXtcobSg2flOmrF8toJZItG4K4cRFPkXcXQTJfWqgN0XQDzRZ6+hOCySmCBbty94YEh9C+8+2WGr01vHuaO6ux8z9IwS+7n8CoTc9sEyB93LQKgvIsjdpJ+adFN0aWCfOXQ7pAVgAR2A1944P7j0DrODaVdoy7gDrR78bgr79ngHw1UqlYfs6K8AAiy4wA6zWAVhqpjO6zoKJObWPPKJvOZflJ4BcBWgPAvJhGB3vB+qlWCPD0KAd9XWkzeMgcBiARgSbvAmBuyH7zYSxy9s1nV8EOyOhlTyAlQUR6htK+lUxmzoCLHXs8Cnz3wM8pyC4IwKKLUbNQJaPPiS1vZE7bke172DBKVEq6OmvYimAVcn+8QVOBBGDwCzSulPG9nFaNWtlgHXaQlcNLA9FctIJS4IrD6zKdlErcOVKSZTagXhw0qoIflY33qWj5m6NPnjL+uB3w6e8SCv7c88Ln7xRWnk/+xR8943eEtEGWGPmLodggNX4jRoRDxhghbcQcQdYSsnpqw+GFL8OT1QeiaQAAyySTJYRA6x8reIcgeXM1Oh+GpD70jdJCJZC9EDKJyDEAxD4I3rE+2jr/Qh49BMYRvlUQ1Wb8K2eIUCfoYC+DUT6EEicAOBLIXhPGeITSPETQN4FY9g/I1nQnjKLMjaEJ3LAF2BVDRfqCLCUbyff/iCglf9rPQV2kKJ0PIJQgAhJfZeRlFtj0an1P7642o11+uIVEAjpFEKCiJQ19t3P3hf9xqKMr87RaeEIrFMVwLJrYFGjrbwF2Yu289bQ8tbTstfQr2i7h6VlorrkTDx47veqvQVi2X7s3HEw5WJrbu70wbKwyr5HykKrLBXL/W0kv+9O3D6u/Gd6o8RXAKsghRDX4H6ugdWoJWnouAywwpO/FQCWITXghbmAPCM8YXmksgowwCorUdaAAVbrAawrVu8JXXSXj3ihb6MaW6Yg0AOJJAAVpfV3QLwBQAXBqNQ8VcG3HdAGQ6a3g6btBFNuB4E2AO0Q6BPJAyeEUA80GyDlHTCGX1RjzSLRHeHp2wZY0k4hdLtNaV0cHizDfWcdXzcVTrnz+5DyhsL+y0WNESZFgVNBgUix4SWew6JTv+mp3FM3+arq2A9gFbAgis4Em7D6tR7aqwBaeisDrAVpSKFli065YZQbItUSWuX15QexnLV0oq+yX5/B8vNGVLX/49r4+DlzIDApO71SEMuBXP6RVJkuigGtAiDmADDZidtPYYAV1v7iUwirU5oBVnX6VdK6FQCW0iNTFPi5mpxkVYm+bFtcAQZY9N3BACtfq1aIwFIznvb8jyC06Je/oe/k5rEU4mxMGza3eRyme0ojBGPnLoG0TyEs1jelp3yYVWeANf9AmOYTuYctCnzw2FAid8KCWaY4FndNUH/hj/5FAVjuWZB0pmywIOsXoN/sw3feJLyD5//cygBrggJYrlMInerpDsiqJbhSqlOjrQpsrSV7H3u8szUpjDj6d2JtPTxuzu8h5Ihs9JV1H7iiqwprVmUgVfb+VjWx/KKxXLWyisIrZdOMAMu8Bvefw6cQ1nYnNkdvDLDCW6dWAVhKURXRkNBWQsoh4QnMIxVVgAEWfXMwwMrXqlUAlvHkQGDwc4Dcmb5Z2LJqBaT8LUT/g2HsEsu6vrSn9xPm5oq4ux9aSqlbrmeJZVg6qX4RWOMXfRHp3r/mXPQ4FBg8lZsYNVKnNO/IvJsday12+seQpnmoVgALMpNCSIFT3n1EaUOx8duflHYUmwKffQfLvahjBG4Zo4qwtt41fkEakFrBqX9ZJaosyB442sq9FI4PEtDN/bDswqdbb6HKzPi42f8G8Nm8+lfuezybAehAqmKwyvO600f2484LtLI/d+LOCEdgnTCnMIUQkgFWq95IDLDCW/lWAlhK1endx0LKZeEJzCMVVYABFn1zMMDK16pVAJaatdHVHwJ/g8S29A3DllUo8Deg3y5xhVd5hKSkSF6AFQg4eBrVG2BNvLMvesw1kFaOqs/VVEDreSw6bZ8qNnK4Td0AK8he8V0uCjgk2ATxJwjQ8t5dumhhgDU/E4HljbRSGvkWcSdGUXnBlfOztyC8M0Z2PGcTuIq3551qiE6sOD+6qWrh3s2Z0Y6cvQPazdcBlQrqBlDuKCyf1933jvrem1KY97NPMXfrPrLCuNR3nZjPACu05ecUwuqkZoBVnX6VtG41gLVE6ni1+78VysrWl6xEL7atnQIMsOhaMsDK16qVAJaa+dTVR0MTSwGrfhRf9VJAYD2kNgrGXtE/9K0KDWhP/OUAltsBysO+GrXeAEv5dOK8FRDCU0y8gGAUylegCkEm6rwLRiP0LeVtuHviuVWsc7hNSwGsSvdKwXIR9KKshZ8ilHYUG78tZooRmNuiEVgn35kr4p4HigKcIljTaCu1UH4+qJKMfTfDijPXhXvjRHi0Y275MSCuLEwJtH32LeRuwycvxFJNiqYKWm8WL+I+f3x0waJfBJYpr8EyTiGM8M6un2sMsOqnrbfnVgNYzvyNrgUATg1PaB6pQAEGWPRNwQArX6tWA1hq9tP/8D3I9I30TcOWlStgng5j7/mVt2uuFgQaAOCE2ZkaWIEe3osOUd8UQrUOJy04AUgp2lv6ogArik0g2OJHOzyvmenDsPiMx8pNIzLvT7x7BeA9hZDgXW33V27AIP26H7JLuU7tW7YywLojA7BCibYqcgphXt2tMuBMrbepdeCX56mTU/hSChxz8xuA9nlLjLxUQR/Y5Nw7brs8iGV3UjIay9WvA7SE6ESUAdbxKoVQHp23YSQYYLXqHcQAK7yVb1WAZR3nDnUyrDrCna9GKMAAi646A6x8rVoRYC1ZouPVHW8HcBp947BlBQpcDwz7IQxhVtCmKU0rA1jeKVIf3v3b1R9gjZ7dHwMSH1lHXVZyRSnlUOJDDP3MZ3HTqJ5KptBQWwtg2TWwso74iErZfUH2GKUNxSbIfi/WbysDrHG3e4q4E1IEi6UHqjXxpghar7nTAZ2Fq6C2VraJ07mYhIcvmNfQ+ygqgx9149ZA29vWHzB8U/5cqYO+KYNl0gyzKYk+/Wejsayw3U4sPDW6EVgKYEkPwAIDrKhs49D9YIAVnuStCrCUwsYrQ4FN9wHyoPAE55FsBUwYHXpd1TC6XgEQUvFrfU8Ye75Yt/kwwGKAZX1mGRpwxFJAHFfQ5DUhAAAgAElEQVS3vdaaHS+G0XFKq0ydghCA42cvAcqdQkjrKiesWIb761jE3RnoxHl/B7BjoOgx1Qcl8opiEwiGWI3uwl0TJzTVhvQFWO4ZBIBZQYCTtX6EfUmxCbR+rrFbGWCddHsuhZByQiC5tlWNoq3yfLIXWsrl+NVFxzbVfVcvZ0ff8g0I+f+s7v0glvW6lhk9LzrLc0phtr3rvrDKW2VrXLn6tztzgFmmSbQB1rFzlkMwwKrXNmy6fhlghbdkrQywHJWN7kcAeVh4okd0JIEPYKIvBAaE4GESRkdlfyCv1CkGWJUq5vwjbiSM4U8FbBxOs1aMwHKUnfnXPvhwzUMADg5H7NiP8itsi2NwTkcy9jO1J0h4ukcGYKkUQueitCoLBUIDWKsAjCxY0LL+FdkCFFhFsfF2X9Qf8yTcfcZ9TbUhT1uUSyEk6RwAaDkPw5UKQ/GHYuM3bsl2WuvWwDpxXhGA5fw7Iy+kKhdNpd4OI9pKjVEAzbAJA7fZDEvHxvL42Ypum9EzJ0Lod+Z9/mf3us+Jgda96YHHWfBVLBpL9eNEcrkiutz1sCA6sSjCEVjH3rYcAvkphOoUwmXnXl6R3lEx5iLu1a0EA6zq9KukNQMsFYnVDmxcBGBsJdLFzlbiWxDiDkB+KYS5bYDRUV9QxgAr4DJKBlhu5YQwMG2YOvQhOpfxykCIjV2Q+Ep0nGpGT8TLQN9vwtjlk2b0PqjPFBRVCLB8H94JLuQ94IcGsG6ClBfULxKHIAYlJbEYEDGxK+6ZqEKIm+dyAyyv1yQ4FEeg1coAa659CqFrM1RSjL3UKYJZwEWoa+WNtCrnA9JH4ZFL1F+IWvs66uYFkDJTKDgLmawfcimFeZFXJVIK7WYFsMrpOy9FsQBodWLRadFNITz21uWAF2DhGjzIAKslbyAGWOEtOwOsjNY/+P0g9O8zA0JcCIn6praFt7rUkd6Gpp+AqXs+DaPrdQBfoDaswu4jGB1Dq2hfvikDrPIa+VowwMqTJYoASzloPNkXGLyksOxMwGVvvWa/AtYdD2PkplabOhFg3WZHYBHMCSaZhxe5DPefc3zdBR87Zywg8iOYKBCFYlMAZ/xm4xGkIpglPsFHa7fEIxc1T/0rJUEpgOWWiKRxDGCWNc8WBlhjbYCl1r6mta386l75jOEe1zfayhMBlrOfjUe//926f0ZFeQBVq6Bri/+DENtl3fStc+WFVkEhlk9KYQ5uMcAKc69wBFZ1ajPAqk6/SlozwMpXa3r35ZD4ESAHViJjE9u+CU07CVP3yqS6G6v/Cbh+Z9VrYhL/xPSOHerVfWYuXAMrmL4MsPJ0iyrAUk6e3dWGz0KdmndysLVu0VZSPADR92QYu7RkpggFNwHH3qboaJFTCAld+JsswwMhAKxxc7dGGm+X3N4UkEKxIfArn6JaxetsCdyIu0+/uOluzdMWroAUowv8JmwVUqSctzBZzfr1UZqy7iQbvXVTCE+Yk0shdCQuWnS9RF2rukZb+RWCF8/jse/t03T3Xy0dHn3TV5GWr0HzRkO5bjonaiovOqvCulgOpLK+2v/n7VeTnVh0enQjsI7xicASHIFVy+3YVH0xwApvuRhgebSWAlc8vx8Sid9ASsq/kMJbq1qPJMRHMOUemN7xZrbraV3vQ2CLWg/l09+fYXR8ra7jMMAKKC8DrKYBWBaofTIBDLoCQlwR+8+sgDs6v5mYhW3lJa1U88orG+0XmwOwClr7NSd0mTEJB2CpkcbM/TNg59gS3CNBFAq0qA5opaHrO2LRablfyjXZ9CF0YgEsFAKsuoGnJojSEgywip8UWCdopbZ6yYgv/3Gzu0nKNXLfNUNhGLE/jrbop8KoX5wPiFnW+04dK28Elh90cl7LK9Buj+JX68r7mnu87CmF6MTdDLBC+ATPDMERWNVJzQCrOv0qac0Ay1+tq174PFLpWwFxeCVyNpHtEmzE2fhpx5o8n6d3b4KUfUKYx/MwOur7Ry4GWAGXkQFWnnBRjsByO2p0jwfkTQA2D7jwcW+2AcBkGB23xX2i5eZHwTm5CKxSvfkCnRLdixAB1gnz5kDISQXuU2ZPAVUUG+/g5VIJhXwdi8/csdwCRvL9ogDL8baewImSsulRLcj6OQ/Y5RYg+2AuR2DuuGfKmcfy/eNnZyKwvAXZ/U7/swRw17OqR20rv2grO/DHc0qiFGIUfn3xI7FcF8qkDp95LwROzJqWLcbuTQH0+dl97xREbbmKuRfadWJxswEseQ0ePI+LuFP2WtxsGGCFt6IMsEpoLQWmd/8gk1IYm4fCDZDiakwfdk3BxGd3teEthJRSIx+FMby+cJABVsDPEQZYTQmwlNMzXtgdUt4DyK9CeiMfAm6HeDR7A5ocj6nDn47HdKqbBQXhAMfYKYTusSgtC8BAXtpJeBFYx82ZAF0sLCtVoDn59BoYiLj6kngE9545qqzPUTSYsNB1CiHFwRYAWhpaF2AdZwMsC0xFNtoqs1ELTyN8Uj5xyQGUXRxLm8NndgNyL2tu7igp55YtGY3lqoOVbe89tdBWzQvG8vq1Gqv/dWLxGdFNITzq1uUQ0nMKIa5BJwOsWN4b5SbFAKucQrV7nwFWGS2lwMy/DcJHax6GOqWvmS/1x12p74dpe74FIQoLWBrPbwNob4U0xbthdIyv61gMsALKywArT7hmicBynJ751z74cI2K/j8r4AaIWTP5EAYnT8Ql+26M2cQCT4eCbPwBlndISk/5DyXL8MB361/EXfk55rZvQmqF0S8U0FTpvIotBWUsd1uBi3HPmTcGXtlGNrQAlnSlEAaIivKD7uXWgqRxPWGZR3S3Py0NsG7NnEJoASK3Rk50FbEYewH88kRnlTtVUHrKzWXrcHn+DeyutSVgSk1shccu+bCRt1TDxj70xo+giVwod96e9tTFyoNcWejkOq3QFY1VDIB5X3dHaAnZicVnRRhg3bwcwnsKoWCA1bDN2+CBGWCFtwAMsGhaW8WSzdGANu3TMh670RpFxEogCVMY6Nt2K/57t4+KemU8uxuQeCkcr8WNMIbVt04tA6yAS8kAq6kBlvW8IAVmdKtAjl9AYqeAG6G5m0n5AaT2PWhr74MxMtXck6mt9+WQQGa0Y25ZojBQ5gdCE4IJNBEewDrp9s8ilf53Seko8IMyL1I/ZTsy0db2RSw6VR0F3HzXeBtgFUwzIDyKQ+0sXbRuBNaxLoBl7eYqUwQzv9hy9wXxZENXbatM28JoK7vPfKAmBb6JJyY/23w3YpUeH/KLYRCyK3v7lapT5ReJZf26cCKuvNFYGZ5ZtG9lXjCe7MS9DLCqXFV6c66BRdfKz5IBVnX6VdKaAVYlamVsja7zAJwPYOfKG4fa4hNAPAGkz4Wxd+kDmZRbU1cfDE38OhQPhfgBpg27rq5jMcAKKC8DrDzhmi0Cy+28AlnTu34OCBXtuGXADdFkzeQ6QFuOoYMn4aIv9TSZ86G4W5akWF4ogCUxxp9dEbrwr/e0DA+GFIEFKXDCvPcBOZSsKglEEXoj9VMg0Au498xhhN6jaeIALK93/vsg34qwnWgnOfpIQ1mLesGyVgZYx9ziqoEVMNqqFKRyltoToVUArJRdOWiluInloguyCXGBuXLyzdG82ernlXbojbdK4LtZVOiGSmrYUimF3hTA7M/eFEKflEK/uljWeIg+wIInAktwBFb9dmjEe2aAFd4CMcAKprXxSju0jXvCxILsQUfBeqpTK/EooJ0L7PEmDEE7TMVYfQYgbq+TQ95uT4HRsbiuYzHACigvA6w84ZoZYFkTkQJXv/wZJDfNBXxOuQ+4SyLZTIg/ICnHIPHw6y19iFSZxSHhggzAkv4RWJQoG1+QIUIEWACOn3MTIC+wXCGBDI/TlDYUNSn9SFyBJWddFckbi+LU+PkrSB8wrQS0WhlgHX2zTxH3cicE+rzvC6AKgZi1rUpFaNl8KpvPmE0t9CkYb31ciMfSKycfRtn6sbHZ30iI9s3e/TR0e4jzeWkpXTTFzxVhVbIult1JXj+Etpk+O3FfxCOwGGDF5haoeiIMsKqWkNwBAyyyVL6G1hH2/TqAhCpIfjKAL1bXYVWt/wKBBUjhYVzZ8aeKezJWXw2IyypuF6SBkKMwbXh9D3lhgBVkZdQ/AkfCGP5UwMbhNLv8mc+hrf1foQzW9ADLpdIVXftAk2dDiNNpaWGhKFyLQR4E5C0whj9Ri87i3gcFuQBH3bIEwgFYjiSUdLBS3YtlWB5WBJaKIrt1b+jacwULSgFK3kaUNhRli/Uj5EjcOynaH7yl7gwLYKF4DSy/thQQStG0XhFUQWpyWc/qttNSjMCdLXoK4VE2wHLWvVzKXyOjrfz3Zq/Z3r4VHrlobdx/IWTnd9gNXxBpmUlhttIAM/vYF2K597mTMlgXiKUA1qRo18DyAiwpr8FDF/AphC1z47gmygArvFVngFVbrWc8902Y+qkA9gawPYCtajuAuzfxEQTeBPA8TLkQ0zt+X9VYRvd9gBxbVR/Uxhq+gakdhc8V1PYUOwZYFJV8bBhg5YkSJ4DlTMx44bOAvBKQBwHYIeBGaXSztyDwe6R6r8SV+1YO7BvtfQPHJyEBC2DBA7ACR89k//QeLsBS4YfHz1kDYFBJvSlwyvchlyAlwcR6UDT1bbH09PK5/g3cOCWHVgBLugAWZa/4gwPPqxRoSuiIug5l9fV0VLJfrbUBlpR20SNbVG9B9nIF2C16Uv9oq2JLLjR5YvqJS1UtwNa4DvzZSCHEKr+IKzLEUkoVq5uV954tqShTF0tFYC2NMMAaPWs5vAALYIDVGndM4SwZYIW38gyw6qO1iswaMLQP1outYfYcD4FREGI/AInAAwqZBsSLkPIxoP0BIPG/2HZjD87pSAbu093Q6PodAOVj/S9d/zKu2POvdR2IAVZAeRlg5QkXR4BlTVAKXPz/+mJQ332hmergs10Dbpiwm/0dMH+AAX0ew5TdNvieqBq2R002HuVRPhOB5QVY3olSIEW+zTIsPy+cUwgdX4+brehmbnNTZh820BKiC/edubdTiafJ9lPGXS/A8psEJeKq+j1WRL6AIIy0F4pBrRYGWKNn2SmE7sLr1i+e/FMJy0VmOZzDWdWSpwh6x1LZb/4pgqR7TGCBuXLKRJJtHIwOuv5iAaGKZuaXnHMisYrWqXLtf81JDfR8VfpYL/kUeLf6daUUWmbZ9gywwtxbV3dti6Q6sYyvQAoMHbKgLsVXp3XtAIEjA/lUcSPtZRh7/bbiZmE3MLqPA+Q2dR/WlB9hxvB76j5OlAcwpIbe7q3RntoKWvsQSDkYUgwAZF8ItEGmBaCZMM00NK0HQq4H5CcQ4kOkxQfY4t13cNGo+hUlNrr+DmDHcCTstwWMXep7QvHU1eOgiSHhzAdLYHS8X7expnXtBxHS6ZeJRCd+vEfpw7vqNlFix9e9NADrk6cRrasz0/TVmLrn6uo6iXhrw9Cgj/4KTHwD0hwFiAOtMhhRuAQ+gMSTEPJRSDyHV15/DUvHqmcjvgIqQEE4wFE3u04hJIxEgRMC4QOs4297CFL4/8OPogQJYHj0obRxj61hDO6ddD9B5eianHxnJoWw0rlnZ0RYDNoeI2hUSRSV3R1lXgWpjC0MsI68KQOw1KW4UsSjrYpsmj+Yq6bsRdhQsTARB/7sIQBHFkRgqdm5oqpK1sVybLNBt16gZRnkYJb9Y6Z/X4jVifvPjm4KYdwisGKxk3kSrAAr0DIKGF39AXwEoL3+cxYfw9hraFP/sbn+IvEIrEDjFFCHVIieb0HKIwAMt//I8RkIMQjqZMP6XCYgPwaEqiGrMqmeRdp8FNtpz9QsyrQ+fjddr7QFHD3rPgCZnHLSw7uPDt6RhKqBFXoE1rRPn6AN31PsvC5TlAmsRdHO12GXf2/e9KcOOACrQFOCqJRIPr/bLOpAS+itm0J4xE1plEohtMBWYcSUwzMy4MtJH3TZOUAsU5kpc5UpyB78E1psMFddMrAl/rFqGJr224Gq3tcA6dS0ynz4+xZxr90phS5olf1szRsz2gDriJnLIcTReXtMnULYrDWwgt8s3JIVYAVYgfAVmN49CVLOCWdguQzG8HCzSMKZGI/CCsRPARU5iqfasaGtDf37bQ2R/hakvg+E3AMmdoHAwACTNgHxL0C+DOAlCPkcpL4aWLMWH2xMYovnk03/PB9AlLCaEIgCgDE/74cNffaEJr8FyOMAoQo75q4gIEdTEVjnh/vhf9zskZDmKn8IR5CCYBII8OX068LSScPDWvy6jWMBLDmaBgoJolLglHcyFBBGGNp3DpR23nuilQHWqJmFKYRZ4JRf1yorbalTBLPEJAeuhPVtFSmChJtBCDkuvfLSewmmTW2SOODafU0kns5OQihlXZFSPhFVZSGW6sybUmgxMXekVbExsq934oEIR2ApgAUPwIK4Br9s0iLuTb2L2XlWgBVoKQXGLNGxy47/G176ICbB6JjXUhrzZFmBuCqgojd7U4PQT/QHEn3Rm2qHruvZ6WpaGslUCrreg2TPRrT1W4+d91iHsYLTABu0JyiP4oWuHXHLjhDmWRA4GMCXAQy2jCoDWcuwImSANXp2fyRMla/eJ/dw5icBQRaCSYV6qCiTOXjgnHMatBdqN2wWYOVRzvL9U/ZPs8Gs7AO6HIE7JzxTXoQYWoz6RRrSTiG0OJNffSrXvBsebeW/BkLKrvSTlyp47wkDi9eaaSOvuwJCzMiblRdiWZ/3tkU1dbG8vzeyEV/eaCzrJMQmBFjyGvzyouY8hTBe25pnwwqwAnFWwHhhZ8B8JaQpmkDPtjBGqDQhvlgBVoAVYAVCVoCCYYq7tL+RwFZb9cUmnAAh/xvSglm5qzSQCB9gKc+Ove13gCx+QomvzwSZCCYEoDUK95/9SMh7oPbDjXMisNx7wTsMQbBAQMv9ZF1iahQQRnCxIEKrWBsNrQuwDv9FfgSWjX+iHG1VbOeYomcbrLz8ndrfNNHpURx4/cNCQtUMyL/sBbPSCq2rREqhT5RWtjN3WqLvKYXuP4a4xtAUwPpudGtgjVIRWPCkEIIBVnS2NnvCCrACcVVg6urLoYmrQpre2zA6tg1pLB6GFWAFWAFWwP+RpAa6qPDdDe99GQnxDZjyKECqYumFR+3moESDANatV0PistzDFGHuBSCFQDYIJh6g9THEJ5/F0ks2EjyKtsm4O+wUQsdNHzEoAKngAZogKiV10E89ij+E4YsCrVYGWIfdmBeBZclYSYpg3epaVX4baUL7dmrlJeqY7the2gHXvQqIrxWdYLGUQotpWZFSuRC1YiDLnTro/nwtnVLYiQfPZYAV253HE2MFWAFWIIACxh++AGG+ACnDOnHseRgd+wTwlJuwAqwAK8AK1EAB0iN5oHFUup7oPRVSnABAPQypv1a4xhPL8FDIKYRqIsfedjSkVH8pz78oStQ1Ogv34v5zxgXSOmqNFMCScrT3IL6Mmx6hAwMnwoJRoBRpH1B8LtOR3sIRWIfeaJ2rbSlUCbhSuyWE2laV3T7iUnPV5Osra9NE1jsb7do2Az8G0K+k13kQy5M+bkMsa7ndt7xvtJUdYUWBWEAnlkcZYP2isAaWxDV4hFMIm+gOYFdZAVag2RSYvvp+SBFiTV15F4zhE5pNJvaXFWAFWIG4KECgAFVO1TA0vDK4D3rah0Pix4BVN0s98TQKYO0Oab5IKzBOmHvNorO0k/HApHsII0bfxAFYfp5SgFUg8ETYypSxST5TIso8HemiZVMIxaE35CKw3AArSzhc30Qo2spvK0ghfidXTv529G/CYB7qI396lBR6J7U1+ZRCbySW9SvAfrFsSmHWLtoA67BfLIfwpBCqIu4MsKjbie1YgdZUwOh+AJAHhTp5KZMQffaGsds/Qh231oNd+cJRSJsPqmNCat110f4EJmJax4LQxuOBWAFWgBVgBfIUIDz111ix42Zvi1R6OEw5CA+ff3eNey/f3TE3bA7Z56PC6CCCFASTwCcc6tgNS8/5U/kJNIFFKYBVM0BEWIxANbQo/RIm4e2mlQHWIT/3FHHPI1dWmE5GrvqeIlijOydpisT2WPn9WNbB0g+4boWEGF2RVioay68ulgtSZd8vllKobL2nFOZFZVnBm51Yfn50UwgZYFW0bdiYFWAFbAWM1WcA4vbQ9ZB4DULfF8aeKuq2+a4ZL3wHpvk4gLYQnU8BbZ+DsTsXcA9RdB6KFWAFWAG3AoSn9RgKdvStLwFyN2tmNYvK8dGJGp0lxHoMatsS80/fFAu1T7xjBYSs7CGYuhaB14uw1QNFfhFhlilG4K7WPIVQHPxzu4i7o5Vdxd0CV7nvm2XvC4jT06smz28Wf8l+7n9nX037YJ1v7cJynZSri6XwZF59K08EltO/E43ll1KoUghXNBvAktfgke/zKYTl9g+/zwq0sgJG11cBvNYgCf4NyG/DGN5ckVhXdO0DHb8CMDRc3eRvYAzfP9wxeTRWgBVgBVgBBlhH3zwFwHUZISjpYEHgBwVo2eNLeTMe/O4FsdmaJ85bASAfYFGiobwCUGAVxcaXMQVZ0yBtnDVuYYB10M8yAEtdzRVt5XtLSoilctXksbG5X52J7H/9VzWtioeocnWxrFvBU+Ddt/aV/+mGiDzAuqGwBpZQNbAYYMXuXuEJsQI1VUAKTHvhFQhZ/PCMmo5X8I+t96AnvoUrdv9LXYepVedX/2EPJFO/BcSgWnVJ7kfgPEzruJVsz4asACvACrACNVeA8ERe8zEb3+GRt34OmvlPi15RAAjFxheSEKYqhIl2uRPuPfcNgnVzmPgBrIJ/LwXcepQoKYpNEH+C7AOnjdRaNwLroJ+lhVQAqylSBCn32Mvmqilfpxg2k40+8rojpBAPV+2zA6msve8Po+y4u8zfD/yjrQpTChXAeuiC6KYQHuoDsIBr8BgDrKr3FHfACsRdAaP7G5/WiH0akOHVcsrX9P1PP4ynA2tvgzEyFUm5Z3e14T/4MYS8HBB6Y3zU94Sx54uNGZtHZQVYAVaAFbCfLlpUiKNmvQ2IrfNmTwEUFJvKYNYbePDc/4rVKoxVEVh2CiEl8opiQ9K0VtF0BLhWMSRrXYClHXh9fg2spt/scpM5YPAWeOicDU0/FdcEtAOvmwEprqjJnMqlFFIisZQj+XWxGGDVZHG4E1aAFYikAtO6XoWwTu1u5LUEupyKK4ZHJxrLUFDvhV0BeTOA/RomjhDvQfbdDsYuvQ3zgQdmBVgBVoAV8I8/agldRs96DkLsXXKuFFhFsSkJX8SjePC7h8dKczfA8p07BRARbLx9U9aCYhPY51IOtTDAOuD6XAphXDa6wDnmyilz4jIdNQ9xwPVPC2Dfms3JjsCS2XuuRDSWY+M+mdBxJFsXS3bioYsiG4ElfCKwBHCNyRFYNdtS3BErEGsFpq2+GkJcFoE59gByPj5pn4zrd1/fUH8ufqYfNmu/BQKnQIZarN1n2uJ0GMPiV/+yoQvMg7MCrAArULkCAShB5YNEssXoWXdDiJMr8o0CPyg27kGFeSkePP/6ivyIuvEYdwQWwVlKBBbFJtJAS2/ZFEItjgAL+F9z1eSvAiKbDUfY6dE1OejazTQzoU5Vaq+5k5VGY1k0zf4gzfsqO/HLiAMsiaPzPt6FYIBV8w3FHbICMVXA+MuWEOv+DIktIjFDgbcg5aPQErfjT399FkvHqj9GhXPNWD0CUp8EmKMgsVU4g5Yc5S3sPGx7jBXhaRCBSbMLrAArwApEUYHWBVhHzjofArOsRWkcHDHRZn4FS8//WxQ3R2Cf3ADL6YSy0yjrQLHxc5yS8kexKYBkhIlZJgywAu+niDY0oW2HVZf8O6LuVeSWfuDPjpRSPlRRo0qMyxV4t+9riwYWj8bqxK8iDLAOUTWwGGBVsi3YlhVgBTwKTO++HFJeFT1d5MuQ2iLo8jfYhDfRPuwdGMKsiZ+G8WmK4FHbIJ38PHQxAtBOB7BzTfquXSd3w+gYX7vuuCdWgBVgBViBoAoQnr6Ddh3xdqNu+jp08UdfL8ODJC9h+Xl7RFypyt0bM7fwFEISVPIxoqwFxaYAPBEcqjSazunSzx/BAKvyjRTtFhrkgalVl66Ktpc077QDrv85gItp1sGtpJMOaHVRQUqhZS6aD2BJeY35+CWXB1eMW7ICrEBLKXDV89sjpb0Z2TkLqJqWSQAfAeJRCPNJaOIZXNHxd7LPqhj7O/gqpPgGIEfClIdCiP4QaINEg4qzl/Few26Y2vEn8hzZkBVgBVgBVqBuCrQuwBqzRMemd98CiKHJ9YAkQk7H8vONuq1uozpWAEvaRdzdPlA0LLcjSX2U66SIMJQILIpNASxTD+oMsBq1Hes2rsA0c+WUGXXrP8SO9QOuXyWBkaEMqaKxsvexC2JlIJX1n+8phRKdePR70a2BdcjPl8ObQqhqYDHACmVb8SCsQGwUmN51ISRmNtl8UpBYAwFVM2sjAHWSoYrQEhBCh5RtAPpBYiA0DIwsqPIXnaOvmmwzsrusACsQbwUCPunHRJQjb3oQQlT2QEQBKH7y+IEPUxyIh86NRQRH3pSLASzHiKIhZWeS+qF05LNgFFBFsXG61hJcAysmHxuuaXSbq6Z0xGFa2gE/e/3Tor1fCG0u5SAWXJArVwSeAVZoC8QDsQKsQEMVmN79IqTcvaE+8OAZBTTRganDulkOVoAVYAVYgWgoEPDpPhrOV+3FMbN3Qio5HVKOtUKXKUDEO2iQNqoPpbye+CyWnaOiwOJ1lQNYQTSk7FTKWlBs/FaDAqtK2TDA0uK1ya2bWJp9UjvgkR/+q6nnNmZJP+3Df/8HMr15qPMoVxfLktgdjSU78ejFlf3BIcQJCY7AClFtHooViLkCU7tHQ5OqHANfjVRAoBPThh0bmwNbGqklj80KsAKsQI0UoGCBGg0V4W4OnTcUiQ17QRMHwvRp1HcAAB39SURBVMQYCOyU9TYI8KC1eRErztsrlr8Uj5+dq4FF06Jwc1DaUXZvuX7KvV9s21YKtDSMwF1nPBPhu6BursX0FMKMXgLnmyun3FI38cLo+MgFJyCd/hnSaQgk+8FMJYSZ7A/IPmEMn4VU1j1Voi4WZCceizDAOuhn/kXcOYUwlG3Eg7AC8VJAChjdNwM4N17zaqrZ/AsbNu2M/9lvXVN5zc6yAqwAKxBzBSgIIOYS+EzvyFnfBHAGIPcB8EUrbz8w6CgisRCnoPO8xbEU1w2w3BMMoiGlDWUXk/qhdOSzYhSYpTPAiuNel8ByuWrKsU09t6MXzUU6/U2YMgEg8ekJWAmYphBmsg9kbz8hU30hZXtd55gXjVWsLhYDrLquAXfOCrAC0VLgqhc/h2TqJQhsES3HWsAbISSEmIKpe6kDTvhiBVgBVoAViJACAZ/YIzSDerqyv5FAvx2GIPHJuZDi+wCG5A1HgSJe/zJt1mOv9wbDMGpzBHE9NQjS93F2BBZldwXXsLRntRo7kH8+rqmjoTkCK8huinqbv5irpnw16k4W9W/inX2xpu0xSLRlAJaCV7LNglgKZqnXpNmGtNkjzA0DhExuXbe52hFYn8Yd2FdBNFan/HUTRWBJvCE1/ACPT15aN824Y1aAFYi3AsYfd4RIvgoZUkRsvNWkz07IhyB/eUxs/51OV4ItWQFWgBWInAKUx/zIOd0Qh/Y3+qL/FrtCxzczNbPEvpDIr+tDhx3deOiCWBR/9l0LB2AVwDvCytE1zHVGaUPZ6aR+KB35zVOMwL2cQkjYAc1mkjR7k1vj9//9UbM5bvl70j3bI2nelom8sqOvLJhlOjBLvW7/LBIw0xrMdELI3r5Cqggtc0DN512swLtAp/z1JZGtgYWDf/4dAH2Qwr+h9/4LT/xoTc214Q5ZAVag9RQwXvgxYF7ZehNv0IyFWA9p7gZj+D8a5AEPywqwAqwAK1BCgaBP4yzqqFmfhzBPg9AOBaSKwBiaJ0ppGDIPD10wKbYiFgNYzoQpu44Ck3w5EaFzggkpZbQiHxlgxXa/S/OH5pM/+J+mnN/JS/aAaf4Ipg2vrKirdBukyAEsFZFlvW5mIBfMNtteF2YSkMmBwlRphmlVM6s2xfr9CrxHHWA15QZgp1kBVqApFDC67gJwSlP42txOrgXSB8LYp6u5p8HeswKsACsQXwUoj/LxnX0tZmYYGrq37Qskj4SU0wH4pxO5YYcUR+Hh8x+qxfCR7OO423JF3C0HCduMYEKCSl5BKJCpVmOXHIsBViT3ak2cEu+YqyZvC0DWpLswOzl16eFIi2MzKYMqXVAmkEabnUqofs5FX6lUQvW+glim+l7BLOfndBtMIYTcKIS5aUtI1KRmllT3VC6lsFM+EeEIrDDXjcdiBViB1lLgupcGYEPyNUhs31oTD3m2AhdhWsdNIY/Kw7ECrAArwApUoADl0b2C7lrdVAocOfOL0PRhSJvHQhOjIDHQo8paiPZt8dA5G2KrlgJYUo7Ozq8A7BC2HcEkENCyeBqhc4IJrR+nIwZYsd3vAExT/y88dfEbTTfH05efBWl+DWknAsuugeXALKsGlqs+Vtq04ZaK0LIjsQrrZgmYqT7CTGrCTA4AUt7PwMpkyqUUdsonJkc3hbCyWbE1K8AKsAKVKXBt12bYKJ+EEHtW1pCtSQpo2hW4Ys+roQq488UKsAKsACsQWQUoj+mRdT7yjh11+yDITccD5gmQ2A3A9pBiCX55wYmR970aB70Ay91XHGEWCYhpLVsDSxx48ztCpgZDpDQLhiBXpruabRaltprQDk+tvOTRKPlU1pcxS3Rs1u8SmOaATGSVShFUda5UEfd0AtDs16zoqkx0lno/G4llnVZopxdaAKzN6iOTjphLOzTlJiE3bSZkaiBkWg9UjDgDsRhglV1UNmAFWIFYK3DV89sjpf0KwK6xnme4k0tB4E78G+djTkcy3KF5NFaAFWAFWIFKFWCAValigeylwJjpbVg76Gto66Pj4QteCNRNszQ6RqUQytGUzMHCKCbCliSYkKKj/PQkwSjCQnj7Ea0LsHDwvHczcAO6gLkB2NBXyPRmBBWbx0SIn5orJ/+oeRwGcN6T2yC9cYxV80oggZRIQCgAZZ9CaBV1V6mCNthS31t1sDwQy4JednqhFY2VVycrc5IhkEk/NGVCpHsg5KYBkGZFe0AI0ZleyRFYTbXH2FlWgBWovQJX/2lr9Pb8BQIVfYbW3pG49Chnw+g4F+DIq7isKM+DFWAF4q0ABQXEWwGeXe0VcACWt2fKbotjhJbSQdNbNgILh93+hhV5JaGib3RA6pBICaT6wEyaAql2wOxf+40YYo9CvmauvHTnEEesfqjvPrYrNLPDAlbuUwhVmqCwIJUdkaWKuqtTCa1TCDMgSn2fdr531c2yIJUbcDknG1oA01UIXupIp9qEivSSyXaR7t0cojTyZoBV/ZJzD6wAKxATBX7yxyHo6b0fwAExmVFjpiEwFf/GtRx51Rj5eVRWgBVgBYIoQEEKQfrlNq2swDG3rABErgaWnxaUnRcnmNXKAOuI+a/aETgZgOWArOxX9Vo6KdDbJmSqP4SpbGpzml2I96Gpm1/G4z/4a4hDVjfU+Y/tA6FtZ0VZZU8YVEXbkYnEUpFVFsyyAFUmhRAqnVC9bwMuU6WEphNIq5/TmfpYeRFZSCBtpxbmTjbMRmNlwJlVPF6KdE+bMHs3B9TYst2basoAq7rl5tasACsQMwWM1/sCH84DJJ9OWPnSroWGK3DFsJu45lXl4nELVoAVYAUaqQAFIzTSPx67GRWwABY8AIuw1cqZ+Kb3lWtEOwQxUMphJemGrQywRi9Qx1GrCBzNPu0uA6gy4ML+3gIZGbgFuUmYG9sEerdoqu0vMMVcOeVnTePzxSv3RgqbWzBKpRBatauSGUCloqUyEKsNaRV9pVILhZ1OqH5G5nULZKlILBtEWSArZUd0OScUqgivTPpgJgpL/Wz1lysEn9kL2XRFYSaTSG8cLGRqqKMnA6ym2VnsKCvACoSlgDoJG0eeAcjbAKGHNWxTjyOxHkIeAGP48009D3aeFWAFWIEWVYDw9N+iyvC0gytwtAdg+e4ywtYjmDRNDS29hVMIj73rN5laStAz0TtSgyn0TIqa1CGEZkcAqX98axnQYaUamqrot5ApBVakQHrz4Juy/i2FwC/TK6ccWf+RajTCJb/ZE2ayrwWv1H9WlJWKuFKQSaULumpgOYDLVHBKQSplY9fOUtBKRWYpCKX6EGZbLmLLAVx2baxMHSwbaKlaWVbx+Aw0U9FYVv0tG25ZUCsthUz3R7pHF0g+Zq6cPL5Gs+duWAFWgBWIjwLG898GtJu5uHu5JZWPALgAxvB/lLPk91kBVoAVYAWiqQAFEUTTc/YqugocfbMdgeWzvQpeImxBgol/BBWhIcGkJtFZrQywTlj8iA0pnAgr11cnpVDVxzIVwFLvKYClIrSc7+0orXRaoDchzGR/C3xY/0Xq+oe5aspOkfKomDMX/qoP+g3+QgZWJe0i7kp3B0o5aYIqZTCdAVoW5FIphukEhJ6pZ6WAk3rdgk6u4u9WUXcbUDmvO+mFKkLLOdUwE5mVi+AyFdCUG2DKdTCxBmn5Hwj5KjTzFXyy4yt4amSqKfRlJ1kBVoAVCFsB4w+bA+lZEOIYSDkg7OEjPZ7Ae4D4BaYNuzrSfrJzrAArwAqwAmUVoDy+l+2EDViBPAUUwJIocgqhZ8u1TnTWCNx/9jMtuVPG3PsAYKrIHXekVa6gu2lBK6e4u10nS0VgWUXfbZjlfG+lHqrXhZC9PUJuGgLIfhHRVZpt2pZ47JIPI+JPcTeMJweid9AgpDdmAJRoT6C3J5My6ERkiaSdQmhHR6V6M+BJva/WU0VNKYgFT90sC155isC762hZqYI2gFTfK1AF+TJM80Uke17Gx1/4BFu9J7F0jMmnQkV+J7GDrAArEDUFjNW7AuJhAJ+PmmsN8UfgZSRwCC7veKsh4/OgrAArwAqwAjVVgAFWTeXkziwFHIDlJwclAoti4+2bspMbW0OrdQHWuPsW2elhul33yC7SbkXf2PDKicDK1sHKvG6lGqZ1SE1F5uSKwFvgRMEs9V9aCJnSYfb0ETD7WqccNuwSV5urJv+4YcNTBzZeaQfQjk0fZoq0i/6ZmlfpngzA6lWvqcgqBbSSme9T6j87xdD62fleFXF3IJZd+N2qoWWlB2ZqZ0EmkZYfQoh3kU69C4mPkdTXYLD2MeaM3kB1m+1YAVaAFWAFCAr89M+DsP6T46DJGYDYgdAijiYvfloFdTrw8AoYhhnHCfKcWAFWgBVoRQUoj/2tqAvPuRoFSgEsd78UUEWxqQnMItwKBJMS6YatC7BOeeA2O2InE1UF65RBO7rKOm1Qt9LSrCgsuwaWBaFUxJYVqeM6udCOzFLgy/u6tOpqJYXs7QuZ7CfU6XjWaXahXh+Ya/53W3TPSYY6aqDBpIDxlNI8gXeRwGc2T6BnnR2BZQOstNaWhVkW2Eq1QaQSEIlMvSsVieXUz0JKh9RTSJtpaKIXvam10NMfQPZ9F3MOWsvRVIEWiRuxAqwAKxBcgeteGoD1yckAJgBiR0A23Qm/FU5eAngFwpyHIUNuw0Vf6qmwPZuzAqwAK8AKRFwByiN5xKfA7kVOgdE3r4DwnkJI8JICqyg2NQFaqhPC7UEwsaFW6wKsCct+DmFF6GSgk2nXurLAlf29irRywFYmdVAVfLfTCK00NQ0KUKnIK1X03YrOykIv3Yrkcto5pxlaheDTm7T0hjYgvTVhB9bExNTNL+PxH/y1Jp2F2cmYJTq2GZjADp9L4P1kAv3WZU4T3NAvgf4ygfW9NtxqS8Dc2AZT1yE39UITa5Fq/wib/2Ytpk2TmdtGqIcIvlgBVoAVYAWioIDxZAJy8HEQ5ixAbBUFl+rgw/sQGIuv/eO3GDs2XYf+uUtWgBVgBViBCChAefyOgJvsQlMpoAAW5Oisz76pe4QZUWAVxSYKQEuI1gVYpy+/yj55TgM0GzypKCxdpf+pVMBcAfcs5HLVxHKDrfyUQxW1ZUdw2ScaqqgtqFQ4kZ9yKKXKYtOFmWwX6O0HibpFZgkpjk4/OVkdZNCcl5QCY5dqFszqoycwcDMdQwEoJNenXxrp9SY2+1ca08YkIRhUNecis9esACvQkgoYXeoQlL0BMQaQJwFCfbo386VS029HyuzEn19/FksZXDXzYrLvrAArwApQFGCARVGJbSpTwAuw3K1jAbMIt43XpJUB1lkPX4a0VbNKgapM7SrnewWshHXiYKYelhWVZacZZk4kzNW9slIMTXdklm2vai1Bg1BtraLv9qmF9vdWrazs66o/KWRSwOwdLFR9LZh9aOF2xNtAiJnmysnfI1qzGSvACrACrAArEL4CKr1wQ0qdWHgCgF0B/FcmzT/Sl0rPfx3AHwF5H6Z1PMB/SIn0erFzrAArwArUXAHCk3jNx+QO465AKYDlN/cgUItyeiHFxtcfwgIV+FzmVtJaOALrrIe/nzm5zgZSpoJGzveudEInEsvUVOqfAloZ0AX7JEL1fabuUg5sZYGXU/xdved8b9XEyqQXZmtuCRt0qcgvlYqoUhXTaWFuahMyuUWNCsD/n7lqyhcIu4hNWAFWgBVgBViBBitg10P8YGN/DPnMadBxOiT2bLBT3uFfhSbnIjFwEXrfXgNjpEoR5FT1iC0Su8MKsAKsQBgKMMAKQ+VWG+PIWbkUwkBwKuC2pKQTUmy860Vxp9wJh60MsL776CRIqepQZQqzS5GwvrfqWNkgy4qscupYeSKt8mpmKfCkZWpgWemHCk45xd5dJxlm+3Xglbt4vBPVla2bpaK2FMwCzFS7kClTyORgyHT/oLeuKcUeeHLyS0HbcztWgBVgBVgBVqBhClzbtRk2ic9DyO0B7AiIXSDlVwB8EQLb2oeu1Ng98Qkg/waB12DKl6Fpr0HgTST6v4HLvvZBjQfj7lgBVoAVYAWaVAHKo3mTTo3dbpgCboDlOBEEZKm2QdpRIq8oNn4CUu4Yv+isVgZYF/x6vBXplIYOzSrinoCpaTbEypw+aKURqjpWrhTCzKmENtiyTx10IFc2vdApAq9OK1QnGDpgS31VsMzu0yrobheGz6QaulITnYgtG4BZcEz9l0oJs2eAkMkBduqjGoN2CTHVXDn5SpoxW7ECrAArwAqwAk2iwMy/9sGaNdshbcGtbSBUUXgxFBKbA3IggP6Qog+E9XvZuVQhyk2AtgGQ6yDER5DyPZjyHSTEv6Cn3sDl33inSRRgN1kBVoAVYAUaqADlcbyB7vHQTanAqFkroLmKuBebRCA4FWDLUmAVxaYaoKVprVvE/cJHjoNUJ9ZJHZquI53KACJNpQQ68MgCSpm0PgWnUqlMdJUVbWXXz3JHYlmpgQ7gUl9TytYuBu86wdCqieUq9G6BLwW2rBRCNWam6LsFzrKphsrGUwTelMLc1EekewYDUtXMKnkJKZ9IP3npweXs+H1WgBVgBVgBVoAVYAVYAVaAFWAFWAGaAgFoAK1jtmphBUbNXAEhcqcQKikoOy0I0LL6pnTuWQ9KKiHFxrvMxVzR9dYFWN9bdahVAysT1aRDKtCk0gnVVwWNnO/t+lVW1JWZgFCgSUEu9b2K0NJ0pNO51y2w5YAsN9CyUwOzpxuq9yy4lQNkZtpzgqGCXFbNLLtWlydCy0pVtKLDBGQqIWQqAZlsE2ZyiO+dLvBPc+WUHVr4U4CnzgqwAqwAK8AKsAKsACvACrACrEBNFQjw5F/T8bmzOCqgABaQA1hewETZdYGgFKVjH8EpoIpiUwpmmfoIdJ79TByXu+ycLn3qW3bx9UzRdCESSFpfNYh0Aim7JpUTkaWldaQVcLLSATNphBbsUnWzFGBS6Yc22IJd6D2tordUn+rEQSdiS4EsG15ZX510Q2EXkbd/ttILnXpcqq2CZcpGpTpaReRVaqJzumEmFdEpFC9N0yoAb6Y2twrPS9lu6yHNlNwJv71UnZbEFyvACrACrAArwAqwAqwAK8AKsAKsQJUKBHzir3JUbh5vBbwAqwDseLYdZRcGAVpq3CDtKOmEFBv3vGULA6zJvxsG3ap9pUPXdfQmdSulUL2mIqqswu4KIFkAKJM2qL53op6sSCon1VBBLHVKoQJLCnTZaYROvSzrNQtmaRb0ykRaZWCZNZZjr+CVDa4UQMu+bheXd2pvWf5kI7NsP1XKofW6nX5opyJKqYl0MiXSG7YEzEHQ5CzziUsvjPfNzrNjBVgBVoAVYAVYAVaAFWAFWAFWIBwFKOggHE94lPgocMjN20NP7wOBowAcDWBwycmFFaHVSKDVygDrB7/5GsyEDt0+adACWQpI6a5i6hZMyqQKJjXdiswSpg2MVPSTAksW3MrUuXKippyvFshypSI69bFUqp8VsaVgmcz0bxV6d6K0XKcTWlFaTnSW6yREC46pMZ2aWwpgKXhl1+1SNbYyNpm0RGn+G+n0a5rsedF8/MLb4nNj80xYAVaAFWAFWAFWgBVgBVgBVoAVaJwCDLAap31rjHzIdQOQ6Hs0JE6EJr8OiS+UrIgVFswKEpllATDvsvncQn420hyBzvNbM4Xwh107QGxMIG3qSChI1KbqWmXglfWzC26p1EJ1UqFT9F3VzFL1s9KqmLv9vYqYUnBLpSKqIvBWip+VWmiDJjuyKhPVlYNeeUXg7YLxFuiyor0yYAvqdQWrVMQW7HpYdrSWA7DS1omJPYBYA4k1kOb7gPwLpPkX9Oiv4tenrm+Nm5tnyQqwAqwAK8AKsAKsACvACrACrEB4CjDACk9rHmnMEh29H34FvckZEFJFZrmPWPbXxw80UXZtEEAVqI2f2z4pklK2LsAyurbE+nUJDNhMQzKlo2djwgJXor+G3p4EEgkd0DWkehPZVEMVWaUAl0o5TCYzpxdaaYSqCLz9vUoPFApsWemJuULvZtKGWQo02bWxvKmGFthSkViuSCsrjdBdDN5KOXTqbfUC2qsw5YtIt7+IROoD7PKqhDFNAkLyzc0KsAKsACvACrACrAArwAqwAqwAK1BfBSgooL4ecO+tqcDo67eEbNsdUhwMiZMAfJ4sRFhRWsqhmkEttDLA6o8Nm3T0H6CjvVfHJwoqJTS0p3Rssr9PpHULZol+mhWdJXoTVs0sBacUxFIwS9q1s1SEVtKui2WlItr1sZyvBWBL06xILZU2qNIPndpXuZRAu2C8lIB8D1K+A1P7D2TyA2hYA7P3Y9x9yjoGVeQ7lA1ZAVaAFWAFWAFWgBVgBVgBVoAVqLkCDLBqLil3WLkCUmDUzd8C0qcCYjiArwDoU7afqEdnWQAsO4vWBVhSCiyFhldf1TF4jY6/9egYNEhHv346enp09EnpSLbrSKV0tKV1pNKZtEGkNCu9UCQzMMuK0pL2aYDuVEMVlaUAlXNSoet75/RCqyi7itgSAqZMQqIHQm6CKT6Gab4LzXwba3rex9Kx6bL7jg1YAVaAFWAFWAFWgBVgBVgBVoAVYAVCV4ABVuiS84ClFTA0HLvlEPTKiyGlOsGtdAF4d2dRBlqihSOwvAtuSA3bdut4a52OT4bqGLhRx6b+OpK9GZjV3q5jrfqaztTIUhFZ6UTm+2RvwgJZKiorlcydWphOJazXYGroRQKaHaGlamWZ2IS0eBe9vW9hu+ffhjHNhlSc+sefRqwAK8AKsAKsACvACrACrAArwAo0iwIMsJplpVrRzzE/74f1bbsA6X0BbRyAb1QsQ1TSDRlg+SydFDCmC+A7Gj7YqKPnMzo2H6ij/1s6evrr6NNXR28yF5mVbteR3qAj0aZqXulAbwJC12AqcJWEBaqEuRHJtg0QiR7o63owsL0HxshUxfuGG7ACrAArwAqwAqwAK8AKsAKsACvACkRKAQZYkVoOdqakAofP3AlCTgDEQQB2BjCkIsUaCbMYYJVfKpVqOBYadnlVx5o1Ojbr0YHtNKx5L4G+fVVdLA1JTSC5SaAtLZHon0Q62YuP+27CnI5k+QHYghVgBVgBVoAVYAVYAVaAFWAFWAFWoFkVYIDVrCvX2n4LHD6zHZo5BqaYDmDHYMXWfbY/5Y4IUthdE61bAyvoXlVAa/pTOv4zSOCzw9IwhBm0K27HCrACrAArwAqwAqwAK8AKsAKsACvQ3ApQHtebe4bsfbwVMAwNzw/6ImT7noA5BkKMgpT9Ige0GGDFex/y7FgBVoAVYAVYAVaAFWAFWAFWgBVgBeqqAAOsusrLnYeuwBE/GQLZ/3gAR0NiDwixXSAfap1uyAAr0DJwI1aAFWAFWAFWgBVgBVgBVoAVYAVYAVZAKcAAi/dBjBUwNBw8eC8k9GsBHJidaJAUwGpPOGSAFeN9xlNjBVgBVoAVYAVYAVaAFWAFWAFWgBWotwIMsOqtMPcfDQVG3bwNzOTuEOIIACcA2DbPsVpArVJ3k65xDaxo7AT2ghVgBVgBVoAVYAVYAVaAFWAFWAFWoAkVYIDVhIvGLlepwJgl7fjknQOB9EmAGA7gKwA0q9cgIMuvnffOYoBV5aJxc1aAFWAFWAFWgBVgBVgBVoAVYAVYgVZWgAFWK68+zx2AFBhzwxCs02dAiLMA2SdPlloBLWgj8Mvzn2HJWQFWgBVgBVgBVoAVYAVYAVaAFWAFWAFWoHIFGGBVrhm3iKsC+988EP3Su0Ka+0PTToKUu/tONQjUEjoDrLjuG54XK8AKsAKsACvACrACrAArwAqwAqxA3RVggFV3iXmA5lRAChz2i68DGA8hvg1Afd8/by6VgCwGWM25DdhrVoAVYAVYAVaAFWAFWAFWgBVgBViBSCjAACsSy8BONIECGkb94lxIXAbgs0X9LQa1GGA1wRKzi6wAK8AKsAKsACvACrACrAArwAqwAlFVgAFWVFeG/YqmAsNmt+EzPV+CwN6QGAvgMKuOVrHLAVoMsKK5nuwVK8AKsAKsACvACrACrAArwAqwAqxAUyjAAKsplomdjKwCB87aAm3mKRA4AsBuALb2BVoaRuCX3+Mi7pFdSHaMFWAFWAFWgBVgBVgBVoAVYAVYAVYgygowwIry6rBvzafAETMPgjSvghT75DnPAKv51pI9ZgVYAVaAFWAFWAFWgBVgBVgBVoAViIwCDLAisxTsSHwUkAKH/Hw7JPTdYYqjIeQ4QDsIj1z0bHzmyDNhBVgBVoAVYAVYAVaAFWAFWAFWgBVgBcJT4P8DceE2TfNeVGIAAAAASUVORK5CYII=;" parent="2Z2Zc4ZfPcimmZf8wGZL-11" vertex="1">
          <mxGeometry x="11.39" y="199.65" width="163.49" height="50" as="geometry" />
        </mxCell>
        <mxCell id="2Z2Zc4ZfPcimmZf8wGZL-47" value="" style="shape=image;verticalLabelPosition=bottom;labelBackgroundColor=default;verticalAlign=top;aspect=fixed;imageAspect=0;image=data:image/webp,UklGRjobAABXRUJQVlA4WAoAAAAIAAAAzwIAjQEAVlA4IFoaAACQmACdASrQAo4BPm02mkkkIyKhIZJY+IANiWVu/ELZGucxf/yP5b+Shc/qH9V/Yb+y/t102Gzfdr8hOsrPf6ce0/6P+zfll82v8J/sPYN+mf9j+f/0Afw7+Tf8D/PflH8JPqA8wH7A/sx72P+i/VX3H/33/VewB/Rv7p/8ewU9Ab9uf//7P//C/d34P/6h/uP2u/5nyQ/s1//fYA9AD/u9cf1+/23br/xPNWwm638U35Pz//1Pe3wAvC28xgA+tPoe/W+ZX2M1t+gH4vGfz6s9hfpQhv6rhpg9Usri1XDTB6pZXFquGmD1SyuLVcNMHqllcWq4aYPVLK4tVw0weqWVxarhpg9Usri1XDTB6pZXFquGmD1SyuLVcNMHqllcWq4aYPVLK4tVw0wddkClvBpeLVcNMHqliJZaIu1xarhpg9UspK3Gli8bb2iMY39E0i5fjF3Rb3Jeh45kNMHqlhcbzIET/dCGlm0fE7MIx1slEMfgPX25hObhpZXFqt1E9UImCIwRSsGApsb/mDAj07m1272AluVUVkIrCOcWJirQNZaebjuPDSyuLVbpt/ghAXHphHBzAKegp3NwjYCoCZnX8eLHsVYLgvnUS4yg0c3DSyuHlzRXZtNrg5cyquKtO+22OdQaeaXhEZIgXFgqcCJOdGUYbBCZ90T4DgipbOciuwKajQ3FL3IjbmVWaxyGmD1SyuH4TZ6p2PSST0vE+KqY28SfqtIhSYAi6cPmpytJyxWudhyUGjKF3AeqWVxagxegSjCAz+iVkBGQItJJKZSXEqVQ/F5uOVTZ8YNHNw0sri1XDTAsdN/AOFLJjlrtUXUEAevLT6XsGE0SWHyKCv4vJFQOQz4Hk5BU5tdwHqlh6s+VTrUwz7fkepv9YLa1mAQDyVPTbGh9e+VE3CEzl81zza7gPVLK4tVwqlxCYGrjf8MMATTAlOlGaQO0/qREBAabSrU7xXfVN+V9ZoXK4tVw0weqWVw/GOtNHJ0qognT6Zq2Fxc1dr4qW41Xv5Xi+zhNfp7YkoLIA4axZQbxvuE7Li1XDTB6pYerPnOYecrxtzKgnGvDHsbbvI01aRrZy/EqBC/0HWcsWyefrE+mxauI14FFFTdvys3V8sXQAMT44Ugforhpg9Usrh+MdQKzfuO56g7O3LKXLrxuEKMSN5EESRyrdJsJYXaeLRhEIo/M7Qe2EIG5M8o5Q1C88Ymy0nU2kQo1DM8PMjIKnNruA9F5H8XW3miwhqp6mVZkK5g2a+4UNkO7cVKCgqmWGMfRpMeV4X15XHuxojLogWJDTB6pZXD8eHsNZgqi5YzwPxWP7szlBSr4t7USRgaFXR4YME7T6SRfajRdoXNoPp8NcYs/9OSqkuySzAPVLK4tVTMVsZiOq/Y5Jgex2l7h9zWJjdtqLwY9Irfc7vf09x4+BcMbfR4xypyWvXxExMUfcLNlXZqnac5XFquGmD1SzYa0xarhQ5k2bU/G9dMBqfquGmD1SyuLVcNMHqllcWq4aV1iP/AG3wwxQksaObhpZXFquGmD1SyuLVcNMHqgeprn6eryuFliX3OllcWq4aYPVLK4tVw0weqWVxaqoAWNa6IO4D1SyuLVcNMHqllcWq4aYPVLK4tVw0weqWVxarhngAD+/y0ZdHjxpZEAAAAAAAAAAAAAAAAEilsGRfADKU9PyE61pQJPjab75mUuTUvONaGgP8Aen67tF7ry7IxT4U6dhN1EoPAzqt3etXV83jbLpxwolr64svcgcPGRktysuGN+yiaWC4Coj1eCjn9vhLPiiw1ZJq0c4i7CX8be1WlRV6eyLp/HBOG+gdOHEOdsyjIVJWK5gvrhTxT3CehdWGCcDIA6JBaqtK60/PtWqFMGDsXjwjU0KiTyke0vsKqTExI96ywBQkVGI9jVMkDAO/ylEJX7I98QOxtyYoyNeWaQOyCeHKwkHOqYsTPoRMEFPGYHb2/iRRVxr9mw05aNswSO7WZQYG2/LIL9nRLO1n3GyV/WDYCE/cp6YF9E+7LAznGVh8jUdBTT3wCfV5kmwV/FU+EwTkPI+Y8isKC0r9UTIqlrb6a0UlBKSgzvikSvuoiOZIVxxjOmEKTYM//I08in9En5op7zWnVs8W3DrdEOBKeJy351r+BQEkYS1/3gdKICk+A3uLYjN/BiUsA6NldhnRT/NwX3TUNqNnhC0bsgTVqSfNDmPf3g52ZllhpQX9RL5g6TQ92MuIUKi9+2oeLURss4T3i+8JCqT/BajRKl+x519kGhVYpcAQZXmfYsnyDoQNWPOznkwH5YKTxVqCOMzvJvRRgdYnLWrACkYAABkUg2DkgXkLyiTwKrDh8KtP+3uLYN9QirRt+qoFG05TZg8nhPbzxKaJnfnhJOJtDvDyAjvgeaITcBQM8Y2XN+uBHzeDWK+YJoWb2gyZR+g37mfQkILPUucjUfRQKLNuh7zlvO/Iha+EKbf1wIdIq7FlqUa7YmdCvSn1T+9Zr+jStZrmPIQ1e8hY46CulmEe9rHM8qSsr47mjjmYcHLd1BjP3Q91s/iCyQhNilHDwqSDavXzqLCDdGHj6p5CGYy4ZiXN+QvlUPposrO1WvFa+m6HGgp8luvyfRqZpQnZtltXS1SRnmQX3HRKUAiDot6uCvS3/Fa9Azh1AJTQ8VN5Ww4tq5puGIE3j255BZ6U3QfP66oSHbdnnnRaVnVmSeJN1V1fHP5mO61UW5pMO5YmmfHAHjb82a8l+sg17Xbr+k9xOQxknt46JAk+z+bm2mJc7m7aXDB5vpOOZojXBhD/6VZwNKV48x/bvMaMBefKdZVy2LRvgRC4Vs0AJcwFAseQCmA+YGv4U0fXGATEtVRc9hkm0AFJll94PHIrI6s8gZr/iinzCfwKTN1JhNHr1BhnyHDPuBm7ZTlMTx0VgFK1L3cEkYL06OqS/tAolyL1KxL3QrCKzGM1vyWRaqyr9gBbb6R1w0HkqBzKl+kJ7X44/zVaHbXyVps/ZStXBID/9BJApdFyuoucuStOK55nh5QXGPyT9kUDQL/0nMgL/7HmMA9vMSkQ0iWtsbFp95TDNqpuqGo39pbRP4SxcvLFVJiqxJKJv10MwugcPe+F28fDoWuiI2WWfKzCKjZ5Af+1oYQ9wi+H98qJNuFVbTZx38kXpSGyHSjrZd91yMhFnE6BgVajfNLjn1T47Fa0FsCHoPX77sIvsWWKfJ4UX0Lx0P71VV9evQEVFiYOFSmE0V40wesPM4EyEDEIvgTiQlE+CYu5o5zXPxsA2bSPRKS8YYn0CUaY1LU5SyKMrf3F5jSPpPdz9+k4nJFeyDc7S35kb4xal6QSsRoTjbEkfOKtW6xKii/5MvMyo2BnFeg7OcmNg0nQNqUWIgPdVtRzWWzaDizAZAh2l/NoctifWq6cVkMgfZW0NqNVdY9ryl9+EZMxSZNnJ25nAYATr31v1u2z5t6Eyemcmw/hKplQ5sadiAyhb9PLaY3Vd5lCFTTn1EYp9UgEymLVt/pp/zsfkz9zlnBY50kkFr5ltVwspe9otgIfp4uYU1Jl7EibWS/Z1J+ZWDoW957uiRQl10StXg2BPGfR1DZcXDnqPyQ5izV210YGXbaVA3dSZkw5qYAMwwZGnmhgD08IWeQlnKZC3Nhwp3Z3y9mX4FOitXBWXgtgdv6r34at6jVMJ7McQXv1WHpGX3nd0JbpHWjS28h4dp0J5LBPJ1y4IyZUlHBAGLUS6doZ+6tfCK40rpkWmP4bgdbktOhhoJpcsEazjijfibrjsiexe6IJbhv793Sn7/wWbyA4xPHZzDhC5yYVEsHWTeXFUfIS+8mbNRjBJ5HqtuI8qo02BZLefrS5ABZeCxepoCuWxkM0NuHPDylUYlABmZDswWgBc7emmZkX54I5G2pyDTrIwMChbZnTIKNji+hOkyFgtkMLb8VWwA1hoWVcZCdzhEkxW5AqwM6ZpMPFMm3PE3C2+G94+Ui2O2vRcFgAAPEPPNIlonpE+tt7OmSLdkyOTYQ8X2zMdbR/hJs2NAcATf3XfwQ4EdKD+uMblbIgmQLDUYRdWEIybpDXFZ8EIE6vhY2GUdBL/RFxsY9QOI3b5W0N8ZMTbY/rvkn1mA5wif3TorYd1W5ClFB3+PMR7l9Zj9oAU5D0rcn1LK1qRQ3HUh1NFnJsK2kbgF13pqwPI8JyeHWk3Y+9ICcjN7+/kqu4pGvHvDi/yYp80DfU2Iwjf9AMhp5qWUIsEaOV1CU7XC+w73y15rmGYpgc1GdWEvEdY7IcwI7wqqVAYAAAhC5Lx5Bj0AcYfk51mpGPCe9dG25kjeAXzmW2sL0Wr89ztuNiMIXZP4L95sEv1mhk/Nm3KY6bfvH+teDebAPCcx6fQc7mPTv3DnLT+1QLuTBv/+E8HICyRjidoEQOTOxunzo7z5dIr5fGsAx9bvXQF8L1uX2U7/wvcKIX7WKpNtQq5S639IcDSNxZD6LkJmPGn/gNXfGmRUDB88cdsa+9IT1doA2lyTTWgP+vtMOKtQQUGVOKmD/sgBF1viHanL9pr8xvNRwPaJ71Csyv11VInddYbAPwVTC7yR4Y2AtMRdbpb4vJigpnEdAaJ9AkxAAlX1QiZYY7qXQSHVxmoe+F8hXqcKSEtzbR2l4vhbh0mcyaCu3OsSvjxZR39evin0ji1CROm6nElwcGNMl5dLFHP+y2eHVFGjyb+/DxJ2gxgqDuU5VLDgVW0Sbh8CCKoNTuFS0ZuSgD7szeu13UCr1DtuWK2ujj84SD1GgQgjLafufEvvPMvWUenShTE68I7MRBcxoBLOJP4raqLVzE9vfS9faZFQbj4igdixiw5YYjH/m4S2dRco5yaSYdP+agw/saAES7LjcHLvWJsFpmcDEj6LtrB+mm0JLDUS+ctxb2QuVMThG8tH+NMMOybXN4aSXLMildoZnKbFdLRY84HFTCeZZs5LILbzFqURYAzofS8pAK6x5rCK9kMa4S4zco+Kku6RUIuVQAdh9yA/n8ObndO7bH9Xxk3T4Kzyt34XZqbW4f/XPgLSQOFmy4AlAz7CuZOA07kL9cBJWVCgVabEKDmsTocEs/NoPAzdZhYlSl+yiEMQ/CJ9FkXb+tPWwJ+8Utn1wvTQUT3BiCB5Ujz6yMkw+e5vaxjZ5fUIWJl8+49NWZ45JWKd+9KDXuaiu1rNs4+aMJYw7jg18hIJSrQ4Aiyjm7YSZXQQU3cQACAmQEjP+LeUxxHCzivfUFgCxBkd7Ot3MIbK7QpoywKZr8Cw8R4hpjxIStP1oM6HH1jkAgm8pQfACQm9hZZgQvA1KpY92TcrS8TBMxBCOJuUO6lTzl1nYYpLMQ9SL+n+OD/cLtmei0rE1N9SI0yKklxEAN3WtUb7tIiIpyIwmMskrc+Euj0UHcpy9N1N8ZMTbIgD++k1Q/MzNHDF4TK9Z8GYk67xY91XCfKAa/cETqhxuvZXcK2K81/pxu5MMAwBHjZapBYTgkrfdD3k2JO2hwgxh2y6USJbNlx/y1UjPQB6rCjgZVUNCAEhvUPK26nqoNhwGCS7X5qIXmhFGml7qwSRQOdUFa4JB6d9dO5x+4xaxAw3degA0FsOcC6oShWRWUZV/C5xOGLPvnx+yssYLf+cAAA5M0wB3pAwVT0047obig8smn2AebOegySECpEMidYj8K55sHdL3PO5TorGuZfqDSiJfTxlYHko2a1mx6cc4s1TrVe8zp7cCA1YPWug+/u94fdcHHAAtUfzWvc2Bn3nK3fVQMLjf3DgjX024OUHSF5wE6bi8lqk5UAx+ZbTjxBm8hTB5jdg7Fv9/C0lEH0JusikU4AY+QAJeXf/pIP3iAPsjsASi9ILWipwxhIC6VW1QnQrCesRhSn0rci2d7XYZsX6FYxKEzUziz5hxj02h6k56G8GliPNc4nx8vnBKZsQP/1HU/c3XKTVXylJKskj7lytaS6BqkDQhnKAuZED62S+8wrRuEm94yn77/+B4l95f6zDtd4bMcgORd5fIfSaDBCvi9Aqzl1ZsdNSxGzU3XIzY3JxpX6253bYAgqBY2lQiXupH3ctgcR11lPR2Ca5rgqyOYToskauybyTrJr+sB9GwcZ/bGdFxsggp9cl3KtmnKX33inM6CCW5JfiZiRygfl1LnL3VPN9y0kViB4wc1NWG2brWxLhNEh4fuDaL2+4GtUhtNI8NGsRBXMrL99vGsnWrw9ZtGMaoTcsfDdpbds2sv/nLinv1vWOx1kwAcA0P3Rc/AvIuwwm5POKudR1fFD85eFx23cNWP0y/EjOUTMbZaho5+F69z0BncfVHlVrbna6QzqD2C04T8CGQGGm4iZG8e5wQqALr2F2B8gJqsgaDoQYNWwDX7Z1Hal3ykg+ZO5yK7juC9JERvIiveu5Lb8XEE7Nh5ciy91WilYq6M3XJ8pzV0QJhOZNu5Qzugb+z/aLrrtP6OvZoG5R+oW8lUfH7gmXnPPlA54Qnv9jUoDo4YU3A0mTvFzFDEVTBEwhKozCD0oe5a451FenqQ1MXgc12pNipe6UQBs0cfQxBV4N3g1nr2OcrO53//Q23jICh51EusfDNiQn5Ul103aTJJb/pg0+7RZe94OMnbOTWmIX/ixWlKsNqTYC4xoQuHPRV34oFn1ygc6sqOquG9ihhCwN6Qjelle5ZZTIiZiicAu94ObLnXRHK3qMx7NlnjRu3WpPSR2jVCUA96Sl2iagSaCJ6ul+8XWIqsgVWcNZZ2zddl+FVaGftcanmMU6lvYDLppA1DCKCvOGyoBThKaRB7m1Tk384ROB9jz0K4sBMneGwBUhmSPAJoxl9yYSvr5oAS/hGgtuBf7bSCEsar1+ZEfIKn37YCq00vN0bY4wgZ5gaMmVvxCdb7ekydNghjJ7KocAoHwq5ILrP9aY95Lrebuh+wJ82yDhMw8ALUHEYWaY1WFKEbtZoP2bW0SFwt04wlHyr6bfcVceuAsirrMl/7l+bwz68UG3uOE/xEi1YatZLAxQPnMDzCgQgnOBxaYc9Uh+uNRoYWykxQIUurU3leFTVEgoJv4x6vOyv4gl6r55vMUXhyb4e+16Dk2sQL33J+VoGLduwkwS8/1fBdAb9bZKlqrpQPVG/tntNNvi5gYF03omsIQan5M2OoErN0XWc+7i7NdxTV8IMpjdb1FO5UK0D4tIs8+ckl2pn/8EfsIAAjPUN8j/+CP18t9kfQqmbw+1hRQh8sXic+Ra7QnmIX9Z7qAP9QdzJB7LtwC4YFt26t0uhP9bYjUt9exzbSDuiMCt7gAccvDdx5ebVNxGPb2Pw998lyJEjE2Hu2Sj9rquolJXZT94zl3cL/Xyan8BTGMaxikt0Eww+XmZhH6vKJw8F/zqMExMJzLt93M03lHUYB1TJ0mJKHigg5pEKlEE6doCrEAeRRJe/oITgVSYQXPR3FEOD94rRr2NQdphjkE4ZYsG/zoAPS0sUj2lBfbflWtYea1XToxSOsEmWFwxBesROz9jdB9Xdkd6c4h2ma+/nch8xVp5Avn3ssVlN59/VcHC/sAQ81yuRjT6xQN6/OhhaMVHdwH+Ciayq93kbGXWihp82sy1BcFtnw04wJebGlfABplaRvyEihH66liH2nPZHbD6n5Uss6d3y2HUItRHW0B1CbfK4TL5sUKyptCePZ8OWYIdr6MHdiNAr8yMuubVUD03jfdGYALac45AUbYxTmZ++5kfhbEhYJKKuEFBbbKpMvshBCQnmfTAOAS/kaMwNyrpYpEMTGpMAhEeHra17HvJVObJG9JG7g04NHtNY3iWB/ZNOQLBUyknBm1EqBLspIBg4TjZWA4w+sxIV8zuatVVrJru22r9O/3Wf+dOFE9NLclV3yAVKK9NVjuzJbTqeBlNvY4Ia+KbZmTY9dy6HWBb8ekEvCDLiLdmjtA+2lbIC1UuFSxeWyDu9Oua9P4t9Xjp5d1xfzk45eRPy9wr2rYXmTpJiWKuuxQE/Ybgl/aBwix6hHgUZqtUIE/uQa8tPWNSNl2hdWw1ei7KlF98E/2C+H76i5vlluLadRtdNFAKH9IZMcVvP0qQadB62pX44tsGJiWK9kpa1tNgpVBHcHNtEkci8qTYI1xeAHM8SYeqZKgsvnqmOF3fPZ6nS9CVe4SgvOysfR2v+9LjyfSXuyi7/E18FlXcFmt9/lDjhy5yvv/YAUmHEiv3pot/0dad5/A8VvXCl67ffevlP2limG6gWwJbpF5ik9IKrQ3wl+Yrwohd4bDwKytkiTvNXLYfwlk7uCEeS9FSLEaSDr9oioWcpvJLPa+HffnrK73Nr+GmrD1sAQF+Z+ZtXajwieb+aG6MzigG0KeSS2eTKSJ4FwIFTAMphLeegsYifyt4LLT3FmYjv+QI5Fw3zwmTp6jRIKXLfgGHODMs2FOxl82LXYG5CWF4zd0TdPUmS33x35WhKYNBYQ0/y4BZfXMvQXxsNR58JmmWICvUCJrYEn91YOsLifE8P3G0T7xB0htibUvwTCYP3oB2/n/ZX6BEgd2FN4xBSXhzvE1PQExQAS9gAAAoiDk3ByRGcvKk/Sznwjylr6UyYbYBM2DfhKfXbQ74S+VfsQK3Ek6JpHjsJ3cSMNQ/ocJgfX8l7I5N8wkfK3EKDZCMv47CuOFk2HzNTCdbNv06G/hFxwsMT6BsAm0hDMCvdcAAABEBhZZfYEVCgry91RjzeWXW3KX8GS9PE4emIPcQL5C+TS69y+fDMMGDNRAaXFZ99EQM5itbtKzYOyOcIFNAOZweQ+t+87KYnUC+Yn7GbOchUN65zIkOlT9nS87LUFDhfhDhFng5IF9pC3y91IqLYAAAHmjF0eCBd6/xM5D+vYR8tViiyJCF+qw2S/urW8jucz1cCjNcT3zInplYaGz3BDjbTs1vKtntbnPFBwkm5fMXo85bgsmsL5HzDQKmHTncaCbvjSNDxTnAAAAPjseDdiBGwnSjRZRNZb7+bdTs5TPOAipQyK8TVPMLicvpv/P93a/ht7KbOnYAAAAAAAAAAEVYSUa6AAAARXhpZgAASUkqAAgAAAAGABIBAwABAAAAAQAAABoBBQABAAAAVgAAABsBBQABAAAAXgAAACgBAwABAAAAAgAAABMCAwABAAAAAQAAAGmHBAABAAAAZgAAAAAAAABIAAAAAQAAAEgAAAABAAAABgAAkAcABAAAADAyMTABkQcABAAAAAECAwAAoAcABAAAADAxMDABoAMAAQAAAP//AAACoAQAAQAAANACAAADoAQAAQAAAI4BAAAAAAAA;" parent="2Z2Zc4ZfPcimmZf8wGZL-11" vertex="1">
          <mxGeometry x="32.370000000000005" y="149" width="91.63" height="50.65" as="geometry" />
        </mxCell>
        <mxCell id="2Z2Zc4ZfPcimmZf8wGZL-2" value="&lt;span style=&quot;font-family: &amp;quot;Times New Roman&amp;quot;; font-size: 24px;&quot;&gt;&lt;b&gt;Training&lt;/b&gt;&lt;/span&gt;" style="text;html=1;align=center;verticalAlign=middle;whiteSpace=wrap;rounded=0;" parent="2Z2Zc4ZfPcimmZf8wGZL-20" vertex="1">
          <mxGeometry x="14" y="1" width="60" height="30" as="geometry" />
        </mxCell>
        <mxCell id="2Z2Zc4ZfPcimmZf8wGZL-29" style="edgeStyle=orthogonalEdgeStyle;rounded=0;orthogonalLoop=1;jettySize=auto;html=1;exitX=1;exitY=0.5;exitDx=0;exitDy=0;entryX=0;entryY=0.5;entryDx=0;entryDy=0;" parent="2Z2Zc4ZfPcimmZf8wGZL-20" source="2Z2Zc4ZfPcimmZf8wGZL-21" target="2Z2Zc4ZfPcimmZf8wGZL-26" edge="1">
          <mxGeometry relative="1" as="geometry" />
        </mxCell>
        <mxCell id="2Z2Zc4ZfPcimmZf8wGZL-31" style="edgeStyle=orthogonalEdgeStyle;rounded=0;orthogonalLoop=1;jettySize=auto;html=1;exitX=1;exitY=0.5;exitDx=0;exitDy=0;entryX=0;entryY=0.5;entryDx=0;entryDy=0;" parent="2Z2Zc4ZfPcimmZf8wGZL-20" source="2Z2Zc4ZfPcimmZf8wGZL-26" target="2Z2Zc4ZfPcimmZf8wGZL-30" edge="1">
          <mxGeometry relative="1" as="geometry" />
        </mxCell>
        <mxCell id="2Z2Zc4ZfPcimmZf8wGZL-25" value="&lt;font style=&quot;font-size: 14px;&quot; face=&quot;Times New Roman&quot;&gt;&lt;b&gt;evaluation-model-front-web&lt;/b&gt;&lt;/font&gt;" style="rounded=0;whiteSpace=wrap;html=1;strokeColor=none;" parent="1" vertex="1">
          <mxGeometry x="407.6" y="40" width="120" height="60" as="geometry" />
        </mxCell>
        <mxCell id="2Z2Zc4ZfPcimmZf8wGZL-27" style="edgeStyle=orthogonalEdgeStyle;rounded=0;orthogonalLoop=1;jettySize=auto;html=1;entryX=0.5;entryY=0;entryDx=0;entryDy=0;startArrow=classic;startFill=1;exitX=0.5;exitY=1;exitDx=0;exitDy=0;" parent="1" source="2Z2Zc4ZfPcimmZf8wGZL-25" target="2Z2Zc4ZfPcimmZf8wGZL-26" edge="1">
          <mxGeometry relative="1" as="geometry">
            <mxPoint x="468" y="110" as="sourcePoint" />
          </mxGeometry>
        </mxCell>
        <mxCell id="2Z2Zc4ZfPcimmZf8wGZL-35" style="edgeStyle=orthogonalEdgeStyle;rounded=0;orthogonalLoop=1;jettySize=auto;html=1;" parent="1" source="2Z2Zc4ZfPcimmZf8wGZL-34" target="2Z2Zc4ZfPcimmZf8wGZL-25" edge="1">
          <mxGeometry relative="1" as="geometry" />
        </mxCell>
        <mxCell id="2Z2Zc4ZfPcimmZf8wGZL-34" value="Actor" style="shape=umlActor;verticalLabelPosition=bottom;verticalAlign=top;html=1;outlineConnect=0;" parent="1" vertex="1">
          <mxGeometry x="317" y="40" width="30" height="60" as="geometry" />
        </mxCell>
      </root>
    </mxGraphModel>
  </diagram>
</mxfile>
